<mxfile host="65bd71144e">
    <diagram id="WIpfZsTKjsTTIBiBybuf" name="Page-1">
        <mxGraphModel dx="1280" dy="960" grid="1" gridSize="10" guides="1" tooltips="1" connect="1" arrows="1" fold="1" page="1" pageScale="1" pageWidth="850" pageHeight="1100" math="0" shadow="0">
            <root>
                <mxCell id="0"/>
                <mxCell id="1" parent="0"/>
                <mxCell id="2" value="" style="verticalLabelPosition=bottom;verticalAlign=top;html=1;shadow=0;dashed=0;strokeWidth=1;shape=mxgraph.android.phone2;strokeColor=#c0c0c0;" parent="1" vertex="1">
                    <mxGeometry x="170" y="20" width="500" height="1000" as="geometry"/>
                </mxCell>
                <mxCell id="74" value="" style="rounded=0;whiteSpace=wrap;html=1;shadow=1;fillColor=#f5f5f5;fontColor=#333333;strokeColor=#666666;" parent="1" vertex="1">
                    <mxGeometry x="190" y="110" width="460" height="820" as="geometry"/>
                </mxCell>
                <mxCell id="75" value="" style="group" parent="1" vertex="1" connectable="0">
                    <mxGeometry x="190" y="110" width="780" height="180" as="geometry"/>
                </mxCell>
                <mxCell id="76" value="" style="rounded=0;whiteSpace=wrap;html=1;shadow=1;fillColor=#1ba1e2;fontColor=#ffffff;strokeColor=#006EAF;" parent="75" vertex="1">
                    <mxGeometry width="460" height="60" as="geometry"/>
                </mxCell>
                <mxCell id="77" value="&lt;font size=&quot;1&quot; style=&quot;&quot;&gt;&lt;b style=&quot;font-size: 17px;&quot;&gt;Medan (MDN)&amp;nbsp; &amp;nbsp;--&lt;/b&gt;&lt;/font&gt;" style="text;strokeColor=none;align=left;fillColor=none;html=1;verticalAlign=middle;whiteSpace=wrap;rounded=0;shadow=1;" parent="75" vertex="1">
                    <mxGeometry x="11" y="3" width="430" height="30" as="geometry"/>
                </mxCell>
                <mxCell id="78" value="&lt;font style=&quot;font-size: 13px;&quot;&gt;Rabu 10 Mei 2023&lt;/font&gt;" style="text;strokeColor=none;align=left;fillColor=none;html=1;verticalAlign=middle;whiteSpace=wrap;rounded=0;shadow=1;" parent="75" vertex="1">
                    <mxGeometry x="10" y="30" width="430" height="30" as="geometry"/>
                </mxCell>
                <mxCell id="79" value="" style="rounded=0;whiteSpace=wrap;html=1;shadow=1;fillColor=#f5f5f5;fontColor=#333333;strokeColor=#666666;" parent="75" vertex="1">
                    <mxGeometry y="55" width="460" height="70" as="geometry"/>
                </mxCell>
                <mxCell id="171" value="" style="group" parent="75" vertex="1" connectable="0">
                    <mxGeometry x="165" y="6" width="137" height="30" as="geometry"/>
                </mxCell>
                <mxCell id="148" value="" style="rounded=1;whiteSpace=wrap;html=1;fillColor=none;strokeWidth=1;strokeColor=#B3B3B3;rotation=0;" parent="171" vertex="1">
                    <mxGeometry width="137" height="25" as="geometry"/>
                </mxCell>
                <mxCell id="169" value="Pilih Kota" style="text;html=1;strokeColor=none;fillColor=none;align=center;verticalAlign=middle;whiteSpace=wrap;rounded=0;strokeWidth=1;" parent="171" vertex="1">
                    <mxGeometry x="7" width="60" height="30" as="geometry"/>
                </mxCell>
                <mxCell id="170" value="" style="shape=image;verticalLabelPosition=bottom;labelBackgroundColor=default;verticalAlign=top;aspect=fixed;imageAspect=0;image=data:image/png,iVBORw0KGgoAAAANSUhEUgAAAEAAAABAEAQAAABQ8GUWAAAAIGNIUk0AAHomAACAhAAA+gAAAIDoAAB1MAAA6mAAADqYAAAXcJy6UTwAAAACYktHRAAAqo0jMgAAAAlwSFlzAAAAYAAAAGAA8GtCzwAAAAd0SU1FB+cFCwc3LH/kU7kAAAWrSURBVHja7ZtdTFNnHMaf94DtUFsDuCwaSVBRZhwTXUawp2Y6bAxFCQIlSrZkUYzyoU1Ra7LFbBdOXACLUBUQiB8JGFsIwQs2QG7s6YxuA5xBDTHiuuiCgkr9CHXtu4uNrgV0g/b0jaTPVfs/zcnz+/W0PR89BGOSaIuLC12ck0OXJCXR49HR5KtZs/AWh377/DnJ7++nX3d04FBNjfX6jRuey8nog+QYqXT4pMGAlzt34juOY11cFBnNTid+r6x80ldY2JvlcLgFJMdIpcMxra2wr1vHumRA8nln5+OI5OTeLIcjBADeW2804pFGw7pXwHJ94cKwy+HhtvutrSTRFhcX0tXd7bnZU5PNhos6HfmyrU0YtNtZ9/UlfKRMRn5ISqL6I0cwEhvrZmx2OkntihVEcaGsjBzTaj3hXc74+CtRQ0Osy/szSmV4uOtCTw/RREW5h58aDBwUKpXXKy/qdNMNHgAslsePOc3evV7DFyoV4dcMD8Mlk7mHt+Tyt32zf10S+uTyGV88feoecHY75wUPYLrCA8DVJcPDXgOXTDYtf+8nk6AA1gVYJyiAdQHWCQpgXYB1ggJYF2CdoADWBVhn0gL4z1QqvravT/Hn7durmzdsYA2gnL15Mx955w7f1dur7OR50QXAdvo06mJiyCdLl3JPW1r4m5s2sYLn27OzXXdNJry/aBEKli2ju6uqRBZACHKlUvfTaokEV81m5ZmNGwMNr9y5dSuNP3uWpIWEuId/hIWJLIBSUqDXg6fUU4LrY7NZIUlJCRS84sMtW1yHzp3zgj/gcrluHDggsgDA8qiujlh37fKUQHZIpeRUUxMfmZoqNryS12jIyHh4nNi27cd5ZrPoAgDAYqmuHisB1RIJjppMYkpY/SAzkz6qr8fc0FD3kKcUz/LyhO/PnJnKOqf8M2ixVFcjPjd3QgkifDGufpCZya1taBgHH5+bK2RP/svPZwEAIGRXVeEbnW6chKtmsz8lvBa+Ni/PF3ifBQCAMPPYMbwsLPQa+lGCoiojgzs4wWZfm5cnDFZW+rp+v+wJChVlZVil0/lbgqIqI4Nca2jAzRkzPOGpLD/fH/B+E/BfEqayn/AmeOvBkyf91duvxwJCRVkZNY3/OFA0Nk5GAp+Wnj4RPBkoKPAnvN8FAIB1vsEwkYT/u7PEp6WnY+758xPBW06fOOHvvqIcDVrnGww01vsyFNkhlaK7sfFNEgINL5oAALDWHT06GQkKSUoKPVxfH0h4UQWMSiB39+0bK4GoTSYlv369G75LrUZ3YyPZ4XGgxVOKrbt3iwkPAKG+r+LNsdwvLVUCoAtLStzDh2Fh9N2WFiWfmuoySiSQNjVNBC+sPH5c7H6iCxiVwC+WSOA6fHisBHI9JATVEoknPBkoKLCsFPedH03ATokJl4uKkL1/v9fwYVjYWHj8tGeP2Js9EwEAIOSXlOCWXj/hQp5SularFTqNxkB2CvhJUWGwuHichH/greqKikD3YXJWWBgsLqZ2rRZxQ0OYNzBA6nJyWMADAOE9D2UBCAIhU13Z25CxvMHrAqwLsE5QAOsCrBMUwLoA6wQFsC7AOkEBrAuwTlAA6wKsExQAzvv+AD7S+/6B6ZSPVs2Z401vt3O0wWbznJGRf8/WTre8kzXmT10J9+5xsLa3e85oQlFRoi0ignVZfyfRFhGBNaWlXsOZ7e0cDtXU0Gan0z0ciY0N+a2nR8lrNAl9cjnr4r4moU8u59PS07lfr1yBfsGC0TltdjqJvqaGAICiy2gkBfn5rMsGMuRaebnFodVyAPCkr7CQpl+6xLpUoELPdnS8/ODvK1YcAPRmORxPotRqOIxGr4/DNAttdjrJtfLyEY1a/fMvr14BHnePj4Y/snw5nm/fjhcqFS2OjiZrZs9mXdwn6MvPnpH9/f3Qt7WRmbW1Fllvr+fyvwDyHmaxLfc7lQAAACV0RVh0ZGF0ZTpjcmVhdGUAMjAyMy0wNS0xMVQwNzo1NTo0NCswMDowMLioV20AAAAldEVYdGRhdGU6bW9kaWZ5ADIwMjMtMDUtMTFUMDc6NTU6NDQrMDA6MDDJ9e/RAAAAKHRFWHRkYXRlOnRpbWVzdGFtcAAyMDIzLTA1LTExVDA3OjU1OjQ0KzAwOjAwnuDODgAAAABJRU5ErkJggg==;" parent="171" vertex="1">
                    <mxGeometry x="115" y="3" width="20" height="20" as="geometry"/>
                </mxCell>
                <mxCell id="80" value="" style="group" parent="1" vertex="1" connectable="0">
                    <mxGeometry x="205" y="165" width="430" height="70" as="geometry"/>
                </mxCell>
                <mxCell id="81" value="" style="group" parent="80" vertex="1" connectable="0">
                    <mxGeometry width="70" height="70" as="geometry"/>
                </mxCell>
                <mxCell id="82" value="" style="whiteSpace=wrap;html=1;aspect=fixed;shadow=1;fontSize=16;fillColor=none;" parent="81" vertex="1">
                    <mxGeometry width="70" height="70" as="geometry"/>
                </mxCell>
                <mxCell id="83" value="&lt;b&gt;&lt;font color=&quot;#ff8000&quot;&gt;Rabu&lt;br&gt;10&lt;/font&gt;&lt;br&gt;&lt;/b&gt;" style="text;align=center;html=1;verticalAlign=middle;whiteSpace=wrap;rounded=0;shadow=1;fontSize=16;" parent="81" vertex="1">
                    <mxGeometry x="5" y="5" width="60" height="60" as="geometry"/>
                </mxCell>
                <mxCell id="84" value="" style="group" parent="80" vertex="1" connectable="0">
                    <mxGeometry x="70" width="70" height="70" as="geometry"/>
                </mxCell>
                <mxCell id="85" value="" style="whiteSpace=wrap;html=1;aspect=fixed;shadow=1;fontSize=16;fillColor=none;" parent="84" vertex="1">
                    <mxGeometry width="70" height="70" as="geometry"/>
                </mxCell>
                <mxCell id="86" value="&lt;b&gt;&lt;font color=&quot;#999999&quot;&gt;Kamis&lt;br&gt;11&lt;/font&gt;&lt;br&gt;&lt;/b&gt;" style="text;align=center;html=1;verticalAlign=middle;whiteSpace=wrap;rounded=0;shadow=1;fontSize=16;" parent="84" vertex="1">
                    <mxGeometry x="5" y="5" width="60" height="60" as="geometry"/>
                </mxCell>
                <mxCell id="87" value="" style="group" parent="80" vertex="1" connectable="0">
                    <mxGeometry x="140" width="70" height="70" as="geometry"/>
                </mxCell>
                <mxCell id="88" value="" style="whiteSpace=wrap;html=1;aspect=fixed;shadow=1;fontSize=16;fillColor=none;" parent="87" vertex="1">
                    <mxGeometry width="70" height="70" as="geometry"/>
                </mxCell>
                <mxCell id="89" value="&lt;b&gt;&lt;font color=&quot;#999999&quot;&gt;Jumat&lt;br&gt;11&lt;/font&gt;&lt;br&gt;&lt;/b&gt;" style="text;align=center;html=1;verticalAlign=middle;whiteSpace=wrap;rounded=0;shadow=1;fontSize=16;" parent="87" vertex="1">
                    <mxGeometry x="5" y="5" width="60" height="60" as="geometry"/>
                </mxCell>
                <mxCell id="90" value="" style="group" parent="80" vertex="1" connectable="0">
                    <mxGeometry x="210" width="70" height="70" as="geometry"/>
                </mxCell>
                <mxCell id="91" value="" style="whiteSpace=wrap;html=1;aspect=fixed;shadow=1;fontSize=16;fillColor=none;" parent="90" vertex="1">
                    <mxGeometry width="70" height="70" as="geometry"/>
                </mxCell>
                <mxCell id="92" value="&lt;b&gt;&lt;font color=&quot;#999999&quot;&gt;Sabtu&lt;br&gt;13&lt;/font&gt;&lt;br&gt;&lt;/b&gt;" style="text;align=center;html=1;verticalAlign=middle;whiteSpace=wrap;rounded=0;shadow=1;fontSize=16;" parent="90" vertex="1">
                    <mxGeometry x="5" y="5" width="60" height="60" as="geometry"/>
                </mxCell>
                <mxCell id="93" value="" style="group" parent="80" vertex="1" connectable="0">
                    <mxGeometry x="280" width="120" height="70" as="geometry"/>
                </mxCell>
                <mxCell id="94" value="" style="whiteSpace=wrap;html=1;aspect=fixed;shadow=1;fontSize=16;fillColor=none;" parent="93" vertex="1">
                    <mxGeometry width="70" height="70" as="geometry"/>
                </mxCell>
                <mxCell id="95" value="&lt;b&gt;&lt;font color=&quot;#999999&quot;&gt;Minggu&lt;br&gt;14&lt;/font&gt;&lt;br&gt;&lt;/b&gt;" style="text;align=center;html=1;verticalAlign=middle;whiteSpace=wrap;rounded=0;shadow=1;fontSize=16;" parent="93" vertex="1">
                    <mxGeometry x="5" y="5" width="60" height="60" as="geometry"/>
                </mxCell>
                <mxCell id="96" value="" style="group" parent="80" vertex="1" connectable="0">
                    <mxGeometry x="350" width="80" height="70" as="geometry"/>
                </mxCell>
                <mxCell id="97" value="" style="whiteSpace=wrap;html=1;aspect=fixed;shadow=1;fontSize=16;fillColor=none;" parent="96" vertex="1">
                    <mxGeometry width="70" height="70" as="geometry"/>
                </mxCell>
                <mxCell id="98" value="&lt;b&gt;&lt;font color=&quot;#999999&quot;&gt;Senin&lt;br&gt;15&lt;/font&gt;&lt;br&gt;&lt;/b&gt;" style="text;align=center;html=1;verticalAlign=middle;whiteSpace=wrap;rounded=0;shadow=1;fontSize=16;" parent="96" vertex="1">
                    <mxGeometry x="5.7142857142857135" y="5" width="68.57142857142857" height="60" as="geometry"/>
                </mxCell>
                <mxCell id="184" value="" style="endArrow=none;html=1;fontSize=13;fontColor=#FF8000;entryX=0;entryY=1;entryDx=0;entryDy=0;strokeWidth=6;strokeColor=#FF8000;" parent="80" edge="1">
                    <mxGeometry width="50" height="50" relative="1" as="geometry">
                        <mxPoint x="4" y="68" as="sourcePoint"/>
                        <mxPoint x="69" y="68" as="targetPoint"/>
                    </mxGeometry>
                </mxCell>
                <mxCell id="99" value="" style="group" parent="1" vertex="1" connectable="0">
                    <mxGeometry x="187" y="271" width="1100" height="371" as="geometry"/>
                </mxCell>
                <mxCell id="319" value="" style="group" vertex="1" connectable="0" parent="99">
                    <mxGeometry x="3" width="470" height="280" as="geometry"/>
                </mxCell>
                <mxCell id="100" value="" style="rounded=1;whiteSpace=wrap;html=1;fillColor=#f5f5f5;fontColor=#333333;strokeColor=#666666;" parent="319" vertex="1">
                    <mxGeometry width="460" height="280" as="geometry"/>
                </mxCell>
                <mxCell id="101" value="&lt;font color=&quot;#007fff&quot; style=&quot;font-size: 28px;&quot;&gt;&lt;b&gt;Medan Ekonomi&lt;/b&gt;&lt;/font&gt;" style="text;align=left;html=1;verticalAlign=middle;whiteSpace=wrap;rounded=0;fillColor=none;gradientColor=none;fontColor=#000000;" parent="319" vertex="1">
                    <mxGeometry x="9" y="100" width="230" height="30" as="geometry"/>
                </mxCell>
                <mxCell id="102" value="&lt;font color=&quot;#666666&quot; style=&quot;font-size: 20px;&quot;&gt;Ekonomi (A)&lt;/font&gt;" style="text;align=center;html=1;verticalAlign=middle;whiteSpace=wrap;rounded=0;fillColor=none;gradientColor=none;fontColor=#000000;" parent="319" vertex="1">
                    <mxGeometry x="7" y="129" width="120" height="30" as="geometry"/>
                </mxCell>
                <mxCell id="103" value="&lt;span style=&quot;font-size: 16px;&quot;&gt;&lt;b&gt;&lt;font color=&quot;#666666&quot;&gt;MEDAN (MDN)&lt;/font&gt;&lt;/b&gt;&lt;/span&gt;" style="text;align=center;html=1;verticalAlign=middle;whiteSpace=wrap;rounded=0;fillColor=none;gradientColor=none;fontColor=#000000;" parent="319" vertex="1">
                    <mxGeometry x="6" y="175" width="121" height="30" as="geometry"/>
                </mxCell>
                <mxCell id="104" value="&lt;span style=&quot;font-size: 16px;&quot;&gt;&lt;font color=&quot;#666666&quot;&gt;&lt;b&gt;10 Mei 2023&lt;/b&gt;&lt;/font&gt;&lt;/span&gt;" style="text;align=center;html=1;verticalAlign=middle;whiteSpace=wrap;rounded=0;fillColor=none;gradientColor=none;fontColor=#000000;" parent="319" vertex="1">
                    <mxGeometry x="5" y="225" width="100" height="30" as="geometry"/>
                </mxCell>
                <mxCell id="106" value="&lt;font style=&quot;font-size: 22px;&quot; color=&quot;#007fff&quot;&gt;&lt;b style=&quot;&quot;&gt;&lt;font style=&quot;font-size: 22px;&quot;&gt;07:0&lt;/font&gt;&lt;span style=&quot;&quot;&gt;0 AM&lt;/span&gt;&lt;/b&gt;&lt;/font&gt;" style="text;align=center;html=1;verticalAlign=middle;whiteSpace=wrap;rounded=0;fillColor=none;gradientColor=none;fontColor=#000000;" parent="319" vertex="1">
                    <mxGeometry x="3" y="200" width="110" height="30" as="geometry"/>
                </mxCell>
                <mxCell id="107" value="&lt;font size=&quot;1&quot; color=&quot;#007fff&quot;&gt;&lt;b style=&quot;font-size: 20px;&quot;&gt;Rp 50,000,-&lt;/b&gt;&lt;/font&gt;" style="text;align=center;html=1;verticalAlign=middle;whiteSpace=wrap;rounded=0;fillColor=none;gradientColor=none;fontColor=#000000;" parent="319" vertex="1">
                    <mxGeometry x="330" y="100" width="140" height="30" as="geometry"/>
                </mxCell>
                <mxCell id="108" value="&lt;font color=&quot;#00cc00&quot; style=&quot;font-size: 20px;&quot;&gt;Tersedia&lt;/font&gt;" style="text;align=center;html=1;verticalAlign=middle;whiteSpace=wrap;rounded=0;fillColor=none;gradientColor=none;fontColor=#000000;" parent="319" vertex="1">
                    <mxGeometry x="353" y="125" width="100" height="30" as="geometry"/>
                </mxCell>
                <mxCell id="109" value="&lt;span style=&quot;font-size: 16px;&quot;&gt;&lt;b&gt;&lt;font color=&quot;#666666&quot;&gt;KISARAN (KSR)&lt;/font&gt;&lt;/b&gt;&lt;/span&gt;" style="text;align=center;html=1;verticalAlign=middle;whiteSpace=wrap;rounded=0;fillColor=none;gradientColor=none;fontColor=#000000;" parent="319" vertex="1">
                    <mxGeometry x="317" y="176" width="130" height="30" as="geometry"/>
                </mxCell>
                <mxCell id="110" value="&lt;font size=&quot;1&quot; style=&quot;&quot; color=&quot;#007fff&quot;&gt;&lt;b style=&quot;font-size: 22px;&quot;&gt;10:00 AM&lt;/b&gt;&lt;/font&gt;" style="text;align=center;html=1;verticalAlign=middle;whiteSpace=wrap;rounded=0;fillColor=none;gradientColor=none;fontColor=#000000;" parent="319" vertex="1">
                    <mxGeometry x="338" y="200" width="110" height="30" as="geometry"/>
                </mxCell>
                <mxCell id="111" value="&lt;span style=&quot;font-size: 16px;&quot;&gt;&lt;font color=&quot;#666666&quot;&gt;&lt;b&gt;10 Mei 2023&lt;/b&gt;&lt;/font&gt;&lt;/span&gt;" style="text;align=center;html=1;verticalAlign=middle;whiteSpace=wrap;rounded=0;fillColor=none;gradientColor=none;fontColor=#000000;" parent="319" vertex="1">
                    <mxGeometry x="346" y="225" width="100" height="30" as="geometry"/>
                </mxCell>
                <mxCell id="112" value="&lt;span style=&quot;font-size: 16px;&quot;&gt;&lt;font color=&quot;#666666&quot;&gt;Durasi 3 Jam&lt;/font&gt;&lt;/span&gt;" style="text;align=center;html=1;verticalAlign=middle;whiteSpace=wrap;rounded=0;fillColor=none;gradientColor=none;fontColor=#000000;" parent="319" vertex="1">
                    <mxGeometry x="172" y="225" width="100" height="30" as="geometry"/>
                </mxCell>
                <mxCell id="113" value="&lt;span style=&quot;font-size: 16px;&quot;&gt;&lt;font color=&quot;#666666&quot;&gt;&amp;gt;&lt;/font&gt;&lt;/span&gt;" style="text;align=center;html=1;verticalAlign=middle;whiteSpace=wrap;rounded=0;fillColor=none;gradientColor=none;fontColor=#000000;" parent="319" vertex="1">
                    <mxGeometry x="172" y="195" width="100" height="30" as="geometry"/>
                </mxCell>
                <mxCell id="185" value="" style="shape=image;verticalLabelPosition=bottom;labelBackgroundColor=default;verticalAlign=top;aspect=fixed;imageAspect=0;image=data:image/png,iVBORw0KGgoAAAANSUhEUgAAA+gAAAGRCAYAAAD2EZnEAAAACXBIWXMAAAsTAAALEwEAmpwYAAAgAElEQVR4nOzdCZzdVN3/8YP6uG+P+rjwPO6PjwqKS2kyrdXiCm6PiuIuiMiqLJ1kWpe/FtfHDQTBTtIWgSoiZZNFUVFkFQVUwJZJppRCoXRyZ7rvy0z+r5N7b5LbfWZu7jkn+bxfr/MSO8vNnJucm29y8jtCAAAAJZae0fWkoV7rgJpvvTfyrC/UPPuHNd++tOZbf6351pLIs9bWfDtuZ6v/TmtJzbNvT17Ls38Y+fZJtV77PXJb5DaxOwAAAAAASmtw7uT9B72u90eePaPm2fMi314Y+fZwuwN4W0K8bz8aefY1Nd/6XtRrHbl89sQD4/lHPFZ1HwIAAAAAMCqrZ0359+SuuG9/J/KsG2uevV516B538+z18m+JPOvb8m77qvNf90x2CwAAAACAVlb6E54R9VofiXzbr3n2gsizR5QH6uLvssu7//+q+XZv5NmHD51tPV31+wAAAAAAqKCBWQe/rObbp9Y86/rIs7eoDsyqW+RZ2yPPvivy7dMH59gT4ljsp/o9AgAAAACUkAyckT9pcuRZZ0W+9YjqQKx7izz74ci3fzzgTZxEWAcAAAAAjJsskCbvCtd8637VodfUFvn20si3zo58ewphHQAAAAAwqiJvg559XOMZa+UBt0wt8uxQVrJfPmvSc9klAQAAAAA7iWeKxwz4Xe+o+fZ8ninvSFDf0ljK7QiWcAMAAAAAyPXJn1bzrNNqnv2A6rvLFW6LZcG96NypT2WXBAAAAICKGZpt/VfNs78f+fZqDQIqrX5XfVXNt743OHfy/qr3DwAAAABAwZbPOvg1Nd/6eeTbWwnGel4YaDxicMFQr3UABwQAAAAAlMzgrINfGfn2LyPfHlYdQGn7GNR9ezjyrF/Ueu1XqN5/AAAAAADj9OjcSS+OfNuPfGsbwdjMiwONiyrzozld/80BAQAAAACGefS8Kf9R8+1eprKXbur7ucv8Cc9RvX8BAAAAAPYi9if8W1IRPCk4pj5U0goJ6qvkWur9Zx/2BA4IAAAAANBQso65Zy8gFFfjwkDk2aFcR131fgcAAAAAaFg+23ppzbN/pzow0hQFdd++VtYa4IAAAAAAAEXi+Uc8tubZ3TXf3kA4rvoFAmudfLQhnikewwEJAAAAAB004He9NvKtv6kPhjSd+iDyrX/U/K43cjACAAAAQAeKwEW+9S2qs6sPwzpXe498+/R45tTHcUACAAAAQGHPmlu3qQ6ANDP6IPLsO2q99is4GAEAAACgjWp+1+drnr1edeijmdYH1rrIs4/mYAQAAACAcXrknInPrnn2FeqDHs3wPrh09ZyuZ3FAAgAAAMAY1GZNekPNsx/QINzRStAHkW8vHertsjgYAQAAAGAUar3WMTXP2qQ61NHK1gfWxsifeBQHIwAAAADsRf/Zhz0h8q2z1Qc5Wpn7IPJtP55/wOM5IAEAAABgFwbnTt6ftc3Vh9cKtb9E5058PgcjAAAAAOQM+F2vlc8IaxDaaFXqA896cPnsiQdyMAIAAABAPZy/I/Lt1crDGq2SfRB51tqab7+bgxEAAABApdV863ORb29VHdJo1e6DyLe2DXgTT1B9PAAAAACAEpFvfVN1MKPRBy37gGfNZDgAAAAAUBlxLPaLPPtMwjHhWNN94Fy5j6o+TgAAAACgUDL41Dz7HA1CGI0+2MOUd9uPZ4rHMBwAAAAAKKV4/hGPrfn2BQRDLg6YsA9Evv3LeObUx6k+bgAAAACgrWTQqXnWZapDF40+GOU+cCkhHQAAAEBpyKnCkW9fRDgmHBu6D1wqZ3+oPo4AAAAAoB0F4TwNQhaNPhjHPmD9jMJxAAAAAIwW+dbZBEMuDpRhH5ArD6g+ngAAAABgTCLf/o7qUEWjD9oc0r/BcAAAAADAKLXZ9rGEY8JxGfeByLdPUn18AQAAAMA+qfn2uyPf2qY6SNHog0ICumdtH/S63s9wAAAAAEBrtVmT3lDzrXWEY8JxmfeByLPWRr3W61QfbwAAAACwS4NzJ+8f+fZS1eGJRh90KKQvW/HTg1/IcAAAAABAK0vP6HpSzbP/STgmHFdpH4h86+9y31d9/AEAAABAquZZ56sOSzT6QM0+YP2coQAAAACAFiLf+iLhmHBc5X1gwJt4gurjEAAAAEDFDXgTJ0WevUV1QKLRByr3gci3t0a+PUX18QgAAACgoqJzJz5fFsoiHBOO2Qdk0Tj74eWzJj1X9XEJAAAAoGLiWOwX+dZvCGaEc/aB3D7g2b+Tx4bq4xMAAABAhdQ86zSCGeGcfWBX092tL6o+PgEAAABUxPLZEw+s+dZGwhkBnX1gF/uAZ20amGMfpPo4BQAAAFBy/Wcf9oSaZ91DMCOcsw/sYR/w7AWsjw4AAACgUJFnnUUwI5yzD+xLZXfrDIYjAAAAAIWI/EmTI98eJpwR0NkH9mnpteGB2VYXwxEAAACAtornH/B4OW2XYEY4Zx8YzfroVp98LIThCAAAAEDbRL59OsGMcM4+MKZ94GsMRQAAAADaYtCf9Kqab20mnBHQ2QdGvw9Enr1lqNc6gOEIAAAAwLjEsdiv5tt/IZgRztkHxrMPWLfIY4nhCAAAAMCYRb3WkQQzwjn7wPj3gcHZXZ9iKAIAAAAwJtG5U58aedYywhkBnX1g/PtA5FuPLJ930FMYjgAAAACMWuRZ3yaYEc7ZB9q3D0Se/Q2GIgAAAACjsuKnB7+w5tsbCGcEdPaBdu4D1sZH5056McMRAAAAgH0WedYlBDPCOftA+/eByLd/yVAEAAAAYJ/U/K43Rp49QjjTM6APXfiueMsjd8TD66N43V/OSv993e1nJf+25eG/Jd+jejtpu53mPhLNnvh6hiMAAAAAexX59rWEK30DpgziqZHhePC8t8SD501N/rtJfo/q7aTtsQ9+zVAEAAAAYI8GvYkHc/dc73C59s/fyPL55rVxbc7kpMn/bpLfo3o7aXvug6HeLovhCAAAAMBu1XzrDwQrzcPlnMnx+r+eG28Kr41X/frz6b+vuurY5N/k12qzJ6nfTtoe+yDyrN8yFAEAAADYpZo38S2EKt2DZVc8dOGh8YpLPhqvvPyopK265sSkNf+//Jr8Hvm96reXtseQ7k+azHAEAAAAYCfcPdcnTA7OfXO86spj4rU3fjvecPe8ePOSm+Ltqx+K4+Ht8T4b3p78jPzZDf+cl/yuVVd+Lvndqv8+WjOgW79hKAIAAADQYvmsg1/Ds+cqA/mUeNU1X4g3/H1uvPXRf8Qj27dkz5lvWRdvXX5PvHHh5fG6W34Qr77OiVdeeXRyt3zN76fHI1vWJ98j/zu5i37l0cn3rLvl+8nPbF1+dzyyJXs+Xf5u+Rob7poTr7rmpLg2ZwqBWdH7Lo+55bMnHshwBAAAACBV8+0LuKvZ+YCWPDd+35W5Am8j8bYV98cbF1war/njV+MVF31gr79jy8N/Tdrevm/oog/Ea67/SrxxwfzkNZpV30c2r0m2QW4L+4CCkO7bcxmKAAAAACQG507eP/LsLYSzzoUyuU755iU3Nqaib4u3PHRrvOZPXx/T+uVbHr49aaP9ucEL3pm8pnxtuQ2SnA7PGuqdDunW5po/4QUMRwAAAABEzbO/SzjvXCCT65ZvGwzqgXjxn+KheYeN6/eNNaC3XDCYd1iyLZLcNrmN7BOd2yci3/4OQxEAAABQcUvP6HpS5FsrCWOdC2Pr7+hNnwUf/Nlbx/372hHQkwsHP3trPLJtc7JtchvZJzoY0D1rhTwWVY8HAAAAABSK/IlHEcQ627avWpKE4C0P3tKW39eugJ78rgdvTrZt+6oHCegd3i8GPPvTDIYAAABAhdV861YCeudC2NBF/5tWU5fLno36d8yeFK+c/4l49e/ceN1tZ8Qb7/1lPLxhMGnyv9fddma85vc98cpLPxnX5kwe9e9fe+O30u2TReXYNzq3b0S+fZPq8QAAAACAIoP+pFextFpn75Kuvek7jWLtw/HQhYfu9ftXXPzheO0NM+ON//pVstTayLZN+7wMuvzeZHm2f/0q+R3yd+31AsKFh6bV3eW2EtA7u38MzbFfzYAIAAAAVFDk2WcSwDobwDYv/mMSfuU65Lv6uizOtvraL8Yb/jkv3r7ygbjdtq9dliypJpdbGzz/bbvcBrlt0ub7ryegd3j/qHn2D1WPCwAAAAA6LJ5/wONrnlUjoHcwfM2eFA9vWp2E33V/+XH273OmJIF5y9K/JIXjOkW+1paHbkteW25Dc3vkNHlJbqvcZvaRjob0wf6zD3sCAyIAAABQIZFnH07w6uzd0ZVXHJ2G45WXHxUPzn1zvO4vZ8XDG1eOOWTLgnNyCrtssrDbWMltkNsit0luW7qdVxxNQO/wfjLo2/+renwAAAAA0EGRb/2KgK5mebXk7vXmNend9LEZidffObu1ENycyfGGu+aM43fW75rLbWtiubXOt8izfsFgCAAAAFTEMn/Ck2u+tY6A3tng1Xy2ux02Lrx8t6+zqe/XbXud3T0rTys0oK9lTXQAAACgImq+dQQBq7Mhc8XFh8fx8Lb2pObhbfHgBe/c7WsNXfiuOB7e3rbXktvO/tLpu+j24arHCQAAAAAdUPOsywhcnQtbKy/7TDy8PmpjJfZH9/qa8nvaZXjdQPI3sM90MKD71q8YDAEAAICSWz7voKfUfHsDYaszQWvV1SfEI1s3xu00snVDXJvzpt2/7pwp8ci2dr/mxnjVVccT0jsV0j17vXwURfV4AQAAAKBAskI04bwzIWvo5+9tKbjWTutu+cFuX3fdrT8q5DVlATn5N7H/dCik99rvYTAEAAAASqzmW7MIWJ0JWBsXzI+LMrJtc7z6uu6dXnP1dU6ha6lv/Nd8AnqnArpv/UT1eAEAAACgQDXPfoCA3pmANZ71zffVlgdvTu6Yy7blwVsKf73hDUME9E4FdM9axGAIAAAAlNSgP+lVhPPOhKvBC94Rl5X829iPOrMfRXO6/lv1uAEAAACgADXfmkaw6kywGvrF++Kykn8b+1GHArrXdTKDIQAAAFBCNd+6jmBFQCegGxTQffta1eMGAAAAgDaLZ4rHRL69WnXgqErjDrr696AMLfLsVfLYZUAEAAAASiTqtV6nOmxUqRHQ1b8HZWnLZx38GtXjBwAAAIA2inz7JNVBo0qNgK7+PShLG/St4xkMAQAAgBKJfPsi1UGjSo2Arv49KE3z7Hmqxw8AAAAAbVTzrAeVB40KNQK6+vegRG0xgyEAAABQEtG5E5+vQcioVNtlQB/eHg9vXBGbItnW4e07/TvLrHV+fxqYYz9P9TgCAAAAoA0ir+sw1YG16gF967I746EL35V8bdXVJ8QjWzfEuhrZsj7ZxuTvuPDQeOuyu1q+TkDv/P4U+da7GAwBAACAEog8q0d1YK16QF9x8eEtX9/w97mxrjbcNadlW+W25xHQO78/Dfq2o3ocAQAAANAGNd/6uerAWu2APhIPnndIy9fX3fL9WFdy21rC4XmHJH9DEwFdyT51AYMhAAAAUAI1z7pHdWCt+h309bm70oPnvz3eNtQf62rbUJhsY3N75R31PAJ65/enyLf+oXocAQAAADBOsT/h3yLP3qI6sFat7apInAy+m5f8OR7etCrW3fDGlcm27upCAgFdxT5lbY5nTn0cAyIAAABgsOWzJx6oOqxWsbHMmvr3oGxt0J/0KtXjCQAAAIBxGPS63q86WFSxEdDVvwela732exgMAQAAAIPVfPsU5cGigo2Arv49KFuLfPsk1eMJAAAAgHGIPPtM1cGiio2Arv49KGH7AYMhAAAAYLCaZ1+hQbCoXCOgq38PStguVT2eAAAAABgHuTyTBsGico2Arv49KFuLfPtOBkMAAADAYJFnrVAdLKrYCOjq34MStkHV4wkAAACA8a2BPqJBsKhcI6Crfw/K1uSxzFroAAAAgKGicyc+X3WoqGojoKt/D8rYHj1vyn+oHlcAAAAAjMHyWQe/RnWgqGojoKt/D8rYhubYr2YwBAAAAAxU87umqg4UVW0EdPXvQRlb5NtTVI8rAAAAAMYg8u0Pqw4UVW0EdPXvQRnbgG99kMEQAAAAMFBttn2s6kBR1UZAV/8elLL1WseoHlcAAAAAjEHNs05THigq2gjo6t+DkrZTGAwBAAAAA0WePUODQFHJRkBX/x6UsUW+5aoeVwAAAACMQc23v6Y6UFS1EdDVvwclbV9lMAQAAAAMFPnWtzQIFJVsBHT170EZW+TZ31A9rgAAAAAYg5pnf191oKhqI6Crfw/K2azvMRgCAAAABoo86yz1gaKajYCu/j0oY4s8+0zV4woAAACAMYh862zVgaKqjYCu/j0oY5PHNIMhAAAAYKCaZ/9QdaCoaiOgq38PStp+oHpcAQAAADAGkW9/R4NAUclGQFf/HpSxycKPDIYAAACAgWqeNVN1oKhqI6Crfw9K2r6melwBAAAAMAaRb31Zg0BRyUZAV/8elLFFvjWdwRAAAAAwUM2zu1UHiqo2Arr696CUzbNOUz2uAAAAABiDyLdPVB4oKtoI6OrfgzK2Qd86nsEQAAAAMFDNtz+uOlBUtRHQ1b8H5WzWEarHFQAAAABjMOB3vUN9oKhmI6Crfw/K2AZ9660MhgAAAICBarMmvUF1oKhqI6Crfw/K2Abm2AepHlcAAAAAjMGKnx78QtWBoqpt6MJD4xbD2+KRzWuNbHLb8+Tfprp/q9oG507en8EQAAAAMNAyf8KTVQeKyrbZk+KRbZvSULvlwZvVb9MY2+YlN6Z/x8i2jcnfpnqbqtqWnD/1iarHFQAAAABjVPPtDapDRVXb5iU3lS6gb17yZ+XbU91mrWMgBAAAAAwW+XagPlhUs6369eflPeck2G5f83C84Z/zWtqqKz/X8sz6jl9fd9sZ2dcvPHSnr8u2+ndu+j2rf+fs8nvSKemzJ8Ub/nH+zl//xfvS37HyyqN3+vr21Uub98/jVVceo7xfq9oi316oejwBAAAAMA41z/6d6mBR5bb+Ti/eHRnaB8+b2vjernhrtKD1G0aG46F5765/fc7keGTrxp1+x6a+q9LXkv+9o5Et65KflV9fddVxO31dvqZ8bfl1uS1ym3Zn/R29yvuzyi3y7WsZDAEAAACD1Xy7V3WwqHpb/7dzdxt6N9zzi/T7Vl11/E5fX3fbj9Kvb3nkjp2+vnnxH9Ovy//eUX5q/cZ/zd/p66uu+UL6dbktuw3nd81R3o80+1zV4wkAAACAcYg8ewbBRn24W3fLD9Lp7i1GhpOp8GkIf+i2li9vHbg3C/p3zt45gD98e/azD9++i4B/Zv3rsyfFw+trrT/70G3pz668/DNxPLx9F9F8JF73l7OU9x9NroFuOwyGAAAAgMFqs7s+SrjRI+Ctvem7SSDf0bYV98e1OVPqQfnST+70PSsu/nDytVXXnLjTz+YDvPzvHcnft8u78yPDSShPfnbO5HjbYLjrcJ67g09T2weRb39Y9XgCAAAAYByGerssgpU+4XLNn76+yzvV8u5483s29V+3y2e/B897SzyyfWvL17avfCD9OfnfecMbV6bPl+84vX1T/2/3eGdeBvi1N35LeX/R8n3Q9UYGQwAAAMBgg3MnPy3y7BGCjj5hb831X4nj4W2tgXh4a7xy/ieSr6/45Qdbgvj2VQ+mP7t1+T2tP7Y+Sr8m/ztv8/1/2PX09uGt8YqLD6+/1iUfjUe2b9k5nN9wuvJ+omV9EPn28PJ5Bz1F9XgCAAAAYJxqnv0AYUevwLf6uu6dgnFSUX32pOTrG//1q5avrbysPh19wz8vbM3SW9anv1P+d56cUr+r6e0b7704De47Bn4Z3tf8YYby/qG19kHk2SEDIQAAAFACNd/+NYFHv9C3+renxiPbNrfk43V/+XHyNbl2eT5wb7h7XiPYT2sN1PFIPdTPnrSLZ9cP32l6+8jWDfHQvMOSf5ev1fKbtm9tWVedplEfeNZlqscRAAAAAG0Q+dY3lQcM2i77YNXVJyShOQ3J2zalwXr9nX52Y3vdQBLCB89/205BXP5b8u/5G+Hrlu9yertcl13++4qLPtCyrvrIto3x6mu/yPuk6X4a+fbpDIYAAABACdR86wjVAYO2+z6Qy6yNbFmXhev1tXjbYN9ORd+2rViU/PuOz68n/75iUevd8C3rk+/d8d/l75T/ng/t8rXzS73R9OuDgdkTP6R6HAEAAADQBoOzDn6l6oBB23MfrL35/1qD9Npl8ebFfyykyd+dJ1+b90fzfbTXfgWDIQAAAFACcSz2izxrhfKQQdt9QL9hZkto3hRcXVh/yd/dEtBvmMl7o/e+OSSPYdXjCAAAAIA2iXzrNxoEDRoBnX1glMdB5FtXMxACAAAAJVLz7a8SkPUNh9xBV/8e6Noiz56hevwAAAAA0EaDvfYhqoMGjYDOPjCG42C29WYGQwAAAKBElp7R9aTIs7cQkHS6UNAVr7vl+/H6v50bb77/+tbK7LX7kn8vosnfnSdfW/673Ba5Ter7hZb1gbV5yflTn6h6/AAAAADQZpFv/Y3wo0/4W3frj2LdyG1S3S+0XB941m0MhAAAAEAJRb79HcKPHgFw5fxPxCPbNse6Gdm+NV552WeU9w+t3geRb5+uetwAAAAAUAD5LCvBR334G5z75njbikWxrravfCAePG+q8n6i2fHAbKuLwRAAAAAooXjm1MdFnr2K4KP47vlln0mfBx/etKoeilctKeyZ8701GcgluS3Nf1t5OXfRNThOhuL5RzxW9bgBAAAAoCA1375Ug+BB8+149XVOetd69XXTlPWJfO1sOxzeG032z8i3f8lACAAAAJRYrdc6RnXwoNlxbc6UePvqh5JQvHX5Pcr7ZOuyv9fv5K95JB6cO0X59tDsOOq1jlQ9XgAAAAAo0ODcyftHnj1CAFIbAtf/9dz0rvWqa05UHkhXXXVcuj1y21RvT9Vb5NvDA3Ps5zEYAgAAACVX861bVQeQKrehee+OR7asS8LwloduVb49zSa3RRrZuiEe+vl7lW9PlVvkW39WPU4AAAAA6ICab5+iOoBUuW0Kr23cqx7Rqhjbyks/Gccjw8mWyW1UvT1VbpFvn8hgCAAAAFRAdO7E50eetV11CKliW3n5UWkI3rzo98q3Z8cmt6l58UBOe1e9PVVs8thkejsAAABQIZFn3ag6iJS9rbjoA+kyamUwsnltvOLiw5X3a+mbZ12venwAAAAA0EGRb5+kPIiUuA3OfXO8bbAvLpttKxbFg+dNVd6/pW6z7WMZDAEAAIAKWT5r0nMjz96iPIyU/jnz8tm86HfK+7e8zdr8yDkTn616fAAAAADQYTXPukx9IClfW3fbmXHZrbvtDOX9XMYWedbFDIQAAABABUWzJx6qOpCUr3XFa34/PV5z/VfStv6O3jTYDm8YbPmazk1ua9P6O73Wr/9+evK3qu/vcrUBb+LbVY8LAAAAABSIZ4rH1HxriepQUva25aHb0qC79oaZyrdnX9vaG05Pt3vLw39Tvj2lb579gDwmGQwBAACAiqr59teUB5MSt9W/OTkNuVsH7jXsrnNXvHX53en2r75umgbbVN4W+daXVY8HAAAAABQa6u36z8i3tqkOJ6Vsc6bE21c9WE+3I8PxyiuPVr9No2wrLz8yXbd9+5qH48G5U5RvUxmbPAYH507en8EQAAAAqLjIsy5RHVDK2Nbf/pP07vOm4Brl2zPWJrc9fRb99p8o354ytsi3L1I9DgAAAADQwFBvl6U6oBjbZk+KBy94x05txcWHxyNb1tVvnm/bFK+45GO7/D4Tmtx2+Tckf8uW9cnftqvvk32h/P0wtA3OsSeoHgcAAAAAaCLy7JtVhxQTm6xujqzSu+r3w8QWefafVB//AAAAADQy0Gt9QHVQMa2tuur4OB7eTj5vGhmOV13zBeXvi3Gt136P6uMfAAAAgEbiWOwXedZ9ysOKIU1O6d6+bjnhfAfD66N46MJDlb8/prTIt/pYWg0AAADATmq91jGqA4sZrSvevOQmwvluyHXfzVpOTl2Leq0jGYoAAAAA7CSef8RjI88OVYcW3dvq65x422DfTi1dUq1h+6olu/w+k5v8m1r/xgd3+X2yj1S/T7q3yLf645lTH8dQBAAAAGCX5B091cHF1Lap76o0uG5bsSiuzXmT8m1qe5szOd42GGTLx/X9Wv02mdp6rU8wDAEAAADYy110nkUfU8G4eCQrlnblMeoDYEFt5RWfTf7Gxh9LYbix9KNnL+DZcwAAAAB7VfPsj6kOgUa1OVPi7SsfSO8qb7z3YvXbVHCTf2M6zX31Q/Hg3Dcr3yaTWuTbH2YoAgAAALBX8s5ezbfvVh1iTGmDF7wzXn3tF9M2eN4h5f+bzzuk9W++4J3Kt8mUFvnW3+WqCQxFAAAAAPbJoG+9VXWQodEH5dwHuqYyDAEAAAAYlZpnX6E+zNDog1LtA/MZhgAAAACM2sCsg19W86xNGoQaGn1g/j7gWZuW99ovYSgCAAAAMCY13/qe8mBDow9KsA9EvvUthiEAAAAAYzY4d/LTIt9+VHW4odEHJu8DkW89Ep079akMRQAAAADGpeZbR6gOODT6wOR9YGD2xA8xDAEAAABoi5pvX6k65NDoAyP3Ac+6jGEIAAAAQNvU/AkviDx7lfKwQ6MPDNoHIt9ePdTb9Z8MRQAAAADaasCbeILqwEOjD4zaB2bbxzIMAQAAAGi7eKZ4TOTbNykPPTT6wIB9IPLtG+JY7MdQBAAAAKAQK3568Asj31qpOvzQ6AOd9wH5OMijcye9mGEIAAAAQKEGPPvTqgMQjT7Qeh/otT7BMAQAAACgIyLfvkh5CKLRB3ruAxcwDAEAAADomJX+hGfUfGuJBmGIRh/osw949gNDZ1tPZygCAAAA0FGRb0+JfHur8lBEow802Aciz94yMNvqYhgCAAAAoETNs05THYxo9IEO+0Dk2+pRRK8AACAASURBVCcxDAEAAABQqubbF6oORzT6QGk496xfMAwBAAAAUG75vIOeUvOtewnJhORK7gOe/c9l/oQnqz4OAQAAACARzen6b7n2s/KwRKMPOnnn3LdWRv7klzMMAAAAANBK5HUdFvnWNkIyIbkK+4AskDjQa79T9XEHAAAAALtU67WOUR2caPRBJ/aBAW/iCQwDAAAAALRW863vEZIJyWXeByLP+rbq4wwAAAAA9iqOxX6yqrXqEEWjDwoJ5771K7mPMxQAAAAAMMKS86c+MfLsmwnJhOQy7QORb/25/+zDnqD6+AIAAACAURk623p65Nt3qg5VNPqgTeH8b4NzJz+NYQAAAACAkVad/7pnRr71D0IyIdnsfcC695FzJj5b9fEEAAAAAOOyfNak50a+1ac+ZNHogzHdOe+Pzp34fIYBAAAAAKWw4qcHv7DmW0sIiFwkMGsfsJbIfVf18QMAAAAAbbXSn/AieTdSfeii0Qf7cOfcs0O5zzIMAAAAACilgTn282qedQ8BkYsEOu8DkW8vHJw7eX/VxwsAAAAAFGr1rCn/XvOtv6oOYTT6YDd3zu9a5k94DsMAAAAAgEpY6U94Rs23biUkE5J12gci375JLg+o+vgAAAAAgI7qP/uwJ0SedbHqUEajD5J9wLMuW3pG15MYBgAAAABUUhyL/SLfPp2QTEhWe+fcOjueKR6j+ngAAAAAAOUiz/pC5FnbCeoE9Q4H820D3sQTVO//AAAAAKCV2uyJ74s8ay0hnZDekXAu97Ve+z2q93sAAAAA0FJt9sT/qXn2AkI6Ib3YcG6Hy2dPPFD1/g4AAAAAWpNVtGu+dTkhnZBe0D5w6eDcyU9TvZ8DAAAAgDHF42q+fap8RpigTlBv05T27ZFnz5D7lur9GwAAAACMM+BNfHvk248S0gnp4ywG98igb71V9f4MAAAAAEZb5k94Ts23rySkE9LHtg9Ylz9yzsRnq96PAQAAAKA0ol7ryJpvrSOoE9T3MZhvlI9JqN5vAQAAAKCUBmcd/MrIt+8kpBPS91Kl/Q65IoDq/RUAAAAASi2eOfVx8s5ozbPXE9QJ6jveNY98+/TYn/BvqvdTAAAAAKiMgVkHv6zmWdcT0gnp9UJw9k1yhoXq/RIAAAAAKrwcm/W5yLdWEtSrGdQjz1oRzbY/y/JpAAAAAKCB1XO6nhX51tlyrWvVgZHWoWDu28M1z563fNak56re/wAAAAAAO4h6rddFvn0DIbncFwoiz/7TgN/1Wg4AAAAAANBc5NmH13x7seogSWt3H1j3D/jWB1XvXwAAAACAUYjnH/D4yLdPjHzrEYKy2RcLIs9+eMCbeIJ8TzkIAAAAAMBQS86f+sRkWTbfXq46aNJGGcx9+9Gab5/Sf/ZhT1C9HwEAAAAA2mSZP+HJkWf1ENTNCOaDvu3I94wDAAAAAABKSt6NrS/NZi9UHURpO/SBZy+IPPto7pgDAAAAQNXWUO+13yMrghOUFd8xr78H72YtcwAAAACouIE59kE1zz4n8uxVhPWOhfJVss9l36t+/wEAAAAAek5/P6LmWddHnj1CWC8kmN816NnHLZ930FNUv98AAAAAAAMM+pNeFfnWNyPfDgjq4y76Fsi+HJx18CtVv68AAAAAAIMtnz3xwMi3T488OySs72Mw96wHI986O/LtKarfPwAAAABACdX8rjfWPPv/1TzrtsizthPYm1PXZV9YtyZ943e9UfX7BAAAAACokNVzup5V8+yP1Tzr/MizllUtrNf/ZutntdldH109a8q/q34/AAAAAABIDM6dvL8sMpdM7fbsuyLfHlYdotvcFtc8e15S5G32xAN52wEAAAAARlh1/uueOdBrvzPyLbfm2xdGvvWPmm9t1iBo76VZm+vbal8YeVZP5Fvvkn+L6v4EAAAAAKBt4plTHzfUax3QuNM+vebbvTXfuq5eLb6D4d2zNjVe8zq5DfVtsY6Q2ya3kbccAAAAAFBZcSz2k9PkB/yu1w722odEvv3hAW/iCTXf/mrk2WdGvu3Xm/Wrmm/Pr/n2r+Wa7Unz7Svlv8mvpd/n2WfKn5W/Q/4u+TuXzzr4NTV/wgvka6n+ewEAAAAAAAAAAAAAAAAAAAAAAAAAAAAAAAAAAAAAAAAAAAAAAAAAAAAAAAAAAAAAAAAAAAAAAAAAAAAAAAAAAAAAAAAAAAAAAAAAAAAAAAAAAAAAAAAAAAAAAAAAAAAAAAAAAAAAAAAAAAAAAAAAAAAAAAAAAAAAAAAAAAAAAAAAAAAAAAAAAAAAAAAAAAAAAAAAAAAAAAAAAAAAAAAAAAAAAAAAAAAAAAAAAAAAAAAAAAAAAAAAAAAAAAAAAAAAAAAAAAAAAAAAAAAAAAAAAAAAAAAAAAAAAAAAAAAAAAAAAAAAAAAAAAAAAAAAAAAAAAAAAAAAAAAAAAAAAAAAAAAAAAAAAAAAAAAAAAAAAAAAAAAAAAAAAAAAAAAAAAAAAAAAAAAAAIDSifcTbnC56q0ASkseXzPjx6jeDAAwGmMpAKASuvsOFW4YC6dvgupNAUrHCe3k+HLDd6jeFAAwlhNMTMbS7v53qt4UAACK5YaX1gN64NHVQNuPrzmNgH5J5ft25p8fV/k+ADDGsTTw6+cq4Xy6EABQXqcsfp5ww62NALFO9PQ9TfUmAaVx0oKnCidc2zip3CKc+58rqswJzxMzFj9D9WYAMHAsdYM1jKXQh9N/tHDD77W9dYdfEU54iugOPyF6+t4qeha+onRXt2XYKKLvdGxfuvffO96/7qJJ2f7U/4aOvz7Gzw2mN8J5vXUHnzeyW7vv+x/hhMclze1/l9CdE74l3V4Vx65JevrfZ2xfueHxLceXG7qiypzgL8INr+J5/FHoDt6efs6euuSZxb05JeMG3237eZYTfFu4wWnC7f9wcs5TtnNmnbnhsS1jqRP2iCqr90d9vzzurn9TvTnCCb7e2J4KfcY5wW92+IAvrskr/G7YJ5zgIuEEJ4lpfa9NCkiZyl3w/I71neo2o+8lne/f4AvZNgSf7vjrY5zi/YQT9reOAcHfjOxWZ+GLhRMMN/6OQS0+sPakJ/hYdlGk71TVm6Otk/ufLpxgQ2OMWSqOiB8rTOKGd+0wVodGf6a2J6DL9/K7qjfFGG4wM/ucX/wi1ZtjDDfYXvw5sxybgpuEE35fdAcfFF+679mq/+zScsM7dsgr/dUeS8Mb0r6YtvRJqjdHOOFQ9r5URScD+q4HoIeEG54lpvV3CdMQ0AvuXwK60ZzgbbljfV022IevEyZywz/mLhh9QOhs5pInCidc2djWf6jeHG0lMyLSE7JvCpP0LHrjLo8vp+8QUVVZQB8Rbv8nVW+OEQjo+gb0nc6Xw23CCX4vnOAY4dz9lDbvCdXlhq/f5VgqZ/9WFQFds4DuBC9NpviNp8ln4E4LX5ZMCXWDNyVX/eRUdzf8aXKC6wSr9zAA3SWc4DPG3MVoCejBtePuO52biiV8COhmc4OLG+PKcMsdXSc8V5hIzuLIxsorhO6ccJbxF0WK5gZ/TfdRFbOExsMNenOh/CP1UJr8LRcJUfWAnnwmb0yqMmPPCOjjC+hO8Pe2nGN1B89Jzp2nh69OVmSQj4O5wQ+EE9zYEhqzz9GVwg1+JHr69mcXH6d6Ptl5LHWDX1a2bwnomgX0Tjx/J4OeGxwk3KBbOMHNuWmj+bvqC0RP+B5hUkA34YTdNAR0c8mTDTfY3DiRuC75Nze8t/Ght0rMXPZkYRq5zfkiMvJv1Nn00MqNq2eq3hztTF90YC7M/UGYRN49a+6LbnB7/d+CmxufRZsqOxW2JaAnffMIAWYvCOjjDejFP7Yln0VPagUE5wg3iHY4X94gnPD/qB8w1r5d9uTsxmHw1+Tf5GMF9f+/ubpjKVPcqxfQdySv/rnhN4QbPrqLK4Q/17oiKwG94P5lirux5AW47Fj+UPJv9Zk0zWP7KGH2klbyb/ii0J0bLGycaETaPzffaU54RjaVMfiYMElP3+ey/bD/6OTf5OyzLJieJqpop4DeCFDykQ/sGgFd/4Ced3L/E5LHN3auP/GocMLDO7otZeCGn81Naf/cLmbLTRNVREDXgOqA3iQ/QJO76o1CAFl7QHQHrxI6IqAX3L8EdGM5wX2NELs8DYbTFjwrubtX//dbhYnkYztZQL9T6E5WojXluflOmrng8cIJao33cSg56TWJvGtef0/XpM+iykI+cnZK/d8XiioH9Pr030W584hfqN40bRHQzQroLUVY+z6yUyFWOS1bLhmGfeOGt+1yLG3WcJHnMlVEQNeALgG9SZ7Eyw/T1jvpQ8IJbaEbAnrB/UtAN1JP+ObcyUJrNeX8sS2nGBsn3i+plJ3dvTxA6Oy0+16QFBaqb++VqjdHG/JOU/YZc5YwiVz9JPtsnNXytWQKbHrsvUlUt0jcI8mzvPmaN04wQ/XmaYmAbmhAb6hfmPtBS9E6+ZiorAOF0Tzm1NvyNSf4Sfq17mBK5bqSgK4B3QJ6k1w/vXm3rd4GkwIaOiGgF9y/BHQjueG8XCXll7d8TVaYzsLFj4WJusOv5Mal7wndyQKWzefmv9z/H6o3R6s+kS1Z7tMgLSeO/W9o+ZosBpidcF4gqhzQJVnLJgtSw8Lpf7/qTdQOAd3sgN4kK47L8+T8ObOs94Tdkxdn0+nti97Y+jVZKyu94HFh5bqRgK4BXQO65C6atMMV8AVarMfXREAvuH8J6MaRY4isnlw/Xq/fyx3oFUY+Gzq9/7+yuxXBI9qvOpFUpW0GOtZEF9PC/9Tu5HpftUy93M0jFs31fGXxqFOXPFNUc4r7svTf3NDNXbRYY+bMnQIR0Mfab/qNIXIlJjfsI6Tv62O14YpGX921m/78W2Pc2KhdPioaAV0DOgd0qad/aloNuj4YflvogoBecP8S0I3TUggu+OiuvyeYkZ1AGLpWsVyLNvsb3iV0f946vbPCmug7zIA4VpjEDY/MzUA5bq9ru8sxtOoBfefijkuYSZLvm2Bm2jczFr+o02+ZsXQM6NIpi5+XFQdNxoClyfLHaJUvBOeGx++ye+Tng0lFYduJgK4B3QO6JA+M7CDZok3ROAJ6wf1LQDdOcyk1WYBLBsPdnkCEWxvfd6MwkRN+PHchQv91p/PPJld6TXQ5gyMtHrZenNz/dGESN7ylse3rRE/f03b5PfLf03WTg7tFlewuoMsigPkK7/Lkk1UN6gjo5Qro6Syh3MpI8nNWLtWGTLqUWrhut58DstieE65tjBn3VKr7COgaMCGg19dObx5M8qTjZ0IHBPSC+5eAbhT5SEp2jP5gz98bXJ4ViwtfLUxTX3WiWTF7o/ZTiXv6Ds7dLajumujJjCzNPkf2lbwwndR1SE64Z+/xe91wbu74skTVA3p2Z3Fp7jj4qZJt1A0BvXwBXZrW39Uy+9QNvqR6k7TR0/fKdCyVs2v2pHX2jX7FqotCQNeACQFdkgUc8nfR5frpqhHQC+5fArpRZOBpFoeTH4B7/t7Dclf3fyhMJKu+Zn/DMcKU2Q1VXhNdFvsxtcq5vLCyr6FbnkhmQXSuqIrsLvmjuz2PkM/mZ/vAiaLqCOjlDOg7PU4WbBQ9C1+hepO04AY/2ufQLcfa7HvPE1VBQNeAKQFdcsLrcoNNt+rNIaAX3b8EdGPMWPyMZMrwvk5bT2bFhA/udTq8zvIhyAluFrqTY2aV10SX0xizcNYnTJJM0Q6HRjVtPb0gs4cpnFUL6FJPcETu7tnWpPp1lRHQyxvQ5bR2WQAtG/evFlVXf9ylNqpp6/L7TH0saqwI6BowKaD39L8vdyXrVtWbQ0Avun8J6MaQd6Kax2Z336f26Wec4Ot7LSinOye4L501oNsykHt69r+Ka6K3FE8LXWESuezoaAu/ueHJey2CVMWALrnhN7RewrWTCOjlDeiSXMM7GztGhHPfa0SV9QQfG3Xht5Y6WH0niCogoGvApIAur3w1n/uUa5p+6b5nK90eprgX3L8EdGPI6uCjXTqte9ELcyc5u1iSzQBuMD33YX+60J0bXpXeOazamuhu8Nf0bzetqnHzZGk0S6fJz3Mn2LTHZYTK+wz68j1/Y7yfcILLciH9X7stuld2BPRyB/SdZ59eIKrMDf846toxrcvH/l1UAQFdAyYFdMkNLs7ddXu32m1Z8PzctlyhdFvKiIBuhtYCZGeN6mfd4Nr0yr7b/3JhGlkLI1sTfXFy4q8zN/xQbqbDqaIq5NrX2Qnq5cIk8rnRdEr2KE+unfDn6d8tn78uu30O6PJ7736KcIJ/5sauq5JHb6qGgF7+gC4f48j28/X7fBG9bOQ5RlZo88LR/Ww4L3cXfYIoOwK6BowL6Llpe3KKrNJtIaAX27/cQTeCrCidFq9adOCofrY7+GAuOH1XmMgNf5uFoPDNQmfyWf/m83dVWhPdCc/Q5sLuaMkVEbKLKpPHUbW+V5TdaAK6JNf9doMB48eg8SCglz+gJzNGwn5jx8B2ccPvjblIqBO+Jdd/nig7AroGTAvoTjAxN6V0vtJtIaAX3L8EdO3l1wl1w9vGWMTm0fSk2sTq4knRKYMqZstZDtn2vl6UnbwoISvX10/Klooj4scKE7fdCRaMbd33MGz87WuSu8aVeAY9GNjnn5En6ulyVMlMnk+KKiGgVyCg7/A+V3GJQXluIc8x6sf5wjFe5AjSsVSe+5QZAV0DpgV0+ZxYdgXsr0q3hYBecP8S0LXnhsfmLpgdNbbfEXw3d+LwIWGaJESFg+kH98xlTxY66+5/Q6XWRHf7P5z7e78hTL34M9ZHEvJ1Enr6PifKbCwBPfm58Kjc3bFNlVrvmIBekYC+aJI2587KPweC08b0O5ywx6ilVceDgK4B0wK6JAtR7Uul1sK3gynuxfYvAV178uSk/oG3aszBtOW5sPA6YSInPDf78DfgDlzz2Vs53d3EWQtjqXMgC4s6wUuFSdzgD2lonLbgWWP6HbIgnhNuaRynt4syG2tA33GdeSdcltSXqAICejUCupytls52C9ZoXy+l3dzwd+lYOtYC061jabkvchDQNWBkQA/ubnyIblO7HQT0YvuXgK61aeHrcie057alsmoSoha+WJhcKM8Jfi90J+/GVmFN9Gnhfxq7UoC8mCCPh/q2XzSu3+WGl+be74NE+QN6NOqflY8+5Ktdy+A1bemTRNkR0KsR0FtXsoiTVVSqYkbfS9Kx1A1+Oa7fJR+tbfahPAcqKwK6BkwM6HIN9OY2y6uCqhDQC+5fArrW5HNs6Yd9/xvG9buc8OPGTkNucsJ70osM0/v/S+hM3kFo3gko8woU3eFXsundwceESZzgO9m2908d1+/q7js0Fzx/IspqPHfQpZP7n548699S56bkdxoJ6FUK6Bek+/b00BJV4Qbfyo7pvkPG97v635W72HmOKCsCugZMDOjNaX+yyQ9UZdvBHfRi+5eAri15Z8kJV7btBCVfXdwJHjaqkFeTG7q5D+7pQndueGW510TPVS52wiGjlhaqT0dd1nh/wnGHRLl8mBs+OO7HUcp8B73ptPBlWU2JZDyaIcqMgF6dgJ6/6NcdvF1UQVKINnik8V7dP/4LbvJzJbi/8ftWl3csDW/IZgpoMJPICYcan+X9ojJMDOhOcE22zWN8lqQdCOgF9y8BXVtu+NncB/3n2/Q7c8+A9r9fmOaUxc9LHrsZc5XYDuvu+99xF83RWX5ZHFm53iQtyw+Gblt+pxt8Lfc7jxRl1I6ALnX3vzM9lpPHbgwcj/YVAb1KAX2G0QVZx/s5J4u8tYMT/r9xF8fVHQFdA6bfQVd5ZYeAXnD/EtC1JZdUq384rW3bciNO/wG5wHi1MJHc7uzO20ShM1kcrrkGtCwaVzb56ZzT+l4rTPxclo8htGt2g3zsohkq3PAWUep10IPa+H9XeEruJHytmL7oQFFGBPTqBHQ3PNmoYqbtvKEnx1JZ5K3ttU3CW0UZEdA1YGRAD29pnMRvV/p8GAG94P4loGtJnqhmQdovpr5EsF3757h3xQkPN+r5NCc8o5RrostHn9xwvXEn0NKMxS/KBelLCpt9Nj18tSibdgZ0yQ3n5I7nxUpn7BWFgF6lgJ49hiU/q8ouf1EyqSdR0Fgqby6UDQFdAyYGdCcMxlUIpl0I6AX3LwFdS3K6cFq8qu/gwqbOyym5Jq+Jnjz3vODxQmfyzrKp08D3xA2PzZ2IHidM4oSn596Td7T1d8uK/dnvPlOUTbsDer02xs25femG0i1LSECvUEAPZmaPpvUdKsrOCb6e/b397yxw6vyPRdkQ0DVgYkBv3hlRvaYrAb3g/iWga0cW2nLDFY0PpXva/vvlIyuyiFX9+F5qZrG44GyjnvNzgr8bc0Fh9MsJrVdaSHQsxdyc4KHGtj+Q/P+iis+ZVjhPRUBPVzxoFIWqt5+KMiGgVyegO4GXXVxf9EZRZi2FMRlLR42ArgHTAvpp970g94zn+NaGHS8CesH9S0DXTnffp3J3uE8s5DWccFbuNQ4TppFLzmVX1n8tdOeEX8wV/PugKNMjGE5wvjCJE743t+98ufhKzuEnRCmLxIWDbf29cu14N1xX+NinAgG9OgHdDa7NjfXPEWXmBO/OjXNfKeg1vl3aZ/oJ6BowLaDnDzondJRuCwG94P4loGvHCW5M70zOWPyMQl5DXtnPApaZa3S7wd3GLGEm7xC6wWZjLiiM6rn64E3CJG54VbrfyIvRRUiWEQtG0inbZVJUQJfkxStZ0b35/vT0vVWUAQG9QgE9fCAtelh2zWVE5WoMRY6l2ZjwZ1EmBHQNmBbQ8x8mqk++COgF9y8BXSs9fa9MT+zd4GeFvpYb3pWeCMvjzDRy2bLsQuIpQndueGna3+2qdKuuMn3U+Fv6hEl6+vbPLe1V7IUpN/xj4zgeET0LXyFKN8U9HCrk97vhV3PH9VBygm46Ano1Aro8v08vzAU3izKTgTxd8jS8stDXcoLr07G0+77/EWVBQNeAaQG9WeXZCTYof36OgF5w/xLQteIGP8ouji2aVOhrOX0nFD7Vt0jyrnlycSEZq/4uTJpabfKa6C1V9Nu0fnintKytG7y70NfqCT6We79/IMqi6IAuV41xg4tz79MC0dP3NGEyAno1AnpP+J7cZ+oZoszklPb0WfvwPYW+lhN8NDce/FCUBQFdAyYFdHnSm95h0GAqJgG94P4loGujXs241hgr7u3wMln3K11OcbxT7JK/4b7XCJ3J4mFu+GgjsN0tTJU9Y2nWTICkOFy4pLHtD7a9ONyOTu5/QrragJxxUJbigIUH9GYhy3SGj+y/qwt/v4pEQK9GQJerNpSp1sgei8MFixvvzUOFF5rNnxvJ/y3NWBrekO4vcsxTzQmHGmN7v6gMkwK6E0zLTnj7j1a9OQT0ovuXgK6N/B23Tk3ZltPoi1puqhPyS1qZcGVd3kk1eU30/BRxN7hcmEQueZTtK1/v+LP6PcERogw6EdDT9ZWbF7SS1/s/YSoCelUCetgYGzcbP+tjT+RyatnFs5kdn10o76iXAQFdA6YE9PryM/elBS6KKlA1GtxBL7h/CejayJ5Z3dixcaK7b3IuMF4izH4e+lHtl4xz+g8wek10+ShEp6Y1tpsTXNY4vrYn4a8Tpoevzp3I/kGUq0jciuJfK7SFE2xKnz81tYozAb38Ad0JJubG9t+JMnPC+elY2r3ohR15ze7gVbmAfr0oAwK6BkwJ6E7fR3InE2cLHRDQC+5fAroW3P6XZ8XhwnkdfW35jGf9otwW7auh721aYdHPFbeDPNk0cqpevF8y9a2+7Q9rfzEk75TFz8vVK7hGUU2X4VIUPOtkQJfc4NO543tTEoRMQ0CvQEDPLV3qhB8XZSUfa5LnCvWccG1HX9sNb0kv1pViLGWKu3omBPT6Mx7Nu+dbksCgAwJ6wf1LQNeCnL6Z3Zl8s7Jq6KYV/crWT25eWLxY6E6u72zic4pO+JbcCeg3hUmcYEbW533/29nXDo/KBczvCNN1OqAnrxl+P7fvLUsetTAJAb3cAT25ABhsTC+8yvoTZeWEPbnP2w909LXd8Mjca39XmI6ArgETArobfEnL6pME9IL7l4CuxTRtJ1zeOP76Ol6sTa7R3ZxG6oSBkcXiZBX35uMBOjyasyfyMyDrb/WFOPeVG1yQ3gl2gpcKYyRVwRc19o9HkmJ9nTRz2ZOFE6xOH8Po9OsX9wz6yg4/fndN7kLH37QoqrSvCOjlDuj5WVxu8DVRWnIsbTxnLy+UqRhL3WBV4/WXJ+dOJiOga0D3gN7d/4akqEVzp9fpBJeAXnD/EtD1WrYq6FayDW7wy+wOfv9UYRo3PDk3C+BYofsUweZ0a1MqobdW/Dfr+T8neFvu+PqWkm1ww58aOWtCl4De3Aebj+PU2y+MuZhIQC9vQJczuNKVj4JaqYvDOX2H5C6SfVvNNoTn5saADwmTEdA1oHNA7w6ek3uucFi7Ss4E9IL7l4CunBNel1Z+lcejCj19b2098TVMMgug8VycfOZXZ7JCf9bXZqyJLi96mPp8ZXNNbfn5NqPvJeougqcntr8RJlMV0CX56F1zKaD6sfMlYQICejkDejL7rVFTpL4/nijKzAkuUj6WytVPss/P3wqTEdA1oGtAl3fK06mhHVx6ZjQI6AX3LwFdKfkhV78wpvj56dw0YDn9etqCZwnTZFW6R8S0Rf8tdOWGd+wQ0PVfE90Nbm+EsiGjnq+UF7yy2WHXKd2WdF3vYLuYsfhFwlQqA3p2MbFZ8G9YOP3vF7ojoJczoLcUKA1vMGZGx3gfhVNdpd4J78yO/4UvFqYioGtAx4Defd//tE4XC3wtBxcCesH9S0BXSk65zS6QvU2bOhQm3NXdUU//+7QvYtbT98rc+31/Nu25/w3CiKXhNFndY185oZPbJw5Xui1ueHzuwsw3hPFF4oJVWhRalEvCTl90oNAZAb18Ah46KwAAIABJREFUAb2n73O5lVdWmFWXYwycYFo2fvV/WO22hMdp/1m/LwjoGtApoCfFVvpOyBWtkYPf+cm/64iAXnD/EtCVkQVWZNGq+snuIuUXyOrHWvPO1AJhYn82i+054RLl/bkr8rm9ZjG76aFlxJrobvCjdDun9b1WmFXQqE+bgkKtz/GbtUydbgF9x2Wt3GBxcodPVwT0cgV0J/hMOvNNPn/e3f9OUXZusLBxrA0oH0vlc/5uuM78sZRl1tTTIaDLHThZ5zz4R+6kcGv9TpmGJ7JNBPSC+5eAroxc7im7SDZD6MAJrsid9L5JmMYJfpj1ad8hQr91xJc0tu+S1unCmq6JLk/E3CDS8iR5dMvC/Z/QgROelyvG+D5hIl0Cen31ixtaphirDg67Q0AvSUCXY3jw9dxjaSPJDa+y6w6m5HLD94QO3HBuduwb8JjLrhDQKxzQ5R0leWDJk1YneKj1ucfwLuGEttAdAb3g/iWgK5MtG7Q1WUdVB07w7lxAv0CYRk51zbb/Z0Incn37LEy8d6epejpWpJXblG3zccIkTvhz7WoSuIsm5d7vq4SJsotKqzV5LjZ7VETeVdcRAd38gN7Tt/8OS/0Na79iSLs4wYXajaXT+rtyn/VXCxMR0DUL6LLAidM3oa2tfnXrHcLt/6Rwg+mNJV1uS6ZRtoZyuSMvrFfh1fiu+W4Durz7FPjGNyf8otAFAV2N6f3/lTv5uEzoIplp07iY5wQbxKlLnilM0yzCJp9Nde5+itBFcvwnY3CUrh8rC3U2x2kd10TPTkjXJ1O0TSGLHGaff38UOnHDf6VTY6eF/ylMo1NATy/KBWu0rqRNQDc3oNdnEZ3Wso/Jz5ae4AhRBfIcIBtL/yR04ob3mj2WMsVdr4CupMnnXINzkmceTZMP6KVpwbVCFwR0NeQ0ueb+0N13qNCJE56e21e/IEzjBCfl7nJ8RuhAVj6XVa939bx5c+ka3dZET+4Ypev7ni9Mkl/Krif4mNBJd9+puRP9/ydMo1tAl+TjAum043BrciNEJwR08wL6tKVPSm6muOGDO5zD3ZsU+6yKeh/oucRmy5KlwdeEaQjoGlAd0OX6wHJHkBVtZfV2kxDQC+5fprirvUsdLtGuQKNcAqp5YmTCEmA7ko8RNZeDcYLrhQ5k1dt0PO6b0PI1WWAou6AwTegiX9VfztIySXqXOqhptyxcfrkiHY//fX8GfY3QSX32YPOcZ0icFr5M6IKAbkZAl5/NyWzUcE5Smb31XHpdUitGx1ohRXLCexp//6B2Y6mcKZUt/fageWMpd9D1Cujy7pQ8yNvbvpOsxyjvcjjBjVll6N02Of3909odbHsN6MG1ycm36e2kBU8VuiCgq33OW9c7aG7423QbjZx5E17SOLEbFt2LXqh6c5Lp6/UxbOFOX5MnFW6wVK8LIklBu/7GPtAnTNLynHfwI6GjbNaEfjNoTA3okhvOy13sWpBUe9YBAV2/gC73Dfl4hCzWKpfqcoLfJ4UPd57xuDGpbWDiFOrxknWqsnOVM4SO3PAXuffqMGESAnpFi8TJECjXVU6m0gZ/SO6i7zzwDCQBTdfKpxJF4gruX+6gK6uULqcPy2nEOsoXB5N3E8y+CPJl9XdMm+Nv8KU9L7+myZro+QrobugKk8jigPW+HhHdwauEjuQU7CxI6lODwvSAPnPJE4Ub3J47x7lai7tqBPSx9ltzJteaZDbU+Jrcb+8SbhjuOojv1B5Ibqh9uf8/RFXlK6XrOpbK1Vqy4/1yYRICugZ0WGYtKfQQHpl8YDWfK8x26kXaLlNAQC+4fwnoHXXafS/InuvVsChY6xJGy9OpfbrciRrVVMV0JpHaO8CyaNXe7ub3LHxFEijr4/HZQjVZwV+3FQb2hSy6J4sb1vvxJqGtlhkKW5PPOVPoHNDTMTZ4WKsl9gjo4wzonWjB5mzsSGa2TBZVJouCyuKg9c+um4W2TB5LmeKung4BvWV7Fr64PiU+XNsyQMkp8vIERycE9IL7l4DeUd3hV3ZaaktXcr3TbHw4XphGnphnfa1uScnkkaJ9qIDrhrc0vm9Q6XOO+RMz4+5I5AoEyse4dCYfT8u2ddczK7QuEheuFbqSdR7SytNyJkXfp5RuDwF9nFPcw21Jkc3xNDdY3Ahy8i76n5Olw+TU9u7g88nngxxz3fCzuWPyH8mF3qqS67vrVmx13+pPqJ0xNxoEdA3oFtBb76qftcNVygeFGxwkdEFAL7h/CegdU3/WeHHjw3+p9h/+cr3T9K5ueJcwjZySp3p95NY+/Owev9cJjtFiTXS5tm9zO3rC9wiTOME/G9u+IpnurLP6Z9vWdBabKUufmhDQJVm9v3nsyUJSTjBR2bYQ0A2p4p7cjb3V6FVM2sUJ/t44zlcmFe11Jmd5NcdSJ7jfnLGUO+jq6RrQm3oWvVE44Z25k9m12hRbIKAX3L8E9I5pqdYdni5M+wCR44Rp0um44QolRTGbJ+Zy6uTeHhOQX0/vXIdXCVWaz/DKacK6X0TKkwEsO7FW/5jAvpAzFLJnPN8uTGBKQJfc4Fu5MXeZspofBHRzlllzw9fn7tyv1Grpy47OQEnvnv9EmEDW8sgucL9DmICArgHdA7qUTO8J/NyH2TbRExyherMI6EX3LwG9Y5xwfiM8bE+WMjNBd/iJXOjpFaZxwuOyMa3vI5198Xi/5M5o/STnolFWoVazJrrTf0Du/f6WMIkTzM7e6/teI8wrZvgrYdZFr3XChFlLzaKc9XaHkruBBHSz1kF3g3Ny4+DPRNU4gZf+/dP6XitMIG8qZsf5JcIEBHQNmBDQ88/wZUWstiR3/VTiDnrB/UtA7wgZtpqVvOV4YAo5TViuKVw/UVkjnLufIkwia2pkz6JerXC5r32bkSRX3lC5Jrpclqz+2sPCCV4qTCFnHzRrqsgAaQo5Q8EJHkqLVHUHzxG6MymgpyvapGs5Ny6WdXgKLAHdrICePP4ZRLkaBtUpGCePF/lZX//bbxdGPUIoH9FtZBcTqu8T0DVgUkCXZHEdeYLW/BBW+Uw6Ab3g/iWgd4QT9uTulB2VjAOmtPydyZ6+zwnTZGtOd/autBv+tPG6j+7zVPHkjl+4pLGf3CM6Xbm/eVIqlyUySf65eSc8xbDj64e5bXeE7kwL6NKMvpcIJ6gpK8pHQDcroEvyc7qKBePytVC6+05VPj6OprnBD4xaHpSArgHTAvqO1XBl5UtVyywR0AvuXwJ6Z6Y6y7VXO7VcTJHNoCvqTW7/u3Lbf1rnwm442HjNH43qZ93wG0rWRHfCw3Nj/seFSfI1VExuThhoX+DIxIAuucGbklkK9cA3LLr7/rfjtShkM+XxpqoH9PojSjdVrmCc7GvV42B7Wqj/WEqROPVMDOg7L1N0npJtIKAX3L8E9MI5fYdo8GHVvmbKM2mt1fOXNk70/tmR13SDD+T67PWj+tnTwpcpWRPdCa5pjPVDSgrqjauokwbHRbuaE75FmBHQ1wuT7w7KRyKmLzqwI69LQDcwoFewYJycLat6/Gtn6+mfKnRGQNeAqQF95p8fJ9zgr+m2dwdTOr4NBPSC+5eA3rEp1sljI8HXkvWPTWuyUI5pVV3znODb2Qd3Bx7ZccNLG69375h+3glu7Oia6LK6dbP2iCkV0Hd+lEDum99WfqyMqYWzcsHx50JnJgd0KVlaNh0LFosv3ffs4l+TO+hGBvSqFYzL/61O8B0zz1Vynwdu+AuhMwK6BkwN6JKcYpmtk35b54urJGvFNgeMKzr62lVAQC+WPPmTa/DWP9z/IEwli8M1C8eYsC7qjnoWviJbEzk8o/ACQ833XNYeGAu5Znon10SXz+R28gJGu8xc9mThBKsb236HMJV8JMIJlzc+5zaJaQueJXRlekCXNx6c4Pe5CyI3JP1fJAK6uQG9KgXj5Ge6G6xqHBN3ClMlNxbDR80YS5nirp7JAV2SV/TTD7P+93f0tQnoBfcvd9AL7t/TsulWGixb2K6lV9zwSGEaN7ylcfKxPPkQL7xgWbB9zOsuJ5V0ZYHOTqyJnquRoPJEePwXMo4VJmt9pOwUof066MEGYaqkoFSuLoicwVAkArq5Ab0qBePkZ3p2PBwnTOYG381m/vadKnRFQNeA6QFdPnOaHbi/7uhrE9AL7l8CesH9u7DxoR51ZKpykZy+CbkwdIsw+/nT9xb2OmlhoXHOmHCC8ztSfb4nfLOxJ2b5gmWqCpm2y7RF/53VHgj/JXRVhoAu9fS9Mr1jWD9eTyzstQjoZgd0eRHTCW8tdcG47O8zfyx1+1+ezZgLFghdEdA1YHpAl+T0webJYifXaiWgF9y/BPTCyJoNWfD5vigDefcgm01zgDDJyf1PT0JFffsvKeQ1nIUvzhV4+/S4fpcscNOJNdHd4IJ0yrLsI1NMD1+d65/ZogzyJ2zuoklCR2UJ6FJ3/zuz2gvyQljwtkJeh4BueEBv3KjK6nSsEafd9wJRFt3Bq3IXB+eIMnDDP+Xuouv5WAIBXQNlCOhO+P9yJ0PHdOx1CegF9y8BvTBOcGH63Jp8BroM5F2m7C76mcI0bjgvfTatiLHYDb+a3oWQz+2P+65NcH+ha6LLOyUymNf75HxhElnMLvtMmijKoDv8RO5vOl/vWQvBRlEG8uJXdiF1KFlFod0I6OYH9DIXjHPCH6d/1/TQEmUglwrN3qsLhI4I6BooQ0DvDt6u5G4FAb3g/iWgF2LG4mekd2vlIFzOv2tIzFzyRGHqOOaGx7f997thX2OMvLAtv88Jvl7omujp8/LJScybhCnkfueGKwq9eKGCXN5OVu5vBmBZoEo3ZQvokjynyc5v7kvGuXYioJcjoMsZRs0CZPLCu+5LIo52zCnTWCofKXSCWjpW6Zi9COgaKENAl3eDsuk9/+jY6xLQC+5fAnox/RqenAWr8BOiTLIp0Qb+bbIgWrC4cdL3l7b+ankXNwv/72jP71z44vryfMnvPEu0mxvc3jgxCzq+Qsd4OMFncoHqJFEm+WXAdPzbyhjQkyr66dKG8ni4rq2FwAjo5QjoOxemvLfQgqOd0N33qdI+W5+fGaDj30ZA10AZArokiy00n9Xq1KBEQC+4fwnohZBXok29y7w38k5rdiJr3uwAN/xGdoHhvv9p/5Tr4JH2ntynz9K1d010WUMgex/HthycKs1CfHI2R7vvdqo2fdGBuYD+T6HvM+ibRJnIQoxu+GDumPi/tv1uAnp5AnrZCsa54Z/TsVTHGTvt+oxzg7uFbgjoGihLQG8putChQnEE9IL7l4DedtP6u4x+Tnt01elH2hpyO8EJXpqr8Prt9q29GgwUUhAwf7e4nWuiu8GPGtu7LRlnzaq+PVK650B3XZ1ev+fry3gHvWla+Lq0JkO9uNSn2vJ7CeglCuglKhgnP7uzz0I9a16Mlxvepu3z9QR0DZQnoF+a/h1ySZiOvOaC5+dOVK7oyGtWCQG9/ZzwvOwDYdGBoozcoNvoCvXZHdiHxMz4MeP+fXLZtnRs7HutaKdpS58knGB1W9dElxcU5Hrw9RPMy4VJnPAM7Sudj1dP3+eU1Hyp8h30JnkRrPlYifwbndAe/+8MZqbv54zFL2rLdlaBrgG9LAXjnOCH2lc6Hy+n/+jcBW69KtQT0DVQloCeL6TS03dwR16TgF5w/3IHvYAiMuuNXSt8X8kZNG6w2dg13vPPEbZjaSU3uLjQ+hxuODd9vOiUxc9rw+/7UDaWh+8RRhY00nh923bUfJF35nRcl7jsAX3H4oxOuEz09O0/rt9HQC9fQJfTwZuzppKZZIYFXPmZLT+7yz6Wzlz25NwFbs3G0tyymvJCvGpOONQY8/pFZZQnoP+k0IrCu0JAL7h/Cejt7c/w+NzV2iNFmTnhr7KT2L6PCJOctOCpyYd1OyquJxdlgo2FrlfeHUzJ3a3pHvfvc4JrGtv7cFufly9aT/Cx3B2fU0WZuUFvbiw5Vug3xX2zKK3kOeP5uf6/Y1wn0AT08gV0yQmPyo3L/zBsLD0it+2niTJzwlm5C27HCV0Q0DVQmoAe/jw7oPtf3pHXJKAX3L8E9LZygr83TihWJ1duy0xWKs/uQv9emEY+c1ff/vVJYB/vFLqin+WWldbr2/uvcf0euY3N5yed8JvCxDoo8u7ttAXPEmXm9E1oCYi6qERAbzxaIvs9O7GfP+aVDgjo5Qzo9VVBbjKyYJwTXJ8ex52qKaW2tkTzOL5T6IKAroHSBPTGXRfZvtz/Hx15TQJ6wf1LQC/mhDo4R5SevMsU3N84gRpOiq+ZpKd/au5D+6g2FM/8bVu3b+fX+Wo2LX3RG8f+e4IvGfmeybonaXG48BeiCuRduU7PWtubqgR0qXvRC7NaDcnf/KUx/R4CekkDejIuvz7bznBlshqA7k4LX5ars3CRqNLNk/F+frYTAV0D5Qnozcqy6zq2Zi4BveD+JaC3jRN4uRO5g0QVOOGXc3fRvyNMXRNdhuyxmN7/X+mJTtFrwidhIT2p+snY/+YwbPzNfxQmccPvZSdY/VNFFbjBibmLSLOEVs+gh1tEFchChM16G8lFrf73j/53UCSutAF9x8c/TSgY5wbfzT2edoioAqfvhNx71Ct0QEDXQBkCuqx0nBVa6Nx0OwJ6wf1LQG9/UafgdlEV9eNza+OEfbk47q5/EyZJT5yDkTHdTXaCGY2fX9ORRxrc4A+Nvh5KCqaNVk/45lzg+7gwRbKMXfhoY7uDjl0gVk2u8S7XJ24+NiPHGdWqFtB3Xupw3ahXaiCglzug14vDPpp9loRvEbqqr+CxrLEvh5UaS5sFfJ1w7bgea2sXAroGyhDQ5XJRKq4QEtAL7l8Cels4wTG5O8nHiCpxwl9n03CDDwqTzOh7SXpXWk4hHy35PHgnx0S3/5O5gH34OJ67XyFmLnmiMIXb/+Hc3+2IKsneszipd6BaFQP6jktSyZk3X7rv2fv8swT0cgd0kwrG5VfwcENXVIn8nE5nYfV9TvXmENB1UIaAng8gRU/lzCOgF9y/BPS2kCcQzSuzOi3j0Qk9/e/LXZz4jTBNWnhMLi0yirsJ8pngTk8TlKHaDVaNaU30fOV6NzxLmEQWIWyGQhOe8WwnN3hT7vj6i+rNqWxAr88izOrwOMHN+7y8JAG9/AHdlIJxTnhdZcdSuRRe9v6on+nIHXQNlCGgu8HVjZ16+6iuHLdnCm3zA/GKjr1uVRDQ29GHB2n3bFMnyTsFTvBQ9ozmwhcLk8jl8NL3b9Gkff45Jzyj8Tc/lJy8d4ob+GOqGi+X6mr+nbKqrSlmLH5RrgjTr0QVucFCbd67qgZ0SV58TWfNJH1w3j79HAG9AgFdFrLse226QoZ87Om0+14gdCLrmDT71A0vEVUk13zPZhC8Xu22sA66eqYHdFkIKTtBuq6jr01AL7h/uYPehj48J3cndYKoIjf8Ru6k9XRhEvnseLN+gCz0t68XJbJnDr8rOmlaf9eY1kTPinzqs2TXvnCDb+UeoXi7qCInmJZ7z89WvC3N/WirqKJkNYFwRe79OHGvP0NAr0ZA37FgnHw8RdfPablMahXJNd+z92eMxVbbhICuAdMDujzhTg/q/nd19LUJ6AX3LwF9/GvlNqYcy2U8qkreNU+f5Q6Wavv83e644dzGxYWV+/RsthwHm2Pi9PDVHdnGltcP+xqvf+8+fb/cxuzE7HhhinxBI7mkX1UKGu1IrlOcVhIPVybjjipVD+iSvFCU3ikNt4qevrfu8fsJ6NUJ6KcueaZwg4G0YJycVq3PTLeH0xoKnZz1pRM5A1ibsZQ76OqZHNDlFJ30mcfg7o6fIBHQC+5fAvr/b+9cQ60qwjA8/Qqi/lQWFHSTJKJAii6CURmB2t0su9+hkAzda7Z2ArtbFoXlj6iICjOtLKwIregKQVR017Nn9kmL8pKFmiV6NPPEN2uvNbPOdZ999prLWu8D688+4vr2zNqz5p355v1Y29KjAxI+eZ5ti19857GQqIjxxqr65UP++0i+1PieX1mJb0D3+CZrumqDq+3KcTgUKrULR1yDuihwsdRoi2s8SHH/l5UZ891JVRV4ffTQ1SJkjzqyAYor0H01jMt4xcgOVma4WGK87691FgcEugeELNDpnIp+kCfYvz/OoOfbvhDoIyKSnwUpfPIgqk01JgBvstCg8l3xhOqdoUvqpWZrM5gLqrXD9FnCIVKe413ojV6mXA4F9UUiBn07z+li11ZP+j91FgcEuoY8R/T8qFOVcuoPCPRyCXQfDeMSHykaS+n9UWZIy5hmj87iwA66e0IV6NlyDIvdxACBnm/7QqC3TFQ/3vh9PMfKDtVAT1L7QpwEUJm1ZszXaPcySW3tqI+yGmMmDrmiEcefg7pJU+k7fYZ7PAuFjKGReMN1OO7p2Uel+aeps+I4J2FAoPca8+THhhB7u9/UYQj0kgl0NT6PNcavrU4d02fJw9MjGTBbThZQupweUyMg0D0gRIFOZlfpLpH4VZ2BcwEEes7tC4HeMpFcYOwYn9bObgkWLh41Fi2GX1fcFzPMwczXkpJfNBl3SVVMa6omui4NJYM6w22KGi4mug7HCyryLqNNHnMSAwR6llmrDsxM9iP5cJ82g0Avn0DvbSBLNbjdxTHX2DGe5CwOn6A0f/2bfdxRDB+lMbg8C5+gjuokJWfLQmgCfaY8xtgJ26Vcg10BgZ5z+0KgtwQZienB7Pt2d0uwVDrHqN29uF1+Ds6Ihov3B+3T2JNjT9Nn1fN/BrcMulhA8aY7J7LKQizdx+UvwT1HeWH2J2VOzKjv684kTuyxfm9fiTpPYJH82zAGuzrzdwj0cgp0HwzjaOykMdRFSVCfibXFbrdjKQS6e0IS6FTTWTs97mVR/Ua38SDFPd/2hUBvrd3qVxmrr7e3u1uCJhKfOKv60M5+7a9GaiSjxkTnL09WvJ8aNC2fjNWaSdv3jaqcbOw8zXUdjleQv0NqECim2b8/BPoA7TLJEJQ7M1lVEOjlFOgElzcY75QflCeI1fuLicbu+d1W7+07XC435nFXWL8/BLoHhCLQY8fc7Vqc125zHRIEet7tC4HeWrsl5w7FDrVKDjS0e6QnBK8H1TQkukl8xy/sBX3+HolvG9/rWeYDkTjFELKVvufspAzy3GEycaKFBTo/CTRUIUFP+D+03jQQ6AOTLIjFz+761IcDAr28Al15R6RmsvYN48i/I8l4oWNcoP+FYBLLtoFA9wDfBTo5j5ITsK5j3O20jIsJdtBzbl8I9OG3WX10msbNxYt5dEvQUOo1l5uDdd/m4plG325SJlD9mQJW5RnMF2hXJo7rx8znFKOOdzILM/XwLdfheAelqKbp/2Ivq64+1ur9IdAHQS2KLTYWKL9m96zfDwK9zAKdFn5rJ+qjKWKbtXfiHWsO1WOpY88UH3E+liLF3T2+CnQ651eRV6qVXnPV1yenXwj0nNsXAn1ERmg+/VZ8ghb89CR1DgsJ3jVOx16/QH8u5zc+X+uV2RqXXMdbO1l/Lp5vtP9vXtThbcUIzWx/oOHyPmMXfb4bkzjxH7pkwCycL4zx72UI9JILdCISC41n4gXrGR2UIQv66Rd5r6F/HrHaRBDoHuCbQKeSPNXaTcqpT7/k6eF8RTmS+gQEes7tC4E+7N8O7azGK66r8+qW4KEdA53S1+WVoG0GLmuZFP14pT325ojk/cy3MVKX0FmoPqvWDjCOKz3AQiE2NFob5MKCTaLVRxoZb79nMj1yvzcE+pBQajsX6wxBlhge9rA5a46w0U2FoEgC3bphXKYs4zrrZ99DgX6PeizdNGjJ0nYDge4BPgh0NcGsncUi8XTqPq2FuWDV+vnMRyDQc25fCPRhURWXGZOuWXl1SyHg4nOjrSawkEh3HkS3WrSk+NOdiM4xzDeSUmo0ttMEoyJuSXc5qSpHKFTq5xrvJb8WQnwjkisNM8ZLHZjE7bV2zxBR/hBiR2auBYFeXoFORPJ6Y+H6m1wXICviHONe4SzSuoDLFUYW2lRr94VAL6lAn75qfzZbnsq4mKkMgiLxR58XBe2gkxGczdX34QKBnnP7QqC3VoZL7GR3dh6UV7cUgkjcnMnOCQkyJtOTw+lpujgtOvgICTRTrKUiSn7AQoLLZenCAu0Sgyb7XL5rrakg0JuHjhCmfiUQ6KzsAr23YVyeFWC4fDUdS+fUjsrtPkUgklOMzYT3LN4XddC9EuhcPtE4y9i+S5XaURPIZfHLM0nB7e8S3XGZFnFREPUQTYFOaTqRfK3wFy2uuBDo9BJ0/d3zvEZqAEI7kToVaknb+qCo0HOsawN3s4o4mIW4Q6mc28W2VKz7CO2a68yoxDSuRwmEUIh+OoRFcldj4rrSdTjeQwvrScqszUk4BPpw22seBHqLFE6gK+E8Nv1eXGxV41676aiPSsdSm4t3RRlLI3F0qQU6l/84n6/ne3UMJNAdXOos1CLG5XXBlYTKCPSSXDZ9ADI76AW/ZtVPH2FbPZT+X9Xa2W3rgyKTOqIr0RWxkKAa0+bzQxMen7MmTBOi+NqsHPVDgYvZRuyXuA4nCMjUKH0+xYN27plmZ/RYuV/oqOOFRu16nEEvt0C3YRiXMQ6VU9r+/xcRbQJLfTKv5AK9p9AXaXIrAp3MgSK5hXG5QRkbxR2+SLmGVsTFwae2QKDn3L4Q6E1BBivxbyw+GhKa6ZkXdbplLah2I3Ebj61J/MuZz1S7Tsq+H8STLKzUz9i0NJIbvT525RPkh5CkUFMFFhtGUBDowyc2bYwzWyDQm6eoAj1Xwzg1lgqMpcOEMiz1cZQNdsZSCHTmXKADAAAID3V8KKCdCC6+M15EY12HAwBoQJsldPwQAh0AAAAAAIAWUUabjXTxGfV9vW9HqiwQx/ul61AAAL2o1s9UWYEAAAAAAACAFqHUVNpJDwEyHOJyN+PyVtehAAAAAAAAAAAA7SWSVca7xgXTrFz5UD4mAAAAEUlEQVQsDc4MFAAAAACA2eF/vbnER11C4ScAAAAASUVORK5CYII=;" parent="319" vertex="1">
                    <mxGeometry x="145" y="10" width="174.57" height="70" as="geometry"/>
                </mxCell>
                <mxCell id="249" value="" style="shape=image;verticalLabelPosition=bottom;labelBackgroundColor=default;verticalAlign=top;aspect=fixed;imageAspect=0;image=data:image/png,iVBORw0KGgoAAAANSUhEUgAAAZ0AAABmCAYAAAAQ/UzMAAAeHElEQVR4nO3dWWxc15ng8f85997ayOJOSaSo1Y4oJYpjyWsSOWZbE7hjo8djB3DQDrIajuF+GSBAjPRTRi8TjN9mXnqchtFJw+ioMwbaTneilmMrTmLIlhE5kRLFkmzJFMVVFNdaWMu958zDJcWliquoopbvBxCgWHXrfrXofHW276rvf//v7Ve/+hTbt2/nWjp79iynTp3izJkzeJ7Htm3baGtro7W1lebmZqLR6DU9vxBCiNDIyAgDAwN0d3fT1dXFhQsXaGtrY9euXXz605+mtrb2mp3bBXvNHnymHTt2sGPHDgCGh4e5cOECnZ2dvPPOOwwNDREEAdFoFMdxAFBKYW1lYhNCiJudtZZisUihUCCZTNLS0sK2bdvo6Ohg27ZtKKUqEodbkbNMSqfTnD59mnPnztHZ2UmxWLzyxBsaGkgmkyQSCSKRCFrrSoYmhBA3Ld/3yeVypNNpxsbGuHz5MgMDA/z617+mpaWF7du3s2PHDrZu3XrNY7nmSSeXy3H8+HFOnDjB6OgoO3fuZNeuXTzyyCMkk8lrfXohhBALuHjxIufOneP111+nt7eXO+64gzvvvPOaTblcs6TT3d3N0aNHOXXqFHv37uXRRx9ly5Yt1+p0QgghVmDTpk1s2rSJjo4OcrkcJ0+e5PXXXyebzXL//ffzuc99blXPt+pJp6uriyNHjjA8PMy+fft48sknV/sUQgghroFYLMa9997LvffeS29vL++88w4HDhygo6ODBx98cFXOsWpJJ5VKcejQIbq6uti/fz979uxZrYcWQghRYa2trXz5y19m//79HDlyhB/+8Ic8/PDD7N2796oed1WSztGjRzl8+DD79++Xno0QQtxE6urqeOKJJ+jt7eXQoUOcOHGCxx57jIaGhhU9nrNv377/cccdd1BfX7/sgzOZDD/96U8ZHh7mm9/8Ju3t7SsKQgghxPUtmUyyd+9eCoUCL7/8MlVVVWzcuHHZj+MqVrY2+8MPP+TgwYN0dHTwwAMPrOgxhBBC3Fjuu+8+br/9dl555RV6enp4/PHHl3W8a1ewOfTdd9/ljTfe4Ktf/eo1r2QgxHXBGmx+FDPyMcHASczQB9j0ADY/Bn4Wa/zp+yqNcjzwqlGxBnT9dvS63TjNu9HJjaAdWOGXPSGuB42NjTz77LP8/Oc/50c/+hFf+9rXiMfjSzp22cNrb775JidPnuQ73/kOGzZsuJq4hbj+WYvNDRP0v0/Q+WuCrt9iLv8Fm+nHFlIQ5MEGZY4zYHxsMYvNDWHHL2JGzmOzgygninLj4HiVfz5CrKL29nay2SyvvvoqO3fuXFLiWdZCgsOHD9PV1cVzzz13pVyNEDcniy1mMWMXCAb+iLn0Z8xoJ3ZiCExx0WOxFoICBAVsMYPNDkGqBzvehUn14Kz/DLpxJ7p6AyipviFuXA888ACJRIIXX3yRZ555hqampgXvv+Sk8+abb9LV1cUzzzxz1UEKcV2zFpsfw4x8hN/1NkHfe2HSWDTZLPSYARTSmEIam+7DpnpwciPQei+6ukWG3MQN7a677kIpxUsvvcRzzz1HTU3NvPdd0lesd999lw8++IBvf/vbqxakENcr608QDP6Z4ul/wz/3C2x64OoSztzHL2YJBv5I8cxr+Of+E5sbAVNmiE6IG8jevXvp6Ojgxz/+8YLFmhdNOh9++CFvvPEGX//612VITdz0rPEJeo7if/QfBAN/AGO4JpXYrcFm+vE736T4wf/DpHrDeSAhbmD33Xcfu3bt4uWXX573PgsmnUwmw8GDB3nqqacW7C4JcVMwPkHf7/Ev/BZz+TT4Oa7ppT+Mj50YDofwLv4OM9597c4lRIV88YtfxHEc3njjjbK364XGkV955RU6OjpkWbS4+QUFTLqP4MJvMJc/wObHK3Ne42Mz/QTdRzGDfwqXYAtxg/vKV77C+++/z4cfflhy27w9naNHjwLIxk9xCwgXDgR9vyfoPx7OsayAcqKgV1ZZKhj+kKDvOGbkXLjyTYgbmOM4PPHEE7z66qslt+lywwepVIrDhw/z2GOPVSI+IdaWMdjxHvyz/47NjS1/bkUpUA66ej0qUj25BHqZK9GMT3DpJEH3O1hTpFJX9BXiWrn99tvZtWsXv/zlL2f9vWxP59ChQ+zfv5+6urqKBCfEWjKZfvzLpzDpXphZWWBRCuXG0VXrcRpux2vZi7duN07NZlSsjuUmHpsfx4ycwwyeWmYcQlyfHn30Ud5//336+/uv/K0k6XR1ddHV1cUXvvCFigYnxFqx4xcxAyfDzZzL6GGoSDW6ZiNu0w685l3oZAtO/Tbc5p04Dbehq5pBL6PqgPEx6X6C3vewweot0RZirSilePjhh/nVr3515W8lSefIkSPs37+/ooEJsVZskMeMd2NGzy/7WKduC5HNnye6/b8Q2fIAKI1Tt4Xotg6i2/4Kr/UuVKRqefHkxzCDf4H8uOzdETeFe+65h6GhITo7O4E5FQm6u7sZHh6WC7CJW4adGMGk+7ETw8s+1m1qJ7rtr3AbPwFKE2Qu4dZvx23eic2nKCQa8S+dIsiNLv1B/Rwm04dJ96OjNSidWHZcQlxvHnzwQX73u9+xdevW2T2do0ePsm/fvrWKS4iKs6kebPYSK5m419Xr0dXrw6rSShHf+Rhe8y6U0uDGcRtuR7mx5UYULt8e+QgK6WXHJMT1aM+ePfT09DA4ODiddHK5HKdOneLee+9dy9iEqCibHYTl9ERmMBPDmIlhIFztprQOV7JZC0GeYPwiNiis4IF9zPhFrJ9bUVxCXI/uv/9+3nvvvenNocePH7/qa18LcaOxuVHsCnsU2qtCR6pQc6dGFSjHRccbVrRvx5ogTIZBfkVxCXE9uvvuuzl+/Pj0/5YTJ05w5513rmVMQlScLWZX3KNQXgLlJcLezexbQHvoWB1Kr6ReYbhZ1a5ikVEh1lp1dTVtbW3h5tCJiQlGR0fZsmXLWsclRGWZwqpWkF4Vk8NzUgBU3Gx2794d9nS6urrYuXPnWscjROVdlyVnrseYhLh6u3btCpdM9/X1cffdd691PEJUnhNZcb00kx2k2HdichhMTQ+zWUNYrSCK9VcwL6M0OFG5oqi46SSTyemks23btrWOR4iKU14C5cZW1LcoXj4DTgRdtR7lxlDaw9ogXPKcT2FSPSusVq1QkRrUCpOhENcz11pLEAQkk8m1jkWIilPRurBI5woEI+dRkWoiiaZwMYL2sdaElysoZCj2vIdZwco4pR1Uoins7Qhxk3GDIKCtrW2t4xBiTahEMyq6ssK2NjceVjTIp8PLIUwNq3lxCAoE6YGVFe7ULrpmE8qNryguIa5nbhAErFu3bq3jEGJNqGQrJJpWdrD2QDlYP4eZGJr+s6kBxwU3CkWz/FVo2kXXbQdveXXbhLgRaFA0NjaudRxCrAkdb0RXt6Citcs7UCm81j14rXtQkTi6asOVHxWvRyeaiLX/V3S8kWVd4sCJohLr0DVtKyihI8T1TzuOI/M54tblRtA1bej625Z+jFI4jTtwm3aiE00opjeKKi+BclzQLm7Dbbjrd6OX0ZNSsVqc5k9BNAkr2lgqxPXNVQoSCalkK25VClWzCWfdpwkG/wzBUq7aqdBV67FBATPegymkSu+hXGwhg4pNLlTIDi4einbQVRtwWu9B6ciKno0Q1zsXIBKRD7i4denqDdh1u1Gd67HpvsUn/63FjPcQjHWBnyu/wVQBaFS0BrPEZdMqUoOu34azbnc4JyTETcgF0Fo2oYlbmHbRyTa8275E8S8/w+YXqzptCcY6J39dpFeUHVziQgKF0/RJnI2fBTfOci91LcSNQrKNEChUrA6n7X6cDXeiYktYQm2C8MeahX+Mv6Sko+u3o1vuQjfsQBKOuJlJ0hECwsoC1a24Wx9CN7bDCjeMLpsKN4I6mz6Ps/6O5a+iE+IGIwPHQgCgwPFwWu7C5EYhKGKGTmOL2Wt3Su2h4g04rffgtn0eXbOpzGUShLi5SNIR4goVXmZ6SwfKiVA0RezQmfDSB6tdjVq7qEQjzoa9RD75t6iqpnCzqRA3OUk6QsyhvARO632oaB3++UME/X/EFlKrd30b7eLU34bT9nmcrQ+hqpplT464ZUjSEWIupVHRJLppJ26kClW3HdP/B8zox5NVo1fY63E8dLwJve4zOC170Y070VXrVnxpBSFuRPJpF6KcqcTT2B7utaluwQydwYx1YlK9kB/HBvlwBdu8SSicJ1JeNSrRFFY+qLsN3fxJdO3msNCozOGIW4wkHSHmpVDaRdVsQlWtQzftxI6cJ7h8GpvqxuZHsYVMeFmDqaXRSoUr0pwIuDGIJMOabPXbcRrbUbVbwirUSobTxK1Jko4QS6CcKCrZBsmN6LbPQXYQmxvBZgYx6b7w0gbGD6/26SVQ8SZ0sjUs/hlvhEhSrgQqBJJ0hFgmhdIOJJpR8QZs7Va08cEG4Qo3pQAVztNoF6V0+LskHCEASTpCrMBkUsGVUTIhlkm+fgkhhKgYSTpCCCEqRpKOEEKIipGkI4QQomIk6YgbnrGrXxrtRo5jtVggMCuuvyBEWbJ6TZToTwUUDWgVXtnFcxRaQcJTxL3SHfQTRctAOsDVat4N9lFXUR1RxNzpO+R9SyGAZPTqduV3jvgko5rmqtLvUMXAki1aklGFnhOctWHsWjMrrvksFu/5YZ+GuKYhsfB3uVTeoFX4mrh68fNOPwfNEu4OwKV0wEQRXCd8D2OuIuJAxFVEnKU9SDGwdI0GNFVpqiOLx5rOW1xn9muZLlgcRdnPjbg1SdIRJc5e9jE2TDJahY2IsVATUzQlHKrnNLrjecPJvgLN1S7ztWe1MY2r9KwGaSxvGcka2ptX9jE0FvK+4WRfkc11Dg3xCM6c9n7Ct/SnArRySHjgzGg4LZZLmYCYq9iQXHjtc2BgNGdJ5w3J6Ox4wzgsf+wt0N7sURvTJXHM1DceYIHGhKaxyln0km3ZouXiqE97s4deYsL4eCRgZMLQmNAooDqi8Jww8dfFNdElJNmJouVkX5HbGx221LvUxhY+pj8dUBVRtMx4LQdSAXFPEfdkbbkISdIRJQqBpbXGZUeTizGWnA8XRn3OXvbpiwZ8dnN01v2NDX92r/NIRMo3TIrSMmPjOUNvKlhx0ikGlvPDAcXAkvMt6YItaRjtZELoHAnYWu/M6qVopehLBSSjetGkk8obhrPhuebK+5ZzQz6+sWQLhnTBUBubP+sMpA19qYDWGofPxp0FExSEjX/3eMDtjR5LbbstsK7a4Y4NHpYwuZ8f9ukdt2ysddjesPhlFKyFwFjODftURfWCzwmgLxXQlNCzkk5/OqAupmmtkaQjQjKnI8rSyuLocGitKqK4rdGlKaHxg7Cxn9n0KkBrhdYs+FNu6O1q5kCKBrrHAj7TGiHhabpG/ZL7VEcUbbUO3WM+2ULpyaKuQhEmjoV0j4cJZ1tDaYLMB5YLoz73tEVxtaJnLFjwsSywsdahOqL5fU8BfylXTFjm66QIh0cdDa5S1Mc1uzdEqI1rzg0vHB+EvdeBdMCOZpfoZE9X5nbEapCkI8pSTPdOHB0OtdXGwuGxdMGWTRZKzThuzs9qMxYKvsVYqI+Hw1nZoimJy9HhPJJvwDfhcTO1Jh20gp7x+RtiS9jbsEBVZPZ/mcCGSdhYaEhotA6H9BZLpnUxTVOVxhjLx8NFssXVb9JnvodTQ2txV2Ps4gsE0nnL5Yxhc53LploHP7AMZVbpekLiliZJRyyZo8PJ5OA6aHuyBcvwhKEl6RB3FQlP4WnF8ERQklgcrVhXrckWLZnC7OAbqzRKweA8Daq1MDph8DQkvNKJ/EzBMJaztNU6RF1FVUTjasXIxMIvUsRRNCQ065MOfamA4axZtLe1GhwNET2ZcOY5XWAs+cBSCCw1Mc2mWhc/sFxKL95DEmIxknTEkkxNlheNpSqirknvZTnG8obusYDbm1wSEXVlhdXHwwFmTjfDcxSfaPQYzRkuz0kung6fSyGwJcOGAAboGvVJeOVXx41OhAsV2ps9Yq5ifbVDzFVcGA0W7e0kPEVrjUPc0wymw4n/uQlzNVk7vaxbY+ddaZgpWvzAUhsPFyHUxTWGcF7rWsYnbg2SdMSS5IqGbNEQWEvcm39pdKUEJkwUUTecu6iJaWKeYiBd2tPRCuoTmrxvmSgzjOVohTGWgbQhmHOwtTCYNsQ8qI2X/nfxTdgjmFrpVxNTeA4MZoL5h69m3BB1FXtbI6QKlr5UQKbMvNNq8U04FBgQzsHNp2csIF2wtDe5V3p2UVfhaEUmXzqEKcRyyOo1UaI/FTCUNfSnDJawh5MpGJqqHLaXmUjPFCynLxXRirJ7QGqiik11LhtXaQXTyIQhVzS0VGv0ZJ9LEfZa4q4iU7DoqMKdkSMU4fAYhPMzM/eNWBs+h3PDPo2JyJXjjA2TreeEiWnuMxvOGoqBZX319POa2tcUdRTjeUMysvDyaUU45PXJdR4XRnzOXi5yx4bIlf01K5XKG0ay4dyRtZaCCePVCnY2LbxybWqOKu5NB96adOgn4IPBIndtjM67NF6IxUjSESVinqI6Ek50Q9ijGMsprA0bs1wx3Ocx1dtxdbgPZ0O1Q6zMJyrmaRKruDmwP2UYzBjWVWsGMwFqMpBs0RJ1Facv+exa71I3Z4lvS1IzMmHoTwVXVqGFPZvwq3umYAmMxRImmImi5cJoQEvSKbshtHc8YCRnaK7SDKSnh+1yRYur4VR/kTtaIqXHlnkp6uOaiaLmUjrgzGCR9mYX7ypa9kJgyRYsYzmDtZbRnCGwsCHpsK56/iw4nDWkC5bAzp7nMsYyng83i97Zall8d5EQ5UnSESVqouG+ik80eYCdTDaWwUxAtmDpHQ/YXO/gTjb2EVexPunQ3uyWTS5Krd4ckLEwljOMTm58HMqaWbe5Dpwb8tlS71AXm31sc5UO53Wyhm0N4d/GcmHCWVftkA8sqbzFc8LklfctPeMBd7dFSlatGRv2uMbyhvqY5nJmepLdmHC+5NxQwI4mQzI6u4dXbnTK0WEMxoYVFgbS4RzSUjZxlhNxFETC6gmWcMlztmjx9MIVCXpTAfnA4mo16zlBmJR9A2MThvqEXlI1BSHmkqQjSmgFnoaIA1Nfy6Ouoi6u6BkPODVQpLXWuTIMNb0nRM3a8X8tZAo2LMkTUSVDPM5k9QStoBiEcxgzh9hcJ4zP2LDxdHS4odFzFJ9ockjlw4QaccPd+76xWGuJOKXnyhQsjlYkPD3rHACOo4i74d6kQhDO+8xqoOfZ8xJ1Fc3VDkUDH10u4mqP5qqVDUkmo+Hy9qkenbWW4z1FRicME0VbdhOvtXApbYi54cq6uUHWxhRKaTpHfaKeR81Vli8StyZJOmLJ3Mkl08asXWHLj4aK1MQU7c1Rqss0nIUg/DY/njfEs2HvYaZkVFEIFP2pcNgsH4S9o5qoJuaGc1Mb/LDcTSpvaK1xS5KKsXBmsEhTIqxkUFUmjpxv8VzFUNYQdRVNVUtroOOeYmONw/DknNpCE/7LoZRia71LXyrg9GCRvRsjJc8p71s8DS1Jh811pU2DxTKeM7z1cZ7NdS410ZK7CLEoWb0mlqVcOZtKSuctjgo3Ojqakp+oq9hS74ZDcLnSvTINcU1tVHFhxGcsF+6/iTrh/JSe3EQZGMtQ1jA6Ydla75YdjkrlwwUGVfPEEfcU2+pdhicM4/mlb2xShM+hvdmlEBgupQLG86uT4WtjipinSBUMmYKdtcov51tODRRpSTo0Vemyz8mdHJrztAp7kmVKAgmxGEk6YkmMDSeZxyYnzherF7baAhPOoUScsMLAfOfXKkwE1kLBp6RWWnSyynIqb+ga9amKhCViIFxG3FbnkM7bK5W2w+rU08f7BkZzYe8luuQ4bNmabfPRKlyY0VrjUjSW7lGf4ipcYsBzFI1xTX3M4fSlIrkZm1GLQfica2L6yiq/+R5je4PLyIRhJCdJRyyfDK+JEsHkSqXBTHBl/iEw4QS+byyb69xZczdTQzODGTPvJQLcycsHzByKCkxYumbmyq+5Ym7Ya7AW+scDGhKamkWqHUNYwRnCBRANidn3j0xWDugeD9hTNb0yTStoq3E43lMglbdsqi1tfAuBZSAV0FxVWm27nKkVgDPjcB2WtOS4tcahMJkMym1cXYg72TuZqzam8Q0cu5hna4N75f0KTJhQIm7546ZMJZ0/9BZIRNSsDbOuLt3/o1W4gGG+93hqPrAmtvRLLogbmyQdUWLCt3SN+oxOlnIJq0hbmhKazXUu6+dUZPYNjEyEZfDnzn9MqY6Eu+9va5z+yOX9cEPk+z2FeWNprXHYNFli5nLW8OkWj5pFqh0DbK136U0FDGaDkuvbxL2wCGjPxQDf2is9mamhrfF8eA2YjbWlk/h+ENYk+0yLRzKyeBy3NbhcHAsYnjBX4kh4isgSVqVpBRtrHAIDf+qf/zUqJ+6pskuup+roNVXpK1UYAIrGsiHpLNrw68lr43i6dJgk7inmLNTD1YpLacPlTPn4FRD3YPeGCI0JSTq3AvW9733PPv3002zatGmtYxFCCHGTkzkdIYQQFSNJRwghRMVI0hFCCFExknSEEEJUjCQdIYQQFSNJRwghRMVI0hFCCFExknSEEEJUjCQdIYQQFSNJRwghRMVI0hFCCFExknSEEEJUjCQdIYQQFSNJRwghRMVI0hFCCFExknSEEEJUjCQdIYQQFSNJRwghRMVI0hFCCFExknSEEEJUjCQdIYQQFeOu7LAIL7zgcmDOXzvuLvKLh4pl7q849lqch87M+XNjwPmn86xfWRBLdzZG1atT+dXyT09P8GTjtT7pyg0cjbP9bbWsYx7bV+BfPudP/mv2+zP7NrEsQ1Geesnhtcl//uC/ZXl+x5pGJMQNbVV7Om+dcegse4vLsfI3CCGEuIWssKczj5TivSHYOrcX0etwOL+qZxKiMhrz/Mvzax2EEDeP1U06KN694PJk4+yhnIFOxVure6JbiOHI8znuW+swhLiRzBpSL+/aDpW6/OylCN8amn94+9hriVlTDvPFs9T7lbPa57iaWKasUtKxPNumeLEbXjzv8D/3+sRmnOLdjybnJ5LQkWKRBKQY64rw4lsOBy/BGQPrI/DX2wK+8YUi99WbeY7TDJyK8L/e1rw6BgPAfRsMP/ibAg8uGv/0Of/zMhyb/Hysj8D96wzPfqnAgyXnnTlvMjlPpCO8eMjhxV7FGQNb45ZvfNbn2b1Faq+bJRsOx16Lzvng5Hl+RzD7bhmPw0ddfnJa8dpE+Kf2Kstffyrgv+8rsL7cJ2fW/IfhyPN5dk6+rj/ph06gvdby7L4iz35qvjkmxVh/hINHNP/ar8L3QkPHOsuTdxX5Rtnj5r4XOR7OzP4Mtddavv+lIk9u9rnyfr/h8H8vw4CGjnWG5/+mzPssczo3rQOvJvjjNZrvPPZamHDKm05Ic+Nh1udrqferxDmuJpbZVqkptNy/2Ya/dipOzPx/m3H4TX/465N7gkUSgMOJwzH2HHQ40B82FgADBfjJGYeHXopx4E/lWjuHY6/F2P4LzYuTCQfgWL/mkX+MceDPC03KKzqPTp/z2IzP30ABXusOH+OFs86CkX/w+zgP/aPLd7vVlbg7JxQHjng8/u8RcgseXSmKzqMR/nZGwnlyX2FOwlGM/SnOo//g8cQfphMOwJmM4n+/57L9/8T5SffCrwcojs14L6em9M6MKb77iwjfOlrmfTQuv/m3OHv+2eG73Wr6vTDwVr/i734R4VP/HOPMgkO1ind/VfoZOjOm+NbBCC+cdel8P8bjBx0OXJ78rBh4q1/zyEtRfnZ5eQs4xI3ttbddjq3qI0Z44YVE6aKpmc66k4235Z+ezpJ5PsuR9vCmA6/GpuNZ6v0qcY6riWWOVfv+vaXN8hkAoznWOf0fN3de8+Lk7x1TiWkeA+9GePyEupI0Shh44VCEn/TObhgG3p3dkM71wkcLNCSXonz37clzasu/PJMj83yWzHM+P4hP3+3A79z540Lxwgk17wt/7IzLv16aP4RKyZ2N8u23p1/fJ+8u8g9zvuXlPory+CHFW/N1KAF8xd8djCzSQCv+foH38mdHPX5TmPkXhxOHIjzyIQu8ztDZr/nST6N0LhDfi13zn/fAf0R49I153iuj+P5vvevkC4JYHdON5Myf8/um2iLFhclv78deS1D1QoKql6IMnI2Fv0/+PFXuS9JcQ1GeKrOqd65jH0w2u42GByfnv+/bF/DY3HiWeL9KnONqYpnr/wMA4iSimQfsGgAAAABJRU5ErkJggg==;rotation=0;" parent="1" vertex="1">
                    <mxGeometry x="190" y="828" width="460" height="103.6" as="geometry"/>
                </mxCell>
                <mxCell id="250" value="" style="group" vertex="1" connectable="0" parent="1">
                    <mxGeometry x="190" y="882" width="460" height="50" as="geometry"/>
                </mxCell>
                <mxCell id="251" value="" style="rounded=0;whiteSpace=wrap;html=1;fillColor=#1BA1E2;" vertex="1" parent="250">
                    <mxGeometry width="460" height="50" as="geometry"/>
                </mxCell>
                <mxCell id="252" value="" style="shape=image;verticalLabelPosition=bottom;labelBackgroundColor=default;verticalAlign=top;aspect=fixed;imageAspect=0;image=data:image/png,iVBORw0KGgoAAAANSUhEUgAAAgAAAAIACAYAAAD0eNT6AAAACXBIWXMAAA7DAAAOwwHHb6hkAAAAGXRFWHRTb2Z0d2FyZQB3d3cuaW5rc2NhcGUub3Jnm+48GgAAIABJREFUeJzt3Xm0JlV57/FvD3Q30IwK6RaZmhkEFGQSRBkccJ6A1gjGeDU4xKCJUa+SkHiTGDHOWQbBIUQDgl4TwSmiKKIoKoogKgg0IPMoDXTTQJ/7xz7v9XA4wztU1bOr9vez1rNABfdTdU6/+/dW7do1hzwtB06PbkLSlNYALwXOiW5E0vDmRjcgqXUWAF8EnhfdiKThGQAkDcMQILWcAUDSsAwBUosZACSNwhAgtZQBQNKoDAFSCxkAJFXBECC1jAFAUlUMAVKLGAAkVckQILWEAUBS1QwBUgsYACTVwRAgZc4AIKkuhgApYwYASXUyBEiZMgBIqpshQMqQAUBSEwwBUmYMAJKaYgiQMmIAkNQkQ4CUCQOApKYZAqQMGAAkRTAESMEMAJKiGAKkQAYASZEMAVIQA4CkaIYAKYABQFIODAFSwwwAknJhCJAaZACQlBNDgNQQA4Ck3BgCpAYYACTlyBAg1cwAIClXhgCpRgYASTkzBEg1MQBIyp0hQCrIcmAsoE5v4uCkBr2DmD9LddQDGAKkyngFQFJbeCVAqpABQFKbGAKkihgAJLWNIUCqgAFAUhsZAqQRGQAktZUhQBqBAUBSmxkCpCEZACS1nSFAGoIBQFIXGAKkARkAJHWFIUAagAFAUpcYAqQ+GQAkdY0hQOqDAUBSFxkCpFkYACR1lSFAmoEBQFKXGQKkaRgAJHWdIUCaggFAUgkMAdIkBgBJpTAESBMYACSVxBAgjTMASCqNIUDCACCpTIYAFc8AIKkO3wZWRjcxiwXAWcCzohuRIhgAJNXhIuDZ5B8CFgFfxisBKpABQFJdfkA7QoC3A1QkA4CkOhkCpEwZACTVzRAgZcgAIKkJhgApMwYASU0xBEgZMQBIapIhQMqEAUBS0wwBUgYMAJIiGAKkYAYASVEMAVIgA4CkSIYAKYgBQFI0Q4AUwAAgKQeGAKlhBgBJuTAESA0yAEjKiSFAaogBQFJuDAFSAwwAyt2rgaXRTahxhgCpZgYA5ex44FPAd4DHxbaiAIYAqUYGAOXqeOCD43+/I3AehoASGQKkmhgAlKOJk3+PIaBchgCpBgYA5Waqyb/HEFAuQ4BUMQOAcjLT5N9jCCiXIUCqkAFAuehn8u8xBJTLECBVxACgHAwy+fcYAsplCJAqYABQtGEm/x5DQLkMAdKIDACKNMrk32MIKJchQBqBAUBRqpj8ewwB5TIESEMyAChClZN/jyGgXIYAaQgGADWtjsm/xxBQLkOANCADgJpU5+TfYwgolyFAGoABQE1pYvLvMQSUyxAg9ckA0D3LgPeR18/2LTQ3+ffsCHwLWNLwuIpnCJD6kNMkodFtDZwLvA34HDA/th0gffP/QNDYOwPfxSsBJTIESLMwAHTH1qTL3tuO/+flwH8QGwKavOw/HW8HlMsQIM3AANANkyf/nsgQkMPk32MIKJchQJqGAaD9ppv8eyJCQE6Tf48hoFyGAGkKBoB2m23y72kyBOQ4+fcYAsplCJAmMQC01zLgfGaf/HuWA5+k3p95zpN/z47AKdFNKIQhQJogh1XiGlxvtf9WA/57x5I+XI4BHqq4pzZM/gDXAm+KbqIAzwY2jW5iGr8G9oluYhYLgLOAFwHfCO5FatRyYCygTm/i4Ea0NXA1ox9nleHv+BH7aapW0P8Vk654B/Hn3Rq+HsArAaqJtwDaZWv6u+c/myrXBLTpm/8hwDXRjUgD8HaAamMAaI+qJv+eKkKAk79UP0OAamEAaIeqJ/+eUUKAk7/UHEOAKmcAyF9dk3/PMCHAyV9qniFAlTIA5K3uyb9nkBDg5C/FMQSoMgaAfDU1+ff0EwKc/KV4hgBVwgCQp6Yn/56ZQoCTv5QPQ4BGZgDIT9Tk3zNVCHDyl/KzAPi36CbUXu4EmJfoyb9n+fhfjyHtmufkL+VpXnQDai8DQD62Bb7D4Nv71mU5sB35b5kKaWfEQ4DrohuRpLbwFkAetga+RT6Tf08bJv9rgcNx8pekgRgA4uVy2b+NvOwvSUMyAMR7D07+w7gaOBgnf0kaigEg3nGky//qn5f9JWlEBoB49wMvwBDQLy/7S1IFDAB5MAT0x8lfkipiAMiHIWBmTv6SVCEDQF4MAVNz8pekihkA8mMIeCQnf0mqgQEgT4aAxMlfkmpiAMhX6SHAyV+SamQAyFupIcDJX5JqZgDIX2khwMlfkhpgAGiHUkKAk78kNcQA0B5dDwFO/pLUIANAu3Q1BDj5S1LDDADt07UQ4OQvSQEMAO3UlRDg5C9JQeZHN6Ch9ULAl4HDgnsZhpN/M74O3BndRAE2BE6KbkLqguXAWECd3sTBVWw94FxiztewtQLYtoZzIUVZQsyfpZuaODh1k7cA2q9ttwP85i9JGTAAdENbQoCTvyRlwgDQHbmHACd/ScqIAaBbcg0BTv6SlBkDQPfkFgKc/CUpQwaAbsolBDj5S1KmDADdFR0CnPwlKWMGgG6LCgFO/pKUOQNA9zUdApz8JakFDABlaCoEOPlLUksYAMpRdwhw8pekFjEAlKWuEODkL0ktYwAoT9UhwMlfklrIAFCmqkKAk78ktZQBoFyjhgAnf0lqMQNA2YYNAU7+ktRyBgANGgKc/CWpAwwAgv5DgJO/JHWEAUA9s4UAJ39J6hADgCaaLgQ4+UtSxxgANNnkEODkL0kdZADQVHoh4N+Bg3Hyl6TOmR/dgLJ1P/An0U1IkurhFQBJkgpkAJAkqUAGAEmSCmQAkCSpQAYASZIKZACQJKlABgBJkgpkAJAkqUAGAEmSCmQAkCSpQAYASZIKZACQJKlABgBJkgpkAJAkqUAGAEmSCmQAkCSpQAYASZIKZACQJKlABgBJkgpkAJAkqUAGAEmSCmQAkCSpQAYASZIKZACQJKlABgBJkgpkAJAkqUAGAEmSCmQAkCSpQAYASZIKZACQJKlABgBJkgpkAJAkqUAGAEmSCmQAkCSpQAYASZIKND+6AQEpiB0c3YTUAbcCl0c3IbWBASAPC4DzopuQOuDzwPLoJqQ28BaAJEkFMgBIklQgA4AkSQUyAEiSVCADgCRJBTIASJJUIAOAJEkFMgBIklQgA4AkSQUyAEiSVCADgCRJBTIASJJUIAOAJEkFMgBIklQgA4AkSQUyAEiSVCADgCRJBTIASJJUIAOAJEkFMgBIklQgA4AkSQUyAEiSVCADgCRJBTIASJJUIAOAJEkFMgBIklQgA4AkSQUyAEiSVKD50Q0IgLXAd6ObkDrg8ugGpLYwAORhDfD06CYkSeXwFoAkSQUyAEiSVCADgCRJBTIASJJUIAOAJEkFMgBIklQgA4AkSQUyAEiSVCADgCRJBTIASJJUIAOAJEkFMgBIklQgA4AkSQUyAEiSVCADgCRJBTIASJJUIAOAJEkFMgBIklQgA4AkSQUyAEiSVCADgCRJBTIASJJUIAOAJEkFMgBIklQgA4AkSQUyAEiSVCADgCRJBTIASJJUIAOAJEkFmh/dgABYCKyKbkLqgDOAV0Q3IbWBASAPc8ZL0mi8qin1yT8skiQVyAAgSVKBDACSJBXIACBJUoEMAJIkFcgAIElSgQwAkiQVyAAgSVKBDACSJBXIACBJUoEMAJIkFcgAIElSgQwAkiQVyAAgSVKBDACSJBXIACBJUoEMAJIkFcgAIElSgQwAkiQVyAAgSVKBDACSJBXIACBJUoEMAJIkFcgAIElSgQwAkiQVyAAgSVKBDACSJBXIACBJUoHmRzcgAFYD86KbkDpgLLoBqS0MAPlYG92ApFnNBZYBO06oHYCdgvrZHLhiUl0J/Bq4IagntYQBQJKmNo80se8N7DVeTwQ2jGxqkrmkALID8NxJ/9utwMUT6qfAiiabU94MAJKUzCNN8AcBBwKHAZuGdjSazYFnj1fPLcD5wPeBC0jBwNsmhTIASCrZMtI35+eQJv7Fse3U7o+AI8cL4DbgPOArwNfG/7MKYQCQVJJ5pIn+eaSJf5fYdsJtBhw1XmuBi4BzxuuSwL5UsOWky1JN1+lNHJykxu0NfBi4kZjPljbWNcB7MSSpYQYASaPaFTgJuJb4ybTt9XPg7cDSgX4C0hAMAJKGsZB0f/ubpEva0RNn1+qh8XN7JN5CVk0MAJIGsRPwEeAu4ifJUmoFcALpaQOpMgYASf04CDiT9M00ekIstVYDpwG7zfKzUmZ8F4CktpkHvBz4CfA90uVot9KOsxA4BriU9PTA00O7Ud8MAJLaYi5psv8l8J+klf3KxxzSo5XnkTYaOjy2Hc3GACApd3OA55O2sj2TuH331b+nkBYLXgAcGtyLpmEAkJSzZ5IeQfsyaZtetcuBwLeArwO7B/eiSQwAknK0E+nb/jeAPYJ70eieRQpypwFLgnvROAOApJxsDnwcuIw/7FevbphLWix4BfBOYFFsOzIASMrBHOBY0gK/43CTmS7bAPhH0s/6WcG9FM0AICnajsC5wL8Djw3uRc1ZRlobcCbpLYVqmAFAUpRFwD+QLve7UrxcRwK/Av4X6UqQGmIAkBRhd+BC4H8D6wT3onibAKeQrgg8PriXYhgAJDVpPumtcj/Bx/r0aM8kXRF6XXQjJTAASGrKTqQd4t4LLAjuRfnaCDgZ+DywaXAvnWYAkNSElwA/AvaNbkStcRRp74CnRDfSVQYASXVaCHwY+CLpm500iC2B75JuG7lAsGIGAEl12Z600O/N0Y2o1eaTbht9Edg4uJdOMQBIqsMzgYuAJ0U3os54MfBjYNfoRrrCACCpaq8DvkJ6tEuq0vbAD0lvh9SIDACSqrIA+CRpBbdb+aouGwBfIq0L0AgMAJKqsCnpta9/Gt2IijCPtC7gVAybQ/PE5WEB8D/RTSh7bwAuj25iCluSdnDz3mzyIHA9cA1wHXATcMeEugtYPf7P3gM8PP73C4H1xv9+fdItlMeQ3o+wGWm//G2BbYDH4Rc4gNeQzsvRwP3BvbSOASAPc4GnRTeh7OX4GN1ulLt96xrSHvaXAr8Yr18BN/CHSb0uC4CtgSeQtlXeHdgT2I7ygsHzSC+Tej4pYKlPBgBJwzoQOJtyFvvdAfyAtJvh90nbGa+e8d+ozxrgyvH60oT/fiPSxjkHAAeRNl5av/HumncA8D3gCODa4F5awwAgaRgHk1b6L45upEYPk3aiOxc4hzT5rw3taHa/B742XpA+4/cnfUs+HNiL7m6oswspBBwK/Da4l1YwAEga1DOA/wbWjW6kBg8C3yS9o/5s4M7Ydkb2EHDBeAFsRdqW+WhgP7oXBrYEziOFgCuDe9GQlgNjAXV6Ewc3hUUD9GiVWwcQ79nAKuLPRZW1ljRpvIayXj6zNfBXpDUM0T+DqusG0sun1EIGAMt6dEUHgOeQ7nlHn4eq6hbgfcCOVZ6kljoA+BRwL/E/l6rqRmDnKk9S15S2WlTScA4GvkB6VK3tfgK8gnS5+K+BK2LbycKFpD0ctgCOJz3C2HZLSbdzto5uJFcGAEmz2YP23/MfIy3mewGwD+lq35rQjvL0e9LbG7cnnasfxLYzsseTfu5LohvJkQFA0kx2In2Lautb2MZIb5HbnbR48ezYdlpjLelcHUg6bxfGtjOS7YGvkuc+GqEMAJKmswVph8rNoxsZ0jnA3sDLgF8G99Jm55L2Fngu8NPgXob1JFKgWRTdSE4MAJKmspj0gblVdCNDuJi0ZuH5wM+Ce+mSr5Jun7yCtNVx2zwV+DTde/RxaAYASZPNBT5L+tbUJneQFrDtS9oQRtUbI62f2Al4B+mpgTZZDpwY3UQuDACSJvsX4IXRTQxgLfBRYBlpAVvd+/Ar7QXxz6R3QZwT3MugTgBeGd1EDgwAkiY6jvQtui0uJ+15/2bSm/XUrOtIt1peDtwa3Eu/5pBeI3xgdCPRDACSeg4gfYNug4eAvyfdpmjzCvWuOIP0OujPRjfSp4XAWaS9AoplAJAEaaX/maTXzOZuBXAI8Lf4LH9O7gCOAY6kHe9QWEp6RLQNv/O1MABImkf65vb46Eb6cBbpW/8Fs/2DCvMF4InAd6Mb6cMBwD9FNxHFACDpH0ibveTsftK3y6OAu4N7qcIi4DGkhYtPJG1UtC2wCbBOYF9VuR44jPS7NRbcy2zeQrpqURxfByyV7Rmk/fBzdh3wUtIe/m0yF9gT2Iv02NyOpJfTLGP2SX4V8BvSewquAH4N/Ih2vef+YeDdpDUa/0EKNzmaA5wC/Jh0e0nBfBugZT26qn4b4GNJb0yLPq6Z6qvkO3FMZXvgjaR7y3dQ/fm4DvgMcCzt2qFxB+Ay4n+fZqrvkW6HKZgBwLIeXVUHgP/K4Jhmqk/QjquUG5Mm5G+S9iRo6vw8ND7mscD6tR/l6BYDXyH+92qmeldtR6++GQAs69FVZQA4LoPjma7W0o7d2vYmPTnxAPHn7G7gY+T/6tv5wMeJP1/T1YPA/rUdvfpiALCsR1dVAWA74L4MjmeqWgW8pKLjrMuBpPckNPltv99aA5xGWmuQsxOIP1fT1W9o96uvW88AYFmPrioCwBzSG/6ij2Wqug94ZgXHWJedSZfco89TP/UQ8Elgs1rORDWOIy0UjD5XU1WxjwbmwABgWY+uKgLAn2ZwHFPVStLmPjlal3RLYjXx52nQugv4C/Jd3PbHpMvu0edpcj1IusWjAAYAy3p0jRoAlpB2aIs+jsl1J/DkEY+tLoeRHg2LPkej1o9IjyLmaDl5hoCf0o5FqENzIyCpHB8hv0fqVgJHkN8z/nOBtwPfIP+Fdf3Yl3SO/zi6kSmcQboytTa6kUn2At4a3USJvAJgWY+uUa4AHJZB/5PrfuDpIxxTXTYnTfzR56euOg1Yr7KzVZ1eCIg+PxPrPmCrOg86klcApO5bh/TtPydrgBcD3wnuY7JdSd+Uc16MOKpjSOc9twWCnyK/XSnXo8MLAjt9f6NF1pDvAijl45dD/ntvIk1suRgDXkv6lp2T/YBzSDskdt0+pC16nwVcFdzLRO8HtgCOj25kgpcDJwPnRzdSitJuAUh12Zy0Ejz6UurE+ptaj3g4zyPfvRHqrN8Bu1Vw/qo0l7SVcvS5mVgXk++TFJ1jAJCq8W/Ef3hOrE+T9iLIyaG08xG/qupW8ntCYD3gh8Sfm4n1mlqPWP+fAUAa3Q6k20vRH5y9+j6woNYjHtw+pCcRos9NdF0FLB3xXFZtCXAD8eemV9eRFmx3hosApe76O/J5t/wtwFGkQJKL7Ulb+i6ObiQDy0hrMjaObmSCm0mvgc7ld2ZL0u6FqplXAKTR7E4+26yuAQ6u93AHtiFwJfHnJrc6m/xu0byR+PPSq9uADeo9XBkApNGcTfyHZa/eUvOxDuOzxJ+XXOttI5zXuuT088pxEWunGACk4e1D/Idkr75Gft8oX0/8ecm5HiS98TAnGwJXE39uxkivXt6o3sNthmsApO55e3QD427nDy8fysUTgA9EN5G5+cB/ktckdw/wStJbDqNthGsBauUVAGk4O5HPvf8X1Hysg5pD2gEv+ry0pT401Fmu14nEn5cx0gLFdes91HIZAKThnEr8h+MY6Xn/3Lya+PPSpnoIeNJQZ7o+80lv6Ys+N2PAn9V8rMUyAEiD2wJ4gPgPxtvIbzvdTUiPIkafm7bVReR3q3hP8tjf4ipavp1+bj9YScN7I3lstPMm0v3/nJxA2hZZg9mH9IUsJ5cAH45ugrR3wvOjm+girwBIg1lAHt9wv1z3gQ7hMbjb3yh1Ofl9WVyP9A08+tx8s+4DrVNuP1RJwzmS+G+4a4C/DO5hKm/F3f5GsQvwougmJrmfPH7XDiO/9yj0zQAgdcProxsgPV53ZXQTk2wEvCG6iQ44gfz2c/gv4H+Ce5hDHn/2OsVbAFL/9iD+UujNpM1acnM88eemK5Xbds4Au5I2Loo8L3cD69d9oHXwCoDUfjm8pvRdpM1acnNsdAMdckx0A1O4nPToa6SNgJcF99ApXgGQ+jOf9O078hvQFeT5ONTuxH9rnqkeBK4Ffgb8AvgdsDaDvqaru8lz85ulpDUBkeemlYsBvQIgtduzgT8K7uFE8tiidbIcv7FeCbwPOIh02Xhr0mY7ewCPJ71p7rnAJ0hPdeRkI+CF0U1M4Sbg5OAeDiX9/FQBrwBI/fk8sd98LiPfLxIriP/W3KtfAS8esP8FpD0Vcni8s1dfHPAYmrIZ6RZU5LnJ8S2KrWQAkGa3EfGXPo+u/SiHsx3xk+UY6crIXzPaLZINgE9mcCxjwB3kG/hOIvbc/KL+QyyDAUCa3bHEfuBdQ573/gFeR/xkeQ/VvhDpdcSveB8D9q7wmKqUw1bYu9V+lBXKNclJml305iwfJM97/wCHBI+/irRJTJU7I36CPJ74ODS6gWncAJwR3EP0n8lO8AqANLN1gXuJ+6ZzF3nvrncjcedmLfXun/++wGMbA86p8dhGtTuxT1JcVP8hVscrAFI7HU7s5iOnkgJIjjYhPRoW5ePU+030ncCFNf7/z2bXwLFncynw7cDxn0yLngYwAEjtFHmpcQw4JXD82UTuzX4v8Pc1j/Ew6f0GYzWPM52tgUVBY/cj8ndzDnk+KjklA4DUPnNIz4pH+S5p859cRQaAk2jm+f0fEvfmxbnADkFj9+O/iH0ddWteEWwAkNpnD2I3//lE4Nj9iAoAY8CnGxzvUw2ONVnOb8B7ADgtcPynAgsDx++bAUBqn8hV2HcBXwocvx9R9/9/Clzf4HjfBO5rcLyJlgSN269PBo69HrB/4Ph9y/UZ3tIsJr1uU/V7P3BbdBMjOjxw7P8LrA4cvx9RTyd8teHxVgHnAc9reFzI882PE11O2phnj6DxDyXdKsuaASAPi0m7hal+n6bdAWA+aR/5KGcGjt2vqMkpYie4S4kJABsEjDmozxMXAA4D/jZo7L55C0Bql32Jm+BuJ/YRq35FTU43FjImtCMARIbVfcl7nwzAKwBS2zwlcOwvke/OfxOdAZwfMO61AWNG7cUQuQdFv34LXAzsFTD2OsA+pFs02TIASO2yX+DYZweOPYiPRDfQoKiJ+IGgcQd1DjEBANKf1awDgLcApHaJCgBryPzDrFBRTzxEPX0wqK8Hjr1v4Nh9MQBI7bEE2DJo7PPJd+vfkj0haNz7g8Yd1EWkVxhHyP5RQAOA1B6Rl/+/Fji2praItNo8wp1B4w7qYdJ+CRGWkvl7AQwAUns8KXBsL//n53DiVppHLHgcVuSTK1HrD/piAJDaI+otbCuJecZdM3tV4NjXBY49qAsCx875zYkGAKlFdgsa94ekS6nKx77ASwPHb9MVgF8T93KgXYLG7YsBQGqHdYDtg8b+ftC4mtoc0lsH5wSNfwPt2k1zDLgwaOyo0N4XA4DUDjsAC4LG/lHQuJraicDBgeP/OHDsYf0waNydyXiezbYxSY8QeSnxksCx9UgvJf7FYRcHjz+MqDUs6wNbBY09KwOA1A7Lgsa9HbgpaGw90muA/yTu0n9P5KK6YUUuYt0mcOwZGQCkdojaAMhv//HWJW1vfCpxt4F6VtLONSHXAXcHje0VAEkjiQoAlwWNq/T5fCTp3fZ/HtxLz7mkbaHb6NKgcbcOGndWvgxIaoeoD5Erg8Yt1TzSGx9fCLwE2Da2nUf5SnQDI/gt8NSAcaPC+6wMAFI7RH2IXBM0bttsCnx+hH9/PWATYDviL/NPZxXwhegmRrAiaNxsbwEYAKT8LQAeEzT2iqBx22YBaWveLvsS8PvoJkZwddC4WwSNOyvXAEj5ewxxK7/btOOb6vWZ6AZGtCJo3E2Dxp2VAUDK3yZB495Oe977rnpdSloA2GZR7y8wAEgaWtTl/zZt96p6nUTaUrfNon6fF5HWeGTHACDlL+obRNQLVJSX64EzopuowCrg/qCxs7wKYACQ8rdx0Lh3Bo2rvLwbeDC6iYrcETSuAUDSUNYPGjfqw1L5+Dnw2egmKhR1VctbAJKGEvVc+MqgcZWHMeCtwNroRioUtag1y70dDABS/qI+PNq65auq8WngvOgmKvZA0LgGAElDifrwiPqwVLybgL+KbqIGUaHWACBpKOsEjduVhV8azBjwWuCu6EZqEBVqFwaNOyO3As7DSuAd0U0U4tboBoZgAFCT/ol2v/RnJlFXAKL+DM/IAJCH+4B/jm5C2Yr60PLzoTzfBv4muokaGaYn8BaAlD8XLqkJVwBHAw9HN1KjqEvxWa6nMQBI+VsdNK4BoBw3Ac+i+7s/+kTNBAYAKX8GANXpbuAIynj1s1cAJjAASPlbFTTu4qBx1Zw7gWcCl0Q30pCoHfmyvALgIh8pf1FXAKLeQqhm3Aw8A7gsupEGPTZoXK8ASBpK1IeHAaC7fg7sR1mTP8QFgCz3VDAASPmL2pM/6sNS9foCcBBwXXQjDVuEL9Z6BAOAlL9bgsY1AHTLA6TtfY8i7qU4kaKuaD0A3Bs09oxcAyDl76agcTcjfWuKWoOg6vwSOAb4WXQjgbYMGve2oHFn5RUAKX93ELOKeA6wVcC4qs79wAnA3pQ9+QNsGzRulpf/wQAgtcEYcbcBoj40NbovArsA/4dMV6E3bJugcQ0AkkZyc9C42wSNq+GdS1rh/zLKW+g3k6gw+7ugcWflGgCpHaLWAWwfNK4Gswo4E/gwXuqfTtTv8oqgcWdlAJDaISoA7B40rvqzmvQq8dPI9FnzjDwhaNxrgsadlQFAaoeoDxEDQN7uJn3r18weR3qqJUK2AcA1AFI7/Cpo3MgPTqkqkUHWACBpJFEBALwKoPaL+h1+ELghaOxZGQCkdriauEe59gsaV6rK/kHj/gZ4OGjsWRkApHZ4GLgyaOwDg8aVqvKUoHEvDRq3LwYAqT2ibgM8BT8r1F7bA0uDxjYASKpEVADYBNg5aGxpVJFXsH4ROPasDABSe0S+u/2QwLGlUTwtcGyvAEiqxA8Dx3524NjSsOYQ97t7N3B90Nh9MQBI7XE9cR/Qh5exAAAKoklEQVQoh5BeDSy1yROJu///I9KLvLJlAJDa5QdB464PPDVobGlYkVeuvh84dl/cClhqlwuBo4PGfh7wzaCxc3cP8GcB494fMGabPDdw7OwDQK6Wky6dNF2nN3Fw0gj2IebPxhhwI141VHs8nrR/RsSflQeBxfUf4mj8wyy1y8+J+9a3FDcFUnscRdwc9zPg3qCx++YtgEdaAhwe3YQ0i+uIey7/aOB7QWNLgzgycOxWXP6fE93ANJbj5XgpRzcDWwIPRTcizWBb4Cri5rgjgK8Hjd03bwFIGsQS4DnRTUizeDVxk/8q4PygsQdiAJA0qNdGNyDNYC7wqsDxv0NLns4wAEga1BHAVtFNSNOI/v38WuDYAzEASBrUPNIlVilH0Veosr/332MAkDSM44CF0U1Ik2xH2rAqyhXAlYHjD8QAIGkYS4A/jm5CmuStpCtUUT4fOPbADACShvU2/AxRPjYldvEfwJnB4w/EP7yShrUzviZY+Xgj6aVVUS4HLgscf2AGAEmj+Dvy3VBM5dgIOD64h1Zd/ge3ApY0mieT3rh2TnQjwRaSHj9r2mpatOq8Rm8h3QKI1KrL/5BvcncrYKk9LiYFgbHoRgItAW4KGPeW8bFLtjFwzfhfo1wE7Bc4/lC8BSBpVHsBL4luQsV6O7GTP8ApweMPxQAgqQrvAxZFN6HibAW8ObiHe2nh/X8wAEiqxjLgL6KbUHE+AKwX3MPpwMrgHoZiAJBUlXcBS6ObUDEOIo9bT628/A8GAEnV2QD4p+gmVIT5wL8Sv5D9Z8CPg3sYmgFAUpVeBTwzugl13tuAPaKbAN4f3cAoDACSqnYysDi6CXXWDsAJ0U0AvwPOim5iFAYASVXbBjgxuAd10xzg48C60Y0AHwQejG5iFAYASXU4nrRIS6rSG4DDopsAfg+cGt3EqAwAkuowD/gP0h7tUhV2A06KbmLcJ4B7opsYlQFAUl22AT4W3YQ6YSHwOfK49H8f8C/RTVTBACCpTq8cL2kU7wX2jG5i3EdJ72BoPQOApLp9AnhSdBNqrReRzy6T95DPbYiRGQAk1W1d0qtSo1/YovbZCfh34jf86fkgcGd0E1UxAEhqwvbk9UGu/G0I/Pf4X3NwJykAdIYBQFJTXgD8Q3QTaoX5pJfs7BTdyATvIT3+1xkGAElNeifw+ugmlL0PAc+JbmKCX5PePdAp86MbmMbNwLnRTUgdsRn5rKAG+DBwNfCN6EaUpbcBb4xuYpK30vJd/ySVaT3gGmAso/o9sHedB92wJcScx5ubOLgGvRx4mPjfz4n1lVqPWJJq9lziP0gn123AE+o86AYZAEb3QmAN8b+XE2sNsHOdBy1JTTiL+A/UyXUL3fiANQCM5jBgFfG/j5PLRauSOuFxpEvv0R+qk+taYFmNx90EA8DwnkbaXjf693By/QZYVONxS1Kj/pz4D9ap6ibafTvAADCcI4D7if/9m1xryeOtg5JUmbnAhcR/wE5VdwD71HfotTIADO755HnZfww4ucbjlqQwewKrif+QnaruBA6q79BrYwAYzJ+QHquL/n2bqm7EbaslddhfEv9BO12tBl5R36HXwgDQnznAiaRL7NG/Z1PVWtITM5LUWXNIzzdHf+DO9EF8Yl0HXwMDwOwWAKcR/7s1U3Vqr39Jms5S4FbiP3RnqlOBhXWdgAoZAGa2OfAd4n+fZqpLKGzVv2/mksp2BOlKQM6fBRcDLwVWBPcxk42BzwSMexfw6oBxB7E38EVg6+hGZrAa2A/4RXQjktSkjxH/7Wu2uhU4tK4ToNocR74LTifWG+o6AZKUs3VJ33yiP4Rnq4dIr2TN9SVm+oONgTOI/53ppz5b0zmQpFbYhvzXA/TqImCHWs6CqrA/cBXxvyf91CWkl2VJUtEOJd9nsyfXSuC15L12oTSLgH8kXamJ/v3op+4EtqvlTEhSC+W6VfB0dT7deJlQ2x0IXE7870O/9TA+7y9Jj3IK8R/Qg9T9wNuBdeo4GZrRRsDHyXdjn+nqHXWcDElqu3XI/5ntqeo3+K2uKXOBY0n7EET/3AetU2s4H5LUGZsD1xD/YT1MnQ3sWP0p0biDSXszRP+ch6mv41MkkjSrHWjnN7wxYA3p0vTjKz8r5doT+G/if7bD1iXAhpWfFUnqqCeSdpuL/vAetlYBHyJt1avh7AqcSfvu80+sazEMStLADgLuI/5DfJS6D/hXYPuKz02XHQB8gbRiPvrnN0rdhPtGSNLQjiBdVo/+MB+1HibtS39gtaenM+YBLwIuIP5nVUXdDuxe6RmSpAK9hPZs8tJPXU56fPCxVZ6kltqCdC6uIf7nUlX9HtinypMkSSV7Dd0KAWOkfQROA55FWSvEFwMvB75K+y/zT657gadWd6okSQDL6cbtgKnqNuBk0rbI86o6YRlZD3gZcBbtX9cxXd0FPKWqEyZJeqTnkr45R3/Y11krSXsKvI52ryBfRjqGM0nHFH1e66w7gH2rOW3d54s0JA3rUNJz4YujG2nAGHAZ8D3gB6RFcteGdjS1OaTH9g4cr4NJb3oswY3AM0hrO9QHA4CkUexPuoe8SXQjAW4AfgZcStpk5lLgStIbFZuwLmmy34O00n0PYC/K/FlcQ5r8r4pupE0MAJJG9UTga7jZDqTFdL8jTUgrxutW0uNot5EuUd8H3E26qrBm/D9D2qVuHmkh4gakF+1sBjxmvJYA25K+0W8LLK39aNrhIuAFwC3RjUhSibYAfkz8PWCrrPoSaWGjJCnQIuBzxE8KVhn1YdJbCSVJGZgDvId27xtv5V1rgDcgScrSUXT3OXMrrm4FDkGSlLV9geuJnzSsbtT3cOGjJLXGRsAZxE8eVrvrZGABkqTWORZvCViD192k9xVIklpsV9KGOdGTitWO+jbt3oJZkjTBItLjW9GTi5VvPQicSDdfxiRJxXshace86MnGyqsuAfZGktRp6wPvBR4ifuKxYmsN6XfBhX6SVJADSC/SiZ6ErJi6ANgFSVKRFgDvBlYRPyFZzdRtwGvxpXSSJGBH4GziJyervloDfIgyX1ssSZrFAaRLw9GTlVVtnQs8AUmSZjAHOBq4iviJyxqtfg48B0mSBrAO8DrgZuInMmuwupy0C6TP9EuShrYh8HbgJuInNmvmuhJ4JU78kqQKLSStHr+C+InOemRdDLwCmD/tT0+SpBHNBZ4PXEj8xFd6XTD+s/CRPklSow4BzgIeIH4yLKVWAqfgqn5JUgY2IS0Y/DnxE2RX6yfj53iDPn8mkiQ16gDSN9R7iJ802163Ah8F9hzoJyBJUqDFpBXpXwDuJX4ybUvdQQpQz8DV/JKklluXtFjtk6RvtdGTbG51A3AqcARp/wV1mCs2JZVqHnAg8ELgcNJitrmhHTXvQeAHwNfH6xJSEFABDACSlGxCCgQHA08F9qZ734JXkxbxXQB8HziftEZCBTIASNLU1gf2Bw4C9gB2B5bRnvvhD5E2S7oU+Clpwv8p6VFJyQAgSQNYF9iFdLtgN1Io2AXYgrirBSuBFcA1pAn/MtKk/0uc7DUDA4AkjW4OsDmwlBQGen993HgtAjYirTHYePyf32T8rxuP/3/cAzxM+ua+csJ/dxtwO2lVfq9uJk34K8b/N2lg/w/NybXGaofJVgAAAABJRU5ErkJggg==;rotation=0;" vertex="1" parent="250">
                    <mxGeometry x="426" y="11" width="28" height="28" as="geometry"/>
                </mxCell>
                <mxCell id="253" value="" style="shape=image;verticalLabelPosition=bottom;labelBackgroundColor=default;verticalAlign=top;aspect=fixed;imageAspect=0;image=data:image/png,iVBORw0KGgoAAAANSUhEUgAAAgAAAAIACAYAAAD0eNT6AAAABHNCSVQICAgIfAhkiAAAAAlwSFlzAAAOxAAADsQBlSsOGwAAABl0RVh0U29mdHdhcmUAd3d3Lmlua3NjYXBlLm9yZ5vuPBoAABRjSURBVHic7d1HtKVVmQbgFy1UFAqVYLcChQlp1FaCOYCh24QJzAojZerQqUOnDGlntBEwa7epbTGjYmoxB0TbAKgUKGbtwaWwxaLurbv3Pfs/+3uetb61mNV/9jnn/9/1fndxEqCiuyS5KMnFSe42+FoAgBU4OclXkvzllvl6kocOvSIAYEedl+RX+evDf9/cnORVA68LANgBd0lyYf7+wX/bsRIAgEk8KMmXs/nD30oAACZxXpKbsvWHv5UAAKyxrVb+VgIAMImDrfy3shJ4yEpfAQBwUF6R7VX+W1kJvHKFrwMA2IJelb+VAACsid6V/2bztVgJAMBQO1X5WwkAwAKtqvLfykrgrjv8WgGAJCcl+VLGP/ytBABgRc5NckPGP/RvOzclefkOvm4AKGkplb+VAACsyNIq/83mqiQP3pGTAIAizskyK/+trARetgPnAQBTW5fKf7OxEgCALTopyRcz/uHda6wEAGAT5yT5ZcY/tHvPjbESAIC/c+fMUflvNlYCAHCLB2auyn+zuSrJKV1ODgDW1PMzZ+W/2dyY5KUdzg8A1kqVyn+zsRIAoIwTk1yR8Q/fpcwXsrEGAYBpVa38NxsrAQCmpPLf2lgJADCNPUk+k/EP13WZLyR5wLZOGgAW4nlR+W9nbkzykm2cNwAMpfLvMxcnOewgzx4AhtgTlX/PsRIAYPGel+QXGf/QnG2sBABYJJX/asZKAIDF2JPk0xn/cKwyV8ZKAIDBVP5jZm+SF2/h/QGArg5N8rokf874h2HluSgb6xcA2HH3S/K5jH/4tc43bpnR19E6n7vlPQGAHfPczFH5X5bkyCSHJ3nDAq6ndawEANgRuzJH5f+bJK/ez+s7P8mvF3B9rWMlAEA3J2SOv/L/ZpKHHeB1npLkqwu4zta5Msn9D/A6AWBTs1T+b8tG5b+Zw5O8cQHX2zp7k7xoC68XAP7G7JX/ZmZaCdxpG68fgIJOSPKpjH94tc63kjy84RxOSXLVAl5H63w+VgIAbOI5SX6e8Q+t1nlbkrt3OI8jkrxpAa+ndfYmeWGH8wBgMrNU/r/N9ir/zVgJADAdlf/WzLQS8D8OAihulsr/7elT+W/GSgCAtabyb2MlAMDaOT7JJzP+4dM630/yyM5nczBOzcbaYfQ5tI7fEgAo4NlR+fd0RJI3Z/x5tM7eJC/ofDYALMCuJK9N8qeMf9i0zKjKfzPnJ7k548+nZf6c5MJYCQBMY5bK/+okj+p7NF2dmuTbGX9OrWMlADCBWSr/d2QZlf9mZlkJ3BArAYC1pPIfy0oAgJU7PsknMv4B0jpXZ9mV/2ZmWgnct/PZANDZ2Zmn8r9H57MZwUoAgB2l8l82KwEAujsu81T+j+57NItyWuZYCXw2VgIAw52d5PqMfyi0zjszR+W/md1J3pLx5906NyQ5t/PZALAFs1T+v0/ymiSHdD2d5bsgG+uO0effMlYCACs2S+X/g8xd+W/mtCTfyfj3oXWsBABW4KlJfprxN/3WqVL5b2aWlcD1SZ7V+WwAyDyV/x9Ss/LfzEwrgUM7nw1AWccl+XjG3+Bbp3rlvxkrAQBu9ZTMUfm/Kyr/rdid5K0Z/361zvVJntn5bABKUPnXdkGS32X8+9cyVgIAB2mmyv8xnc+mktMzx0rgiiQn9j0agPnMVPnfs/PZVLQ7ySUZ/362znWxEgDYL5U/B2IlADCh+yT5WMbfoFtH5b+zTk/y3Yx/n1vHSgAgG5X/TzL+ptw6Kv/VsBIAWHN3zDyV/2uj8l+lQ7Lxk8lWAgBr5l5JPpTxN+DWuSbJYzufDVt3RuZYCVyejTUYwNSenDkq/3dH5b8ERya5NOM/D61zXZJndD4bgEWYrfK/Q8/DoYmVAMBCHRuVPzvPSgBgQVT+rJKVAMBgKn9GsRIAGOTYJB/M+Bto61yT5HGdz4bVOSPJ9zL+c9Q6lye5d+ezAejuSUl+nPE3zdZ5T5KjOp8Nq3dkkssy/vPUOtcmeXrnswHoYl/l/8eMv1m2jMp/PlYCADtklsr/h1H5z+wRmWMl8NFYCQALoPJnnVgJADS6QzZ+9lblz7qZaSXwumys3wBW4tgkH8j4G2DrqPxrsxIAOAhnZY7K/0PZ+FEiajsqyXsz/vPYOtcmeVrnswFIslGbqvyZ0b6VwO8z/vPZMlYCQHfHZJ7K//Gdz4Z5PDLJ9zP+c9o6/x0rAaCDszJH5f/hqPzZ3FFJ3pfxn9fWsRIAtk3lT1VWAkBZxyR5f8bfwFpH5U+LmVYC/9j5bIAJnRWVP+xzdOZZCfxr57MBJqHyh/2zEgCmNUvl/6MkT+h8NrCPlQAwlTOT/G/G35Ra57+S/EPns4HbOjrJf2T85711fhYrAShrlsr/j1H5s1qzrAT+FCsBKOeYJP+Z8Teg1vlpkqd2PhvYqidmY+00+nvQOh+JlQCUcGZU/tDLTCuBf+l8NsBCzFJbqvxZmtm+W1YCMJFZKv+fReXPclkJAIvyxMxR+X8kKn+W7+jME7atBGBNzVZLqvxZF757wDD+MAnGm6V98we3sCbsIWE5/P0NsONmqx39JTKzmO27aSUAC6Lyh+U7M1YCQEcqf1gfs6wE/F84YaBZakU/UUo1focD2Lajk7wv428AreMXyajszMyxEvhwrARgJfwmOczjmCTvz/jvY+v8KMkTOp8NcAuVP8xplpXAH2IlAN3NUvlfG5U/3J6zkvw447+nrfPhJPfqezRQk8of6phlJfDDJI/vfDZQhsofarISgMKOyjyV/9M6nw1UcVasBKCURyT5XsZ/aVvno0nu3fdooJxjknwg47/PrWMlAAeg8gf2x0oAJnZUkvdm/Be0dVT+sHOelDlWAh+KlQAkUfkDW3ds5lkJPK7z2cDa2Ff5/y7jv4wt8+ckFybZ1fd4gNtxx2xU6VYCsIaOTHJZxn8BW+faJE/vfDbA1syyEnhPNtagMD2VP9DLsUk+mPH3g9axEmBqs1X+h/Y9HmCb9q0E/pTx94eWsRJgSkcmuTTjv2Ctc11U/rBUT0ryk4y/T7TOe5Lcs/PZwBBnZI7K//Ko/GHpZlkJXBMrAdaYyh8YwUoABpqp8n9G57MBVuPJmWMl8O5YCbAmzkjy3Yz/0rTO5Unu0/lsgNU6Nhv/573R95PWuSbJYzufDXSj8geWyEoAdtDuqPyBZbMSgM5mqfw/FpU/zO5esRKALi6Iyh9YLzOtBF6TjfUrrMzuJJdk/Begda5L8szOZwOsh6dkjpXAu2IlwIqcnjkq/yuSnNj3aIA1c59srP9G349a5wdJHtP5bOBvqPyB2eyKlQDcLpU/MLunJPlpxt+nWsdKgG5OT/KdjP9Qt47KH9jMcUk+nvH3q9axEqCZyh+oxkqA0nYneWvGf4Bb5/okz+p8NkANT80cK4F3JrlH57NhUqdljsr/s0nu2/lsgFpmWgk8uvPZMJkLkvw24z+sLaPyB3qyEmBqu5O8JeM/oK2j8gd2ipUA01H5A2zNcUk+kfH3u9axEmCqyv9Onc8GYH9mWQn8PlYCJc1S+d+Q5NzOZwOwFWdnY+04+j7YOu+IlUAZpyX5dsZ/6FpH5Q+MdnzmWAlcHSuB6Z2f5OaM/7C1jMofWJJZVgK/TfLqvkfDEhyR5M0Z/wFrnRuSvKDz2QD0cHaSn2f8fbJ1rAQmcmrmqPw/F5U/sGwzrQQe1fdoWDWVP8BqWQkwlMofYKxnZ56VwN07nw07ZKbK/36dzwZglY5P8smMv5+2ztWxEli885P8OuM/LC2j8gdmYiXAjjoiyZsy/gPSOnuTvLDz2QAswSwrgbfHSmAxTk3yrYz/ULSOyh+Y3Swrge8neWTns+EgzVD5/yXJRVH5AzXsSvK6bKw7R997W8ZKYBCVP8B6e06sBDhIpyS5KuPf9Nb5fFT+QG0nJPlUxt+PW+dbSR7e+Wy4DZU/wFysBDigI5K8MePf4NbZm+RFnc8GYAbPSfKLjL9Pt87bYiXQzSlJvprxb2rrfD7J/TufDcBMZlkJfDNWAs1U/gC1zLIS+E2sBLbl8Kj8ASp7buZZCRzZ+WymNUvlf2VU/gAtTkjy6Yy/n7fON5M8rPPZTGemyv/Onc8GoCIrgckdnuQNGf8Gtc7eJC/ufDYAzLMSuCxWArf6pyT/k/FvSutcmeQBnc8GgL/aEyuBaaj8ATgYh8ZKYK0dluT1Gf8GtI7KH2CM52WOlcC/Z2MNXoLKH4Ae9mSOlcA3kvxz57NZnPOT/CrjD7t1Ls5GiwHAWHdOcmHGPxdaZ9qVwCyV/41JXtL5bABoZyWwQCdnjsr/C1H5AyzZniSfyfjnRetMsRJQ+QOwSlYCgx2W5N8y/gBbR+UPsJ6en+SXGf8caZ2Ls0YrgZOTfCXjD611VP4A621PrARWZqbK/66dzwaA1bMS2GEzVf4v7Xw2AIw300rgbp3PZttmqvwf2PlsAFiOE5NckfHPm9b5epKH9j2ag6fyB2CdzLQSuKDz2WzJXTLHAar8AWqyEtiGWSr/q5I8uPPZALA+Hpjkixn/PGqdlawEzovKH4B5zNJo35zkVZ3PJsk8B3Rjkpd1PhsA1t85sRL4Ow9K8uUFvKjWUfkDcCAnxUrgVucluWkBL6Z1VP4AbMUsjfe2VwKzHMBNUfkDcPDOSXJDxj/HWuegVgKzVP5fi8ofgO07KcmXMv551jpfT/KQzV7sK6LyB4B9ZmnEb07yyplf4E1JXr6/FwgADc7NhCuBmSr/TSsOANimWVYCtz4vZ6j8X5+NXyQEgJ10WDaeOaOfe61zUxZwES1zuzsNANhBM/zN3PAL2O6o/AEYad1X6MMvYDuz0l8/AoDbsc5/RD/8Ag5mVP4ALNE6rgSGX8BWZ0v/IwMAGGTdVgLDL2Aro/IHYB2s00pg+AUcaHbs940BYAetw4/pDb+A25suP2cIAIMsfSUw/AL2Nyp/AGaw5JXA8Av4/6PyB2BG5yX5VcY/ZxcZAFT+AMzs5CRfyfjn7aICgMofgAoOS3JRxj93hweA3yR5ddtZAsDaOT/jVwLD/mGVPwCVDV0JHHLLf4xweJJfD/q3AWAJ7paNJmDlRgaAQwb9uwCwJEOew3cY8Y8CAGMJAABQkAAAAAUJAABQkAAAAAUJAABQkAAAAAUJAABQkAAAAAUJAABQkAAAAAUJAABQkAAAAAUJAABQkAAAAAUJAABQkAAAAAUJAABQkAAAAAUJAABQkAAAAAUJAABQkAAAAAUJAABQkAAAAAUJAABQkAAAAAUJAABQkAAAAAUJAABQkAAAAAUJAABQkAAAAAUJAABQkAAAAAUJAABQkAAAAAUJAABQkAAAAAUJAABQkAAAAAUJAABQkAAAAAUJAABQkAAAAAUJAABQkAAAAAUJAABQkAAAAAUJAABQkAAAAAUJAABQkAAAAAUJAABQkAAAAAUJAABQkAAAAAUJAABQkAAAAAUJAABQkAAAAAUJAABQkAAAAAXtGn0BlPfCJJeMvggY4EVJLh19EdSlAQCAggQAAChIAACAggQAAChIAACAggQAAChIAACAggQAAChIAACAggQAAChIAACAggQAAChIAACAggQAAChIAACAggQAAChIAACAggQAAChIAACAggQAAChIAACAggQAAChIAACAggQAAChIAACAggQAAChIAACAggQAAChIAACAggQAqro0ySHGZOOzAOUIAABQkAAAAAUJAABQkAAAAAUJAABQkAAAAAUJAABQkAAAAAUJAABQkAAAAAUJAABQkAAAAAUJAABQkAAAAAUJAABQkAAAAAUJAABQkAAAAAUJAABQkAAAAAUJAABQkAAAAAUJAABQkAAAAAUJAABQkAAAAAUJAABQkAAAAAUJAABQkAAAAAUJAABQkAAAAAUJAABQkAAAAAUJAABQkAAAAAUJAABQkAAAAAUJAABQkAAAAAUJAABQkAAAAAUJAABQkAAAAAUJAABQkAAAAAUJAABQkAAAAAUJAABQkAAAAAUJAABQkAAAAAUJAABQkAAAAAUJAABQkAAAAAUJAABQkAAAAAUJAABQkAAAAAUJAABQkAAAAAUJAABQkAAAAAUJAABQkAAAAAUJAABQkAAAAAUJAABQkAAAAAUJAABQkAAAAAUJAABQkAAAAAUJAABQkAAAAAUJAABQkAAAAAUJAABQkAAAAAUJAABQkAAAAAUJAABQkAAAAAUJAABQkAAAAAUJAABQkAAAAAUJAABQkAAAAAUJAABQkAAAAAUJAABQkAAAAAUJAABQkAAAAAUJAABQkAAAAAUJAABQkAAAAAUJAABQkAAAAAUJAABQkAAAAAUJAABQkAAAAAUJAABQkAAAAAUJAABQkAAAAAUJAABQkAAAAAUJAABQkAAAAAUJAABQkAAAAAUJAABQkAAAAAUJAABQkAAAAAUJAABQkAAAAAUJAABQkAAAAAUJAABQkAAAAAUJAABQkAAAAAUJAABQkAAAAAUJAABQkAAAAAUJAABQkAAAAAUJAABQkAAAAAUJAABQkAAAAAUJAABQkAAAAAUJAABQkAAAAAUJAABQkAAAAAUJAABQkAAAAAUJAABQkAAAAAUJAABQkAAAAAUJAABQkAAAAAUJAABQkAAAAAUJAABQkAAAAAUJAABQkAAAAAUJAABQkAAAAAUJAABQkAAAAAUJAABQkAAAAAUJAABQkAAAAAUJAABQkAAAAAUJAABQkAAAAAUJAABQkAAAAAUJAABQkAAAAAUJAABQkAAAAAUJAABQkAAAAAUJAABQ0K6B//ZfBv7bAKNdMvoCqE0DAAAFCQAAUJAAAAAFCQAAUJAAAAAFCQAAUJAAAAAFCQAAUJAAAAAFCQAAUJAAAAAFCQAAUJAAAAAFCQAAUJAAAAAFCQAAUJAAAAAFCQAAUJAAAAAFCQAAUJAAAAAFCQAAUJAAAAAFCQAAUJAAAAAFCQAAUJAAAAAFCQAAUJAAAAAF/R+v+R/sqbIfjQAAAABJRU5ErkJggg==;rotation=0;" vertex="1" parent="250">
                    <mxGeometry x="220" y="11" width="28" height="28" as="geometry"/>
                </mxCell>
                <mxCell id="254" value="" style="shape=image;verticalLabelPosition=bottom;labelBackgroundColor=default;verticalAlign=top;aspect=fixed;imageAspect=0;image=data:image/png,iVBORw0KGgoAAAANSUhEUgAAAgAAAAIACAYAAAD0eNT6AAAABHNCSVQICAgIfAhkiAAAAAlwSFlzAAAN1wAADdcBQiibeAAAABl0RVh0U29mdHdhcmUAd3d3Lmlua3NjYXBlLm9yZ5vuPBoAACAASURBVHic7d170G13Xd/x9y+QBCSAhICSAakQQDtQhFEbsSqB6hgxgNwqI7bc5CK2KnQshHAJJMSpiqJiwlWd4ohyqRCc2FYTsAKxWpHKiFwVySSCEMAkAich3/6x9z48OXkuez97rfX9/dbv/Zo5EwjnPOtnPCfvz7P2rUQEktSbUsppwGuAH42IK7LPI03tuOwDSNLUlvG/DHgwcFkp5a65J5Km5wCQ1JUd8V9F/zQcAeqQA0BSN3aJ/4ojQN1xAEjqwj7xX3EEqCsOAEmzt0b8VxwB6oYDQNKsbRD/FUeAuuAAkDRbh4j/iiNAs+cAkDRLW8R/xRGgWXMASJqdAeK/4gjQbDkAJM3KgPFfcQRolhwAkmZjhPivOAI0Ow4ASbMwYvxXHAGaFQeApOZNEP8VR4BmwwEgqWkTxn/FEaBZcABIalZC/FccAWqeA0BSkxLjv+IIUNMcAJKaU0H8VxwBapYDQFJTKor/iiNATXIASGpGhfFfcQSoOQ4ASU2oOP4rjgA1xQEgqXoNxH/FEaBmOAAkVa2h+K84AtQEB4CkajUY/xVHgKrnAJBUpYbjv+IIUNUcAJKqM4P4rzgCVC0HgKSqzCj+K44AVckBIKkaM4z/iiNA1XEASKrCjOO/4ghQVRwAktJ1EP8VR4Cq4QCQlKqj+K84AlQFB4CkNB3Gf8URoHQOAEkpOo7/iiNAqRwAkiZn/I9yBCiNA0DSpIz/zTgClMIBIGkyxn9PjgBNzgEgaRLG/0COAE3KASBpdMZ/bY4ATcYBIGlUxn9jjgBNwgEgaTTG/9AcARqdA0DSKIz/1hwBGpUDQNLgjP9gHAEajQNA0qAain8Ab8s+xBocARqFA0DSYBqL/7Mi4pHA87IPswZHgAbnAJA0iAbjfyFARPwsjgB1yAEgaWutxv/o31yMgLNzjrQRR4AG4wCQtJXW43/0f4y4AEeAOuIAkHRoc4n/0Z/kCFBHHACSDmVu8T/6kxcj4PnjHmkQjgBtxQEgaWNzjf/RXxTxMhwBmjkHgKSNzD3+R3+xI0Az5wCQtLZe4n/0iyxGwDnDHGlUjgBtzAEgaS29xf/oF4s4H0eAZsgBIOlAvcb/6BddjIAXDPk1R+II0NocAJL21Xv8j37xiPNwBGhGHACS9mT8j7mII0Az4gCQtCvjv8fFFiPghVNca0uOAO3LASDpZoz/AReNeCmOADXOASDpJoz/mhd3BKhxDgBJRxn/DQ+xGAEvyjzDmhwBuhkHgCTA+B9WRLwER4Aa5ACQZPy35AhQixwAUueM/zCWI+DF2edYgyNAgANA6prxH1ZEnEs7I+Ap2YdQrhIR2WeQlMD4j6eU8hfAA7LPsY+LgB8PA9A17wBIHTL+4ymlPIS64/8qjL/wDoDUHeM/nlLKccBfAPfPPsseXg08w/gLvAMgdcX4j+5JGH81wjsAUieM/7hKKScBHwG+Pvssu3gN8HTjr528AyB1wPhP4nnUGf/XYvy1C+8ASDNn/MdXSvkG4EPArbLPcozXAk8z/tqNdwCkGTP+k/lZ6ov/6zD+2od3AKSZMv7TKKWcDrwHKNln2eH1wFONv/bjHQBphoz/pF6O8VeDvAMgzYzxn04p5Qzg0uxz7HAJ8IMRcWP2QVQ/7wBIM2L8J/fk7APs8EHgh42/1uUdAGkmjP+0Sim3B64Cbp19FuBq4F9HxEezD6J2eAdAmgHjn+Lx1BH/G4DHGX9tygEgNc74p6nl43R/KiL+KPsQao8PAUgNM/45Sin3A/5f9jmAiyLimdmHUJu8AyA1yvinquG7/3cC/yn7EGqXdwCkBhn/PKWUE4ArgTsmHuMI8E0R8beJZ1DjvAMgNcb4p3sEufEHeLXx17a8AyA1xPjnK6VcAnx/4hGuA+4ZEZ9KPINmwDsAUiOMf75Syh2B70s+xi8afw3BASA1wPhX43Ry/735WeDnEq+vGXEASJUz/lX5juTrvywi/in5DJoJB4BUMeNfncwB8Eng1xKvr5lxAEiVMv51KaUcB3xb4hHOjYgvJV5fM+OrAKQKGf/6lFL+FfD+pMt/CTglIq5Lur5myDsAUmWMf7Uyb///kfHX0BwAUkWMf9UyB8DbE6+tmXIASJUw/tXLGgABvCPp2poxB4BUAeNft1LKycC9ky7/fyPiyqRra8YcAFIy49+E0xOv7e1/jcIBICUy/s24b+K1HQAahQNASmL8m5L16X9/HxFZLz3UzDkApATGvzmnJF330qTrqgMOAGlixr9JWXcAPpl0XXXAASBNyPg3K2sA+Ox/jcYBIE3E+DfNAaDZcQBIEzD+zct6DsBVSddVBxwA0siMf9tKKQU4Oeny3gHQaBwA0oiM/yzcHrhFwnVvBD6VcF11wgEgjcT4z0bW4///GBE3JF1bHXAASCMw/rOS9fi/t/81KgeANDDjPzu3Tbru55Ouq044AKQBGf9Zui7pundOuq464QCQBmL8Z+uapOuemnRddcIBIA3A+M/atUnXvUMp5VZJ11YHHADSloz/7GXdAQC4S+K1NXMOAGkLxr8LmQPAhwE0GgeAdEjGvw8RcQQ4knR5B4BG4wCQDsH4dyfreQAOAI3GASBtyPh36Yqk6/ocAI3GASBtwPh368NJ171n0nXVAQeAtCbj37WsAfC9pZTjk66tmXMASGsw/t37SNJ1bw98V9K1NXMOAOkAxl/k3QEAeHjitTVjDgBpH8ZfSw4AzY4DQNqD8ddKRHwG+FzS5b+xlHLfpGtrxhwA0i6Mv3bxgcRrexdAg3MASMcw/trDHyde2wGgwTkApB2Mv/bxrsRrf3sp5esSr68ZcgBIS8ZfB3gPcH3StQvwH5OurZkqEZF9Bimd8dc6SinvAb4j6fLXAfeMiE8lXV8z4x0Adc/4awPvTLz2bYAXJF5fM+MAUNeMvzaU+TwAgKeVUu6RfAbNhANA3TL+OoR3A19OvP7xwEsTrz8bZeFFpZTa//yPxgGgLhl/HUZEXAtcnHyMx5dS7p98hqaVUgrwa8CLgct6HQEOAHXH+GtLb0i+fgFelnyGZi3jfyHwjOXfOo1OR4CvAlBXjL+2VUo5AbgKODn5KN8TEZlvTtScZfwvAp62y//8UeCMiLhi2lPl8Q6AumH8NYSIOAL8TvY5gDf45kDrOyD+0OGdAAeAumD8NbDshwEA7ga8tZRyYvZBareM/6vYO/4rXY0AB4Bmz/hraBHxHuDj2ecAHsTiu1rtYRn/VwM/tuYv6WYEOAA0a8ZfI/qN7AMsPbGU8pzsQ9RoR/yfuuEv7WIE+CRAzZbx15hKKXcEPsHiHfqy3Qj8YERckn2QWizj/xrgKVt8mVk/MdA7AJol46+xRcRnWXx3WYPjgDeWUr45+yA1WMb/tWwXf5j5nQDvAGh2jL+msgzDx4ATss+y9FHg9OU46VIp5TgW3/k/ecAvO8s7Ad4B0KwYf01pGYQaXhGwchpwea93AkoptwPewbDxh5neCfAOgGbD+CtDKeXewAep6xuqfwJ+uKfnBCz//L8dGHP8zOpOQE2/YaVDM/7KEhEfBt6afY5j3A54Ry+vDiilPBT4U8aNP8zsToB3ANQ8469spZR/CbwfuGX2WXbxG8AzIiLzUwxHU0p5FvBLTPvPfhZ3ArwDoKYZf9UgIv4aeEX2OfbwRODSub1tcCnl+FLKhcCvMv3wmsWdAO8AqFnGXzUppdwW+Bvg1Oyz7OGTwBPm8AFCpZRvBF4PPDj5KE3fCfAOgJpk/FWbiLgGqPkx97sB7yqlXFxKuV/2YQ6jlHKnUsorWAytBycfBxq/E+AdADXH+KtmpZRLgTOyz3GAG1m8fPGFEfGJ7MMcpJRyEotx9RzgtsnH2U2TdwIcAGqK8Vftlk8I/Evg+OyzrOHLwIXA+RHxmezDHKuUcgLwdOAc4M7JxzlIcyPAhwDUDOOvFiyfEPjz2edY04nATwEfK6W8oJRycvaBAEopJ5ZSfoTF+yv8MvXHHxp8OMA7AGqC8R9eKeVfAM8HfmKuLxHLUkq5JfC/gdOzz7KhrwDvBi4GLo6ID0114VLKnYGHAWcB3wucNNW1B9bMnQAHgKpn/Ie3jP87gbsDfwA80hEwrOU/4/cBX5t7kq18hOUYAP4kIm4Y8osvn4x41vLHtzOfu9JNjAAHgKpm/Id3TPxXHAEjKKU8CnhL9jkG8nngD1l8+NFVwJU7flwVEV869hcs74R8HYuXRt5l+ddTWbwi4Qxu+ntwbqofAQ4AVcv4D2+P+K84AkZQSvlV4FnZ55jA51iMgU+zuOtxKnAn5vNd/WFUPQIcAKqS8R/eAfFfuQT4IUfAcEopJwKXA9+SfRalqHYE9LzMVCnjP7w14w9wJvDfl9HSAJZj6nHA1dlnUYpqXx3gAFBVjP/wNoj/iiNgYBHxERbPcP/n7LMoRZUjwAGgahj/4R0i/itnAm91BAwnIi4HHgNcn30WpahuBDgAVAXjP7wt4r/yAzgCBhURlwBPYvH7SP2pagQ4AJTO+A9vgPivOAIGFhG/Bfx09jmUppoR4ABQKuM/vAHjv+IIGFhEvAI4P/scSlPFCHAAKI3xH94I8V/5AeAtyw9n0QAi4hwcAT1LHwG+D4BSGP/hjRj/nX4feFREHBnxGl0ppfwk8ItAyT6LUqS9T4ADQJMz/sObKP4rjoCBLT/57tdp4yOENbyUEeAA0KSM//Amjv/KO4BHOwKGU0o5E3gz8DXZZ1GKyUeAA0CTMf7DS4r/iiNgYKWU01ncYTk5+yxKMekI8EmAmoTxH15y/AF+EJ8YOKjlmwWdDvxl9lmUYtInBjoANDrjP7wK4r/iCBjY8m2DTwdemX0WpZhsBPgQgEZl/IdXUfx3uhh4jA8HDKuU8ijgdSw+Xld9Gf3hAAeARmP8h1dp/FccASNY/v/8t1ncFVBfRh0BPgSgURj/4VUef4CzgDf7cMCwIuLvgO8CLsAPEhrS+7IPsIZRHw5wAGhwxn80P0298V85i8WH3WhAEXFDRJwN3B+4NPs8jXs/8NCIeCDw4uSzrGO0EeAA0KCM/6iew+J14jW7EHh19iHmKiI+GBEPBf4dMPk7xzXuH4CnAg+MiEsBIuJcOh4BPgdAgzH+4yul3BJ4I/Do7LPs4kIW/1z9l8oESim3AV4APBvfQXA/XwJeDlwQEdfu9hNKKS8Ezp30VIcz6HMCHAAahPGfTqUjwPgnKaXch0W8HgPcIvk4NQkWf06eGxF/f9BP7nEEOAC0NeM/vcpGgPGvwPLP4c8A/wHo/YmY7wWevXxjpbX1NgIcANqK8c+zHAG/Azwq8RjGvzKllFNZPF/k6cBtko8zpS8CbwFeHxGXHfaLlFJeALxksFONZ+sR4ADQoRn/fMkjwPhXrJRyMvAs4InAPXJPM6o/Z/FmSb8dEV8Y4gv2MgIcADoU41+PpBFg/BtSSnkQ8AQWrx6YwwcNfRZ4A/C6iPirMS7QwwhwAGhjxr8+pZTjWYyAH5rgcsa/Ucs3aTqTxRg4Czgx90QbuRH4n8DrgbdN8Y6TpZRzgJeOfZ0BHGoEOAC0EeNfr4lGgPGfiVLKScB3At8DPBj4Vup6OeE1wJ+xeELfe4HLI+KzUx9iziPAAaC1Gf/6jTwCjP+MLd9X4EEsBsF3A/cF7jDhET7MV2P/XuADEXHjhNff01xHgANAazH+7RhpBBj/DpVSTgHuvfxxrx3/+a7ASaz3csOvAFcDn2Hx2P3qx+q/f4DFd/dXD33+IZVSng+cl32ONaw9AhwAOpDxb89yBPwu8MgBvpzx166Wzym47fLHScu/3obF7ftV4L8wl987cxsBDgDty/i3a6ARYPylHUopZwPnZ59jDQeOAD8MSHsy/m2LiOuBxwG/d8gvYfylY0TEy4DnZ59jDQd+gJADQLsy/vOwYwS8bcNfavylPcxlBDgAdDPGf16WI+CxrD8CjL90gOUIODv7HGvYcwQ4AHQTxn+eNhgBxl9aU0RcQMMjwAGgo4z/vK0xAoy/tKGWR4ADQIDx78WOEfD2Y/4n4y8d0nIEPC/7HGu4yQjwZYAy/h1avkTwzcDDMf7SIEopzwUuyD7HGj4KnOEA6Jzx79fyTVyeCLym9viXUm4NfGWKD4CRtlFK+T3gEdnnWMM7HQAdM/5qQSnla4CLgWuBxzoCVKtSyjOBVwIl+ywHuAI4w+cAdMr4qwU74v8QFg9XvGl550KqSmvxj4iPOgA6ZPzVgmPiv+IIUHVajD/4KoDuGH+1YI/4rzgCVI1W4w8OgK4Yf7XggPivOAKUruX4gwOgG8ZfLVgz/iuOAKVpPf7gAOiC8VcLNoz/iiNAk5tD/MEBMHvGXy04ZPxXHAGazFziDw6AWTP+asGW8V9xBGh0c4o/OABmy/irBQPFf8URoNHMLf7gAJgl468WDBz/FUeABjfH+IMDYHaMv1owUvxXHAEazFzjDw6AWTH+asHI8V9xBGhrc44/OABmw/irBRPFf8URoEObe/zBATALxl8tmDj+K44AbayH+IMDoHnGXy1Iiv+KI0Br6yX+4ABomvFXC5Ljv+II0IF6ij84AJpl/NWCSuK/4gjQnnqLPzgAmmT81YLK4r/iCNDN9Bh/cAA0x/irBZXGf8URoKN6jT84AJpi/NWCUsqtqTf+K44AdR1/cAA0w/irIV8Brs0+xBpOAm6RfQjl6D3+4ABogvFXSyLiCPBY4O3ZZ9nHpcBZEfHF7INoesZ/wQFQOeOvFlU+Albx/+fsg2h6xv+rHAAVM/5qWaUjwPh3zPjflAOgUsZfc1DZCDD+HTP+N+cAqJDx15xUMgKMf8eM/+4cAJUx/pqj5BFg/Dtm/PfmAKiI8decJY0A498x478/B0AljL96MPEIMP4dM/4HcwBUwPirJxONAOPfMeO/HgdAMuOvHo08Aox/x4z/+hwAiYy/ejbSCDD+HTP+m3EAJDH+0uAjwPh3zPhvzgGQwPhLXzXQCDD+HTP+h+MAmJjxl25uyxFg/Dtm/A/PATAh4y/t7ZAjwPh3zPhvxwEwEeMvHWzDEWD8O2b8t+cAmIDxl9a35ggw/h0z/sNwAIzM+EubO2AEGP+OGf/hOABGZPylw9tjBBj/jhn/YZWIyD7DLBl/aRillBOANwEnYfy7ZfyH5wAYgfGXhrUcAbeIiC9mn2U/pZQCPA349eUdDA3A+I/DhwAGZvyl4UXEkUbi/0rgIuBNy9GiLRn/8TgABmT8pT7tiP8zl3/r4TgCtmb8x+UAGIjxl/q0S/xXHAFbMP7jcwAMwPhLfdon/iuOgEMw/tNwAGzJ+Et9WiP+K46ADRj/6TgAtmD8pT5tEP8VR8AajP+0HACHZPylPh0i/iuOgH0Y/+k5AA7B+Et92iL+K46AXRj/HA6ADRl/qU8DxH/FEbCD8c/jANiA8Zf6NGD8VxwBGP9sDoA1GX+pTyPEf6XrEWD88zkA1mD8pT6NGP+VLkeA8a+DA+AAxl/q0wTxX+lqBBj/ejgA9mH8pT5NGP+VLkaA8a+LA2APxl/qU0L8V2Y9Aox/fRwAuzD+Up8S478yyxFg/OvkADiG8Zf6VEH8V2Y1Aox/vRwAOxh/qU8VxX9lFiPA+NfNAbBk/KU+VRj/laZHgPGvnwMA4y/1quL4rzQ5Aox/G7ofAMZf6trTqDf+Kw8HfiX7EOsy/u0oEZF9hjTGX+rb8jvrN7GIbK2aCZXxb0u3dwCMv6SIOAI8Fnh79ln20EyojH97uhwAxl/SSsUjoJlQGf82dTcAjL+kY1U4ApoJlfFvV1cDwPhL2ktFI6CZUBn/tnUzAIy/pINUMAKaCZXxb18XA8D4S1pX4ghoJlTGfx5mPwCMv6RNJYyAZkJl/Odj1gPA+Es6rAlHQDOhMv7zMtsBYPwlbWuCEdBMqIz//MxyABh/SUMZcQQ0EyrjP0+zGwDGX9LQRhgBzYTK+M/XrAaA8Zc0lgFHQDOhMv7zNpsBYPwljW2AEdBMqIz//M1iABh/SVPZYgQ0Eyrj34fmB4DxlzS1Q4yAZkJl/PvR9AAw/pKybDACmgmV8e9LswPA+EvKtsYIaCZUxr8/TQ4A4y+pFvuMgGZCZfz71NwAMP6SarPLCGgmVMa/XyUiss+wNuMvqWallBOAXwF+roVQGf++NTMAjL8kDcf4q4mHAIy/JA3H+AsaGADGX5KGY/y1UvUAMP6SNBzjr52qHQDGX5KGY/x1rCoHgPGXpOEYf+2mugFg/CVpOMZfe6lqABh/SRqO8dd+qhkAxl+ShmP8dZAqBoDxl6ThGH+tI30AGH9JGo7x17pSB4Dxl6ThGH9tIm0AGH9JGo7x16ZSBoDxl6ThGH8dxuQDwPhL0nCMvw5r0gFg/CVpOMZf25hsABh/SRqO8de2JhkAxl+ShmP8NYTRB4Dxl6ThGH8NZdQBYPwlaTjGX0MabQAYf0kajvHX0EYZAMZfkoZj/DWGwQeA8Zek4Rh/jWXQAWD8JWk4xl9jGmwAGH9JGo7x19gGGQDGX5KGY/w1ha0HgPGXpOEYf01lqwFg/CVpOMZfUzr0ADD+kjQc46+pHWoAGH9JGo7xV4aNB4Dxl6ThGH9l2WgAGH9JGo7xV6a1B4Dxl6ThGH9lW2sAGH9JGo7xVw0OHADGX5KGY/xVi30HgPGXpOEYf9VkzwFg/CVpOMZftdl1ABh/SRqO8VeNbjYAjL8kDcf4q1Y3GQDGX5KGY/xVs6MDwPhL0nCMv2p3HBh/SRqS8VcLCmD8JWkgxl+tKCzi/+Dkc6zjbRHxyOxDSNJejL9achzwo0ALvwkeUUp5bvYhJGk3xl+tOS4irgDOoI0RcIEjQFJtjL9adBxAgyPgedmHkCQw/mrX0ZcBNjYCXuYIkJTN+KtlN3kjIEeAJK3H+Kt1N3sr4AZHwNnZh5DUF+OvOdj1w4AaGwHnOwIkTcX4ay72/DhgR4Ak3ZTx15yUiNj/J5RyVxZvFnTaJCfazjkRcX72IYZQSinA7YE7AqcAtwWuA64Brl3+9ZqIOJJ2SKkjxl9zc+AAAEfA0EopJwOnA/flq4G/444fpwAnA7dY48sdYTEIrgA+vPzxkdV/jojPDH1+qTfGX3O01gCA5kbACyLivOxDAJRSjmMR+u/Y8ePeEx7hc8AHgD8G3gW8JyKum/D6UtOMv+Zq7QEAjoB1lFLuyOK7+1Xsv43F7ftaXA/8OfBOFoPg3RFxbeqJpEoZf83ZRgMAHAG7KaWcADwCeDLwfezz5MoKfRm4GHgDcInPKZAWjL/mbuMBAM2NgBdGxEvH+MKllPsBTwGewOKx+9ZdDfwO8IaIeE/2YaQsxl89ONQAgH5HQCnl9sDjWYT/W4f4mpX6OPAbwCsj4urks0iTMf7qxaEHAPQ1AkopZ7C4xf9o4NaDnap+1wGvAn4hIq7MPow0JuOvnmw1AKC5EfCiiHjJJr+glHI68HIWT+jr2RHgN4H/6r90NEfGX73ZegDAPEdAKeUbgJ8Ffpj6/4Uwpa8Ab2bxz/FD2YeRhmD81aNBBgDMZwSUUk4Cngc8G7jVpKdqy/Us7oy81PcVUMuMv3o12ACA5kbAiyPi3NV/Wb5hz5OA84CvTztVe64AnhMRv5t9EGlTxl89G3QAQJsjoJTyEBbfzd4/+0ANuxT4iYj4YPZBpHUYf/Vu8AEAzY2A9wEPyD7ETFwP/DyLV1zckH0YaS/GXxppAEBzI0DDuhx4fET8XfZBpGMZf2lhtLesjYgrgDMAf/P253TgfaWUR2UfRNrJ+EtfNep71jsCuva1wFtKKb9aSjkx+zCS8ZduarSHAG5yER8O6N1fAo+LiI9kH0R9Mv7SzU0yAMARIK4GHhYRl2cfRH0x/tLuJvvYWh8O6N7JwB+VUs7MPoj6YfylvU36ufWOgO59DfC2UsqPZB9E82f8pf1NOgDAESCOB/5bKeUnsw+i+TL+0sEmHwDgCBAF+KVSynnZB9H8GH9pPSkDABwBAuD5jgANyfhL65vsVQB7HsBXBwh+KiJekX0Itc34S5tJHwDgCBAB/GhE/Fb2QdQm4y9trooBAI4AcT3wiIi4JPsgaovxlw6nmgEAjgDxz8BDfbMgrcv4S4dX1QAAR4C4Gjjdtw3WQYy/tJ20VwHsxVcHdO9k4Hf9ACHtx/hL26vuDsCKdwIAuBH4R+BK4PPAnYFTgTtkHmoir4yIn8g+hOpj/KVhVDsAoJsR8AkW/zd+kkXorwSuWv71UxFxw7G/oJRyK+AuLMbA6sddgHsC/5bFR/HOwaMj4q3Zh1A9jL80nKoHAMxyBNwI/B/gYuDiiPirIb94KeWWwL8Bzlr+uNeQX39inwceEBF/l30Q5TP+0rCqHwAwixFwLfC/WET/9yPi01NduJRyH746Br4TuMVU1x7I5cB37XYnRP0w/tLwmhgA0OwI+DjwQuDNEfHl7MOUUk4GngX8Z+B2ycfZxAURcXb2IZTD+EvjaGYAQFMj4NPAecCrIuJI9mGOVUo5BXg+8EyghWfbXw98S0T8dfZBNC3jL42nqQEA1Y+Aa4BfAH4hIq7NPsxBSil3B14CPIEKXxJ6jMsi4iHZh9B0jL80ruYGAFQ5Ao4AFwHnRcQ/Zh9mU6WU+wEXAA/LPssBHh8Rb8w+hMZn/KXxNTkAoKoR8E7gyRHxt8nn2Fop5buBNwB3yz7LHq4Evikirsk+iMZj/KVp1H7bd0+VvGPgRcD3zSH+ABHxx8C3Ae/JPsseTgVelH0Ijcf4S9Np9g7AStKdgBtYfIb9Kye85mSWb8N7EfDE5KPs5gbg/j4hcH6MvzStZu8ArCTcCbga+P65xh8gIr4cEU9i8XLBG7PPc4xbAudmH0LDMv7S9Jq/A7Ay0Z2ADwIP7+kPfynlTOCN1PW+ATcC3xwRH84+iLZn/KUczd8BWJngTsAlLD6mtqs//BFxCXA6dX0643HAf8k+hLZn/KU8s7kDsDLSnYDXAz8WEbXdsx32TAAACVpJREFUDp9MKeWOLN6WN/tVFytHgHsuh58aZPylXLO5A7Aywp2A1wNP7Tn+ABHxWeDhwD9ln2XpBODZ2YfQ4Rh/Kd/s7gCsDHQn4HUsvvOf5z+kQ1g+J+Ad1DEerwPuvhwnaoTxl+pQw7/ERzHAnYDXYvxvZvmcgJ/JPsfSbYAfzz6E1mf8pXrM9g7AyiHvBLwWeJrx31sp5dep430CPh4R98w+hA5m/KW6zPYOwMoh7gS8BuO/jmdQxzsG3qOU8qDsQ2h/xl+qz+wHAGw0Al4NPN34Hywivgw8Cvhk9llYfJqhKmX8pTrN/iGAnQ54OODVwDOM/2aWHyD0ruRjXA3cJSKOJJ9DxzD+Ur26uAOwss+dgFdh/A9l+QFC70g+xsnAmcln0DGMv1S3rgYA7DoCLgKeafy3cjb5nxngwwAVMf5S/bp6CGCn5cMBTwFeYvy3V0r5TeDfJx7hy8ApEXFt4hmE8Zda0e0A0LBKKXcHPgScmHiM74+I/5F4/e4Zf6kd3T0EoHFExCeAC5OP8T3J1++a8Zfa4h0ADaaUcgrwMfI+Ovi9EeF7AiQw/lJ7vAOgwUTEZ4CfTzzCt5ZSbpN4/S4Zf6lNDgAN7ZXAV5KufTzgHYAJGX+pXQ4ADSoirgbenXgEnwcwEeMvtc0BoDFcnHjt7068djeMv9Q+B4DGkDkA7pt47S4Yf2keHAAaXER8CPhI0uXvsHw1gkZg/KX5cABoLJl3Ae6deO3ZMv7SvDgANBYHwIwYf2l+HAAay58An0+69r2SrjtLxl+aJweARhERNwB/mHR57wAMxPhL8+UA0Jg+lnRdB8AAjL80bw4AjemqpOveNem6s2H8pflzAGhMVyZd96Sk686C8Zf64ADQmLIGwAmllBOSrt004y/1wwGgMWUNAIDbJl67ScZf6osDQGPKeg4AOAA2Yvyl/jgANJqI+BLwuaTL+zyANRl/qU8OAI0t62EA7wCswfhL/XIAaGyfTrrubZKu2wzjL/XNAaCxfW3Sda9Jum4TjL8kB4DGdmrSdT+TdN3qGX9J4ADQiEoptwTulHT5zyZdt2rGX9KKA0Bj+jpyfo99BfhCwnWrZvwl7eQA0Jiybv9fHRGRdO0qGX9Jx3IAaEx3Sbquj//vYPwl7cYBoDFl3QHw8f8l4y9pLw4AjckBkMj4S9qPA0BjulvSdbsfAMZf0kEcABrTGUnX7fo5AMZf0jocABpFKeV+wN2TLt/tHQDjL2ldDgCN5azEa38g8dppjL+kTTgANJbMAXB54rVTGH9Jmyq+X4qGVkq5M3AVOQPzwxFxn4TrpjH+kg7DOwAaw8PI+7313qTrpjD+kg7LAaAxZN7+72YAGH9J23AAaFCllBOB7008QhcDwPhL2pYDQEN7DHBS0rWvoYNXABh/SUNwAGgwpZQTgJckHuHPIuLGxOuPzvhLGooDQEN6OnCPxOvP+va/8Zc0JAeABlFKOQk4J/kYsx0Axl/S0BwAGspzgDsnXv9GZvoGQMZf0hh8IyBtrZRyJ+BjwG0Tj/EHEXFm4vVHYfwljcU7ABrCOeTGH+D1ydcfnPGXNCbvAGgrpZRvBP4GOCHxGJ8FTo2II4lnGJTxlzQ27wDo0Eopx7P4zjsz/gBvMP4pjL/UMAeAtvHLwIOzDwG8LvsAQzH+kqbiANChlFKeBTwj+xzAn0fEX2UfYgjGX9KUHADaWCnlocAvZZ9jaRbf/Rt/SVPzSYDaSCnlNOBPgZOzzwJ8EbhLRHwh+yDbMP6SMngHQGsrpdwOeDt1xB/gLcZ/MsZfmhkHgNZSSjkOeCPwzdln2aHp1/4bf0mZHAA6UCmlAK8BanqnvfdGxGXZhzgs4y8pmwNA+1rG/7XAk7PPskMAz84+xGEZf0k1cABoTzu+868p/gBvjIgmP/jH+Euqha8C0K6W8X818NTssxzjS8B9IuLvsw+yKeMvqSbeAdDNVBx/gJcb/1EZf6kT3gHQTSzj/yrgx7LPsot/AO4VEddmH2QTxl9SjbwDoKOW8b+IOuMPcI7xH43xlzrjHQABN4n/07LPsof3Aw+MiBuzD7Iu4y+pZt4B0Cr+F1Jv/AGebfxHYfylTnkHoHPL+P8adXyy317eFxEPzD7Euoy/pBZ4B0AvpO74AzyglPKi7EOsw/hLaoV3ADpXSrkrcBlwWvZZ1vDiiDg3+xB7Mf6SWuIdgM5FxBXAGUALMXhxKeWF2YfYjfGX1BoHgFobAefWNgKMv6QWOQAEOAIOy/hLapUDQEc1OAJekHkA4y+pZQ4A3URjI+AlWSPA+EtqnQNAN+MI2J/xlzQHDgDtqsERcM4UFzL+kubCAaA9NTYCXjr2CDD+kubEAaB9OQIWjL+kuXEA6EANjoDnD/kFjb+kOXIAaC2NjYDzhhoBxl/SXDkAtLYGR8DZ23wB4y9pzhwA2khjI+D8w44A4y9p7hwA2tjcR4Dxl9QDB4AOpcER8Lx1fqLxl9QLB4AOrbER8LKDRoDxl9QTB4C2MpcRYPwl9cYBoK01OAKeu/NvGH9JPXIAaBCNjYALViPA+EvqVYmI7DNoRkopdwUuA07LPssa3gY8HOMvqUMOAA2usRFQO+MvaRQ+BKDBNfZwQM2Mv6TROAA0CkfA1oy/pFE5ADQaR8ChGX9Jo3MAaFSOgI0Zf0mTcABodI6AtRl/SZNxAGgSjoADGX9Jk3IAaDKOgD0Zf0mTcwBoUo6AmzH+klI4ADQ5R8BRxl9SGgeAUjgCjL+kXA4Apel4BBh/SekcAErV4Qgw/pKq4ABQuo5GgPGXVA0HgKrQwQgw/pKq4gBQNWY8Aoy/pOo4AFSVGY4A4y+pSg4AVWdGI8D4S6qWA0BVmsEIMP6SquYAULUaHgHGX1L1HACqWoMjwPhLaoIDQNVraAQYf0nNcACoCQ2MAOMvqSkOADWj4hFg/CU1xwGgplQ4Aoy/pCY5ANScikaA8ZfULAeAmlTBCDD+kprmAFCzEkeA8ZfUPAeAmpYwAoy/pFlwAKh5E44A4y9pNhwAmoUJRoDxlzQrDgDNxogjwPhLmh0HgGZlhBFg/CXNkgNAszPgCDD+kmbLAaBZGmAEGH9Js+YA0GxtMQKMv6TZcwBo1g4xAoy/pC44ADR7G4wA4y+pGw4AdWGNEWD8JXXFAaBu7DMCjL+k7jgA1JVdRoDxl9QlB4C6s2MEvBPjL6lT/x9tXDMq7fIatwAAAABJRU5ErkJggg==;rotation=0;" vertex="1" parent="250">
                    <mxGeometry x="111" y="11" width="28" height="28" as="geometry"/>
                </mxCell>
                <mxCell id="255" value="" style="shape=image;verticalLabelPosition=bottom;labelBackgroundColor=default;verticalAlign=top;aspect=fixed;imageAspect=0;image=data:image/png,iVBORw0KGgoAAAANSUhEUgAAAgAAAAIACAYAAAD0eNT6AAAABHNCSVQICAgIfAhkiAAAAAlwSFlzAAAN1wAADdcBQiibeAAAABl0RVh0U29mdHdhcmUAd3d3Lmlua3NjYXBlLm9yZ5vuPBoAACAASURBVHic7N1n2GVFlfbx/w1NlCBKEhQVkJyDgqCAjKKCAVEMCKZ5Z1SCwhgxYQQjKsrM6IwiDAbMjoqYQKEFhyAZGiQqqBiQILHp9X6osmnh6e4nnHNW7X3u33X1hbHr7j7P3qvO2rWrFBGYWfdIWg1YB1gJWPEBvyb6zyb67wBuq79uXeBfP/DXRP/drcD1EfHH4f5JzWwY5AmAWbskLQOsD2w4wa9VEqMt6GZgzgS/fh0Rd2cGM7OF8wTArAGSHsHERf4xwJJ5yWbkPuBaJpgcRMTvEnOZGZ4AmI1c/Va/A/AUYDdgK+5vx4+L24DzgVOBnwJnuVtgNlqeAJgNmaRZwHaUgv8U4InAcqmh2nMn8AvKZOCnwDkRMTc3klm/eQJgNmCSlgC25P6C/yTG7xv+TN0GnM79E4ILImJebiSzfvEEwGwAJG3C/QV/F+BhuYl65y/Az6gTgoi4NDmPWed5AmA2TZIeC+xff62fHGfc/Bo4ATghIq7JDmPWRZ4AmE2BpJWBfSlFf2dAuYnGXgBnUCYDJ0XELcl5zDrDEwCzxaiL+PYADgCeDSybm8gW4i7gO8DxwCleRGi2aJ4AmC2EpG0oRf/FwOrJcWxqbgK+BBwfEedlhzFrkScAZguQtDawH6Xwb5ocxwbjEkpX4MSIuCE7jFkrPAEwAyTtALwNeCawRHIcG455wPeB90fEWdlhzLJ5AmBjTdKuwNuB3ZOj2Gj9BHhfRJyWHcQsiycANpYkPZ1S+HfKzmKpZlMmAj/IDmI2ap4A2NiQJMoq/rdTtuY1+7tzgPcB3wnfFG1MeAJgvVe35n0B5Rn/5slxrG0XAe8Hvuqth63vPAGw3qrv7+8HvJVytK7ZZM0BjqS8OeD9BKyXPAGw3pG0JPAq4C3AY5PjWLddAxwF/HdE3JcdxmyQPAGwXpG0E3AssEV2FuuVC4HXRsTs7CBmg+L3na0XJK0m6XOUI2Rd/G3QtgBOl/Q5SatlhzEbBHcArNPqAr9/AT4ArJIcx8bDzcDhwGe8UNC6zBMA6yxJ21Ha/dtnZ7GxdDblscA52UHMpsOPAKxzJK0i6Vjgl7j4W57tgV9KOlaSu0/WOe4AWGfUjXxeBnwI8HNYa8kfgTcBX/BGQtYVngBYJ0janNLu3zk7i9kinEF5LHBRdhCzxfEjAGuapKUlfRg4Dxd/a9/OwHmSPixp6ewwZoviDoA1S9K6wFfwvv3WTecAL4yIq7ODmE3EHQBrkqR9KN/6Xfytq7ajdAP2yQ5iNhFPAKwpteV/DPA1YOXsPGYztDLwNUnH+JGAtcaPAKwZteV/ErBtdpaO+RNwBXAtcCtw2wK/HvjvH/ifAaxYf620wL9ecSH/+UrAY4ANgFWH/Ofqm3OBff1IwFrhCYA1QdLzgf/C3/oX5m7gSkqhn1N/XQHMiYi/ZASS9DDKKYsb1H/+/V8/DlgmI1MH3AL8c0R8LTuImScAlkrSMsBHgQOzszTkOuBU4FfcX+iv68q2s3V75kdz/8Rga2C3+p9Z8Wng3yLi7uwgNr48AbA0ktajtPy3yc6S7A+Ugv9T4KcRcVVynqGon/dT6q/dgDVyE6U7j/JIoJeft7XPEwBLIekFlJb/StlZEvwV+BnwE0rBvyQ5TwpJm1ImA7sDuwAPzU2U4lbKI4GvZgex8eMJgI1UbQ8fDRySnWXEzgD+l/It/7yutPNHpf5cbEOZEDyL8dv06ZPAof65sFHyBMBGpj7vPxEYl/eirwJOAE7wyu+pqW+E7F9/rZccZ1S+DuzndQE2Kp4A2EhIWgn4NrBrcpRhu4WyruELETE7O0wfSNqJcgjUvvT/LZHTgOdExK3ZQaz/PAGwoZO0JvADYMvsLEMyFzgFOB74TkTclZynlyQtCzwbOADYA5iVm2hoLgCeHhG/zw5i/eYJgA2VpPWBHwKPzc4yBBcCxwFfjIg/JGcZK5LWAF4CvBzYIjfNUFwDPC0ifp0dxPrLEwAbGknbAt8HVs/OMmCnA++PiFOygxhI2gN4G/Ck7CwDdhPwzIg4NzuI9ZMnADYUkv4J+CawQnaWATqFUvhPzw5iDybpSZSJwB7ZWQbodmDviPhxdhDrH08AbOAkvQj4AtCHw0+CMpH5gL+JdUPtPB0O7A0oOc4g3AO8LCK+nB3E+sUTABsoSYcAH6f7N977gC8BR0bEpdlhbOokbQK8FXgxsGRynJkK4PUR8cnsINYfngDYwEj6AOWG22X3UBb2fdDv7vdD3VPgzZQFg13vSh0ZEYdnh7B+8ATABkLSfwD/mp1jhr4FvC4irs8OYoMnaR3gE8Bzs7PM0H9GxKuzQ1j3LZEdwLqvfvPvcvG/GtgrIvZ28e+viLg+IvYG9qJ85l31r/WaM5sRdwBsRuoz/09k55imu4EPURb4efOeMVI3FToceBOwTHKc6Xqd1wTYTHgCYNNWV/t/kW4u+PsRcGBEXJkdxPJIehzwaeCp2VmmIYCX+O0Amy5PAGxa6nv+36N7i6pupJy6dlJ2EGuHpH0pp1SulZ1liu4B9vQ+ATYdXgNgU1bfs/4m3Sr+cyk3+I1c/O2B6s/ERpSfkbnJcaZiaeCb9Zo0mxJ3AGxK6t7+s+nW9r4XU45ZvTA7iLVP0haUY6s3y84yBTcBO/nsAJsKdwBs0uqpfj+kW8X/c8ATXPxtsurPyhMoPztdsTrww3qNmk2KOwA2KZJWAn5Od470/Rvw2og4PjuIdZekA4BjgYdkZ5mkC4AnR8St2UGsfZ4A2GJJWgb4AbBrcpTJuhjYNyIuyw5i3SdpY+AkuvNI4DTg6RFxd3YQa5sfAdgiSVqC8jx01+Qok/X3lr+Lvw1E/Vnq0iOBXYET67VrtlD+AbHFORrYJzvEJPyNcmLaqyLijuww1i8RcUdEvAp4GeVnrXX7UK5ds4XyIwBbKEkvoLQ+W+eWv41Mxx4J7BsRX80OYW3yBMAmJGk94Dxgpewsi3EC8Gp/67dRkrQ88B/A/tlZFuNWYJuIuCo7iLXHjwDsQeqiv5Nov/gfFREHuPjbqNVHAgcAR2VnWYyVgJPqNW32DzwBsIl8FNgmO8QiBGU737dmB7HxVn8GD6X8TLZqG8o1bfYP/AjA/oGk5wMtPzO8F3h5RHwxO4jZ30l6CXAcsFRylEV5QUR8LTuEtcMTAJtP0rqU5/4rZ2dZiL8B+0TEKdlBzB5I0h7A12l306BbKOsBrs4OYm3wIwADQNLSlOf+rRb/PwG7ufhbq+rP5m6Un9UWrUxZD9ClQ7xsiDwBsL/7KNDqiWLXATtHxNnZQcwWpf6M7kz5mW3Rtng9gFV+BGBI2gdo9dngxcAeEXFjdhCzyZK0FnAK7e4V8PyI+Hp2CMvlCcCYa/y5/5nAMyPir9lBzKZK0kOB7wM7ZmeZgNcDmCcA46w+C5wNbJedZQIXA09y8bcuq5OA02mzE3AOsFNE3JMdxHJ4DcB4ez9tFv/rKG1/F3/rtPozvAdtrgnYjnIPsDHlDsCYkrQ5pfU/KzvLA/yJsuBvTnYQs0GRtCFwBrBqdpYHmEt5FHBRdhAbPXcAxpAkAcfSXvH/G+WZv4u/9Ur9mX4m7Z0kOAs4tt4TbMx4AjCeXkZ5Vakl91I2+fGrftZL9Wd7H8rPekt2ptwTbMz4EcCYkbQKMAdYLTvLAgJ4qbf3tXFQtw3+H6Clb91/BDaMiJuzg9jouAMwft5PW8Uf4DAXfxsX9Wf9sOwcD7AaXhA4dtwBGCOStgN+SVsTv6N8qp+NI0lHAm/JzrGAecATIuKc7CA2Gp4AjAlJSwBnAdtnZ1nACfVMdbOxJOl4YP/sHAs4G9ghIuZlB7Hha+mboA3Xv9BW8b8YeHV2CLNkr6ZcC63YnnKvsDHgDsAYkLQaZeHfKtlZqr8B20fEZdlBzLJJ2pjyzbuVY4RvpiwI/GN2EBsudwDGwwdpp/gDvNbF36yo18Jrs3MsYBXKPcN6zh2AnpO0E2Uv8lZeOfp8RLwyO4RZayR9DnhFdo4qKGdxzM4OYsPjCUCPSVqSst3vFtlZqospq4zvyA5i1hpJy1Pe0mnl4KALKdsE35cdxIbDjwD67VW0U/z/Buzr4m82sXpt7Es72wVvQbmHWE+5A9BTkmYBVwCPzc5SvSwijs8OYdY6SQcAX8jOUV0DbBARc7OD2OC5A9Bf+9FO8f+8i7/Z5NRr5fPZOarHUu4l1kPuAPRQ3fTnUmDD7Cz4ub/ZlDW2HmAOsIk3B+ofdwD66QW0UfznAvu5+JtNTb1m9qNcQ9k2pNxTrGc8AeiZeq7327JzVMdExIXZIcy6qF47x2TnqN5W7y3WI34E0DOSngN8KzsHcCOwUUTclh3ErKskrQhcDqyVnQV4bkR8OzuEDY47AP3z9uwA1aEu/mYzU6+hQ7NzVK3cW2xAPAHoEUlPB7bLzgH8KCJOyg5h1gf1WvpRdg5gu3qPsZ7wI4AekXQGsFNyjLuBzSPiyuQcZr0h6XHARcAyyVFmR8TOyRlsQNwB6AlJu5Jf/AE+5OJvNlj1mvpQdg5gp3qvsR5wB6AnJP0Y2D05xtXAphFxV3IOs96RtCxwCbBucpSfRMQ/JWewAXAHoAck7UB+8Qc4xMXfbDjqtXVIdg5g93rPsY7zBKAfWnjv/1sR8b3sEGZ9Vq+xFl7zbeGeYzPkRwAdJ2lt4HpyJ3P3AI+LiOsTM5iNBUnrAFcCSyfGmAesExE3JGawGXIHoPv2I/9zPM7F32w06rV2XHKMJYCXJmewGXIHoOMkXQxsmhjhPspxoVcnZjAbK5LWpRz3vWRijEsiooXDimyasr852gxI2obc4g/wJRd/s9Gq19yXkmNsWu9B1lGeAHTbAcnjB3BkcgazcXUk5RrMlH0PshnwI4COkjQLuAFYPTHGNyJin8TxbQL11LZHUY5x3aj+WhdYGVgRWKH+c8X6f7kNuL3+8zbgFsqeDpfXX3OA34RvFs2R9HXgeYkRbgLWjogWji22KfIEoKMk7Ql8NznGdhFxbnKGsVc3iNkR2K3+2gZYfsDD3AGcB5xaf53pPR/ySdoWOCc5xl5+BbibPAHoKElfAfZNjPCDiHhG4vhjTdIjKW+A7EEp/suOOMJdwJnAKcCJEfHbEY9vlaSTgcxDek6KiBcmjm/T5AlAB0laGfg9o7/pL+jJEXF64vhjR9JywN7Ayyk7P7ayhmce8BPKq2nfjIg7c+OMF0lPAn6eGOEuYM2IuCUxg01DKzcQm5p9yS3+p7v4j46kx0o6ljLpOxF4Km1du0tQMp0I/F7SsZIem5xpbNRrMfN6XJbcbqRNU0s3EZu8/ZPHf3/y+GNB0saSjqe87/0aYKXkSJOxEiXrFZKOl7RxdqAxkX1NZt+TbBr8CKBj6jerqwAlRbgwIrZMGnssSNoUeDdldXfW5zwoAXwDeFdEXJIdps8kXQBskTR8AOtFxDVJ49s0uAPQPfuTWxSOSxy71yStIOkjwPnAPnS/+EP5M+wDnC/pI5JWyA7UY8clji3cBegcdwA6RtKVwPpJw88FHhkRf0gav7ckvQA4Glg7O8uQ3QAcGhFfzQ7SN5LWAH4LzEqK8OuIeFzS2DYN7gB0iKRNyCv+AKe4+A+WpEdI+gFwEv0v/lD+jCdJ+oGkR2SH6ZN6bZ6SGGH9eo+yjvAEoFuekjz+8cnj94qkPSjt/j2ysyTYg/JYYBz/7MOUfY1m36NsCjwB6JbMi+sW4DuJ4/eGpFmSjgROJncr52yrAydLOrJubW0z9x3KtZrFE4AO8QSgIyQtAeySGOEkb/06c/U57WnAW+jHIr+ZEuXv4rT6d2MzUK/RkxIj7FLvVdYB/qC6Y0vgYYnjfyFx7F6oZ7jPBnbKztKgnYDZ9e/IZibzWn0Y5V5lHeAJQHdkttauiojZieN3nqStKMV/vewsDVuPMgnYKjtIl9Vr9arECH4M0BGeAHRH5kV1QuLYnSdpF0rbf83kKF2wJuVxQObjrj7IvGY9AegI7wPQAXWB1F+4//z2UVsvIq5OGrvTaiH7AblnN3TRXcDTI+Jn2UG6qD5KyeoC3AY8LCLmJo1vk+QOQDdsR17xP8PFf3pqK/vbuPhPx7LAt/04YHrqNXtG0vArUu5Z1jhPALohs6X2v4ljd1b9BnYysHJ2lg5bmfKaoBcGTk/mtevHAB3gCUA3ZF5MP00cu5Pq62w/xM/8B2FN4Id+RXBaMq9dTwA6wGsAGidpGeBmYLmE4f8KPDwi5iWM3Ul1vcZp+FW/QZsN7OrnypNX38f/M/DQhOHvBFaJiLsTxrZJcgegfTuQU/wBfubiP2XvxcV/GHai/N3aJNVrN2sR5XKUe5c1zBOA9mW20n6SOHbn1H3t35ydo8fe7LMDpizzGvZjgMZ5AtC+3RLH9vP/Saon2x2Pt/cdJgHH+xTBKcm8hjPvXTYJXgPQOEm3kvMK4B8iwovYJqke6etvp6NxSkQ8PTtEV0j6PZCxiPK2iFgpYVybJHcAGla/6WS9/39q0ridI+kFuPiP0h7179wmJ+taXtHdmrZ5AtC2DRPHdvt/EiStABydnWMMHV3/7m3xMq/lzHuYLYYnAG3zBKB9RwBrZ4cYQ2tT/u5t8TwBsAl5AtC2rIvnuojIPE2sEyRtCrwuO8cYe139DGwR6rV8XdLwngA0zBOAtmVdPH7+PznvBmZlhxhjsyifgS1e1jXtCUDDfPNqW9bF86ukcTtD0sbA87JzTNItwPeAc4HfATcu8E+AtYBHLPDPbYE96cY5Bs+TtHFEXJYdpHG/Al6eMK4nAA3zBKBRdQvgxyQNPydp3C55K22/838j5STCbwGnRsS9i/jfXlF/zSdpKcp73M8FnkOZHLRIlM/igOwgjcu6ph8jaRlvCdwm7wPQqPps8+Kk4deNiGuSxm6epMdSCmaLE+gbgXcBn4+I+wbxG0paEngFpd3e4kRgLrCBf2YXrv7MZh3rvVlEXJI0ti2C1wC0K6t1djd5C4a64o20V/xvBd4OPC4i/mtQxR8gIu6LiP8CHlfHuHVQv/eAzKJ8JrZw11Gu7Qx+DNAoTwDalXXRXOkDgBZO0nLAftk5HuBkYL2IeH9E3DGsQSLijoh4P7BeHbMl+9XPxiZQr+krk4b3BKBRngC0K+uiuWLx/5OxtjfQ0vamHwP2iog/jWrAOtZedexWrET5bGzhsq5tTwAa5QlAu7IuGi8AXLSXZweo7gFeFRH/ltGxiYh5EfFvwKtqlha8PDtA47KubU8AGuUJQLs8AWiMpEcCu2fnoBTcZ0TE57KD1AzPoI1JwO71M7KJeQJg/8ATgAZJWg1YJWl4PwJYuP1o45p5TUQ0s1VzzfKa7ByUz6a19Rktybq2V6n3NGtMCzcze7B1Esd2B2DhWjjx72MtfPN/oJqphTUBLXxGrcq8tjPvabYQngC0KWuR2Z8i4i9JYzdN0rLAjskxTqbt193eSP7bATvWz8oeoF7bI1ss+gAtLZy1yhOANq2YNK7b/wu3I5BZWG4FDmj5Fc2a7QBy9wloYaLWsqxrPOueZovgCUCbsi6Wa5PG7YLdksf/0Chf9ZuumvFDyTGyP6uWXZs0ricADfIEoE1ZF0trO7y1JLOo3AgcnTj+VB3N/QcNZfAEYOGyrnFPABrkCUCbsi6W25LGbZokAdskRnjXMHf4G7Sa9V2JEbapn5k9WNY17glAgzwBaFPWghlPACb2KGD5pLFvBD6fNPZMfJ68LsDylM/MHizrGvciwAZ5AtAmPwJoS+ZGJt8e5ME+o1IzfzsxgjefmZgfAdh8ngC0yY8A2rJR4tjfShx7pjKzZ35mLfMjAJvPE4A2eQLQlqxicgtwatLYg3Aq5c+QwROAiXkCYPN5AtAmTwDasm7SuN+LiHuTxp6xmv17ScNnfWat8wTA5vMEoE2eALRl5aRxz00ad5Cy/gxZn1nrPAGw+TwBaJMnAG3J+jx+lzTuIGX9GVxwJuYJgM3nCUCbsl6Z8VsAE1shadzMzXQGJevP4IIzsaxr3K8BNsgTgDa5A9AWdwCmL+vPkDVpa507ADafJwBt8gSgLVmfhzsA0+eCMzFPAGw+TwDatGTSuJ3bcMbMpiTrGs+6p9kieALQpruSxvU56hPL+ta0VtK4g5T1Z3A3a2JZ13jWPc0WwROANnkC0JasYvKIpHEHKevPcHvSuK3zBMDm8wSgTZ4AtCWrmLgDMH3uAEzMEwCbzxOANnkC0BZ3AKYv68/gCcDEPAGw+TwBaJMnAG3J2s9+26RxBynrz5D1mbXOEwCbzxOANnkC0Jark8bdU9JSSWPPWM2+Z9LwWZ9Z6zwBsPk8AWiTJwBtuTxp3JWB3ZLGHoTdyNuTP+sza50nADafJwBtyrpYfIDKxDKLyXMTx56pzOyeAEws6xr3BKBBngC0Keti6cOis2GYkzj2cyR1bhOVmvk5iREyP7OWZV3jngA0yBOANv01aVxPACb2G+COpLHXAl6RNPZMvIK8VwDvoHxm9mBZ13jWPc0WwROANmUdoOIJwAQiIoDzEiO8W9LyieNPSc367sQI59XPzB4s6xrvw8FWveMJQJs8AWjPqYljrwUcmjj+VB1K7iZGmZ9V6zwBsPk8AWiTJwDtyS4qb5K0anKGxaoZ35QcI/uzapknADafJwBt8gSgPWeSu5BpJeB4Sc1eszXb8ZSsWe6ifFY2MU8AbL5mbyZjzhOAxkREC4XlGcCHkzMsyocpGTOdWT8rm5gnADafJwBtyrpYlpbUhwNohuWU7ADAYZJemR3igWqmw7Jz0MZn1KR6bS+dNLwnAA3yBKBBEXErea+dbZw0bhecCMzLDgH8u6SnZIf4u5rl37NzUD6bE7NDNCzr2r6j3tOsMZ4AtCtrxuwJwEJExG+Bn2TnoHyLO7mFTkDNcDJ53ywX9JP6GdnENkka19/+G+UJQLuyLpqsm0RXHJcdoFoa+G9JH81YGChpCUkfBf6bNoo/tPPZtCprcu8JQKM8AWhX1mlm7gAs2jeBltqZhwHfHeUrgnWs79LGM/+/u5Xy2djCZU3ufTJjozwBaNelSeN6ArAIEXEn7T1nfgZwlaS3DXPHQEnLS3obcBX5q/0f6MT62djCZV3bWfcyWwxPANqVddGsIelhSWN3xYeBudkhHmAl4H3AlZL+eZAHCElaUtI/A1fWMTLf85/IXNp+PTKdpIcDqycN7wlAozwBaNcliWO7C7AIEXEN8KXsHAuxFvBZ4HpJx0p6mqSlpvqbSFqq/n+PBa6vv2err4h+qX4mtnCZ13TmvcwWQT4zo011YdftwHIJwx8SEcckjNsZkjam3NiUnWUSbgG+B5xLWZB14wL/hFLYH7HAP7cF9iTv7PipCGDTiLgsO0jLJL0O+HjC0HcCK0REC6/P2gPMyg5gE4uIeZIuB7ZOGP6JgCcAixARl0n6BrBPdpZJWBl4Sf3VN99w8Z+UJyaNe7mLf7v8CKBtWa2zrJtF17yL9tYCjJO5lM/AFi/rmnb7v2GeALQta/HMOpIemTR2Z0TEJcAnsnOMsU/Uz8AWQdI6QNb17AWADfMEoG2ZF4+7AJNzBHBDdogxdAPl794WL/Na9gSgYZ4AtC3z281OiWN3RkTcDhyanWMMHVr/7m3xMicA7tA0zBOAtl0F3Jw0tjsAkxQRX8Wn0I3SKfXv3CYnazJ/M+UeZo3yBKBhUd7RzDqDfqth7irXQ68AbsoOMQZuovxd2yRIWgHYMmn4M8PvmTfNE4D2zU4adxbQzJGzrYuI3wEHUN5Lt+EI4ID6d22T8xRgYLtCTlHWvcsmyROA9v0icey9EsfunIg4Bfhgdo4e+2D9O7bJy7yGM+9dNgneCbBxtQ1/CzmbNt0QEX4dcAokzQJOw4soB202sGtEeN+FSZIk4LfkbOE8F1g5Iu5IGNsmyR2AxtUL6Pyk4deWlLETYWfVArUPXvw0SFcB+7j4T9nW5J3fcL6Lf/s8AegGPwbokIj4A/A04PfZWXrg98DT6t+pTY3b/7ZIngB0Q+ZiGk8ApiEirgaeQXl8Y9NzC/CM+ndpU5d57XoBYAd4DUAH1G15f5M0fACP8Dew6ZG0C/ADYNnsLB1zF/D0iPhZdpAukrQm5bTHrNMqHxURv00a2ybJHYAOqBfStUnDC3hW0tidVwvY03EnYCpuwcV/pvYir/hf6+LfDZ4AdMfJiWPvnzh259VCtiteEzAZv6es9nfxn5nMazbzXmVT4AlAd/xv4thPkvTYxPE7LyLOp7wa6LcDFu4qYKf6d2XTVK/VJyVGyLxX2RR4AtAdpwJZr9UIdwFmrC5m2wkvkJrIbErx94K/mdufvPb/HZR7lXWAJwAdERF3AT9KjHBA4ti9URdT7gochbcNhvJ3cBSl7e+FpoORea3+qN6rrAM8AeiW7yaOvZ4k7243ABExNyLeSnlNcJwPELqJ8prfW73Jz2DUa3S9xAiZ9yibIk8AuuV75H5rfFni2L1T97XfivE8SvgUYCvv7T9wmddoUO5R1hHeB6BjJJ0NbJc0/C3Amm7xDZ6kFwBHA2tnZxmyG4BDI+Kr2UH6RtKylLcoVk6KcE5EbJ80tk2DOwDdk9liWxl4UeL4vVUL4kbARykHqfTNXMqfbSMX/6F5EXnFH9z+7xxPALon+xWbw5LH762IuD0i3kB5LPB1+rFIMCh/lq0i4g0RcXt2oB57ffL42fcmmyI/AuggSVcB6yZGeGpE/Dhx/LEgaWPgrcCLyTkOeibmAl8CjoyIy7LD9J2k3YCfJka4OiIyFx/aNLgD0E0nJI/vLsAIRMRlEXEAsAHw78CtyZEm41ZK1g0i4gAX/5E5NHn87HuSTYM7AB0kaT3g14kRAtjUN/fRkrQcsDfwcmB32pnAzwN+AhwHfDMi7syNM14kPQ64nNyfh/UjwrtcdownAB0l6QzKrnJZPhMR/5o4/lirJ0TuB+wB7MjoTxu8CziT8jrfXBDRpQAAIABJREFUiT78JY+kY4CDEiPMjoidE8e3afIEoKMk/Qvwn4kR7gTWiYg/JWYw5r/+tSOwW/21DbD8gIe5AziPss3rqcCZfh00n6SHAr8FHpIY418j4jOJ49s0eQLQUfXC/x2558y/NyLemTi+TUCSgEcBG1JeLdyIsmh0ZWBFYIX6zxXr/+U24Pb6z9so+z1cTWkrXw7MAX4Tvlk0R9LhwPsTI9wFPCIi/pqYwabJE4AOk/QVYN/ECLcB67oLYDZ69UvA1cAqiTFOiogXJo5vM9DKIiKbnuOTx1+R8pqamY3eG8kt/pB/D7IZcAegwyTNomytunpijLuAx3kRmNnoSFoDuIrcZ/83AWv7IKfucgegw+qFlz0DXxZ4R3IGs3FzOLnFH+B4F/9ucweg4yQ9mvJNYMnEGHOBjSMic28Cs7FQr/krgKUTY9wHrBcR1yVmsBlyB6Dj6gX4jeQYs4D3JGcwGxfvIrf4A3zDxb/73AHoAUk7UDZlyRTAthHxq+QcZr0laVPgAnI7fgA7RsRZyRlshtwB6IF6IWZfjAI+Vd9BN7PhOIb84n+Wi38/eALQHx/LDgA8Edg/O4RZH0l6IWWnx2wt3GtsAPwIoCckLUlZDPjo5Ch/oJwE14WT68w6QdJDKLsyPjI5ynWUxX/3JeewAXAHoCfqBfnJ7BzAGsC7s0OY9czbyS/+AJ908e8PdwB6RNJKlINBVlzc/3bI5gJbR8TFyTnMOk/SBsBF5K/8vw14pLt7/eEOQI/UC/Oz2TkorwUekx3CrCc+SX7xB/isi3+/uAPQM5JWoxwQskJ2FuDFEfHl7BBmXSVpb/L3+YByWuS6EfHH7CA2OO4A9Ey9QI/OzlF9RFILExGzzpG0HO1cy0e7+PePJwD99BHgz9khgLXxOQFm0/UW8t/qgXIv+Uh2CBs8TwB6qD6nOyo7R3WopA2zQ5h1iaR1gTdl56iO8rP/fvIagJ6q7cMrKd/Cs/0oIp6WHcKsKyR9B3hWdg7gRmD9iLgzO4gNnjsAPVUv2Pdm56ieKul52SHMukDSnrRR/AHe4+LfX+4A9JikWcBlwPrZWSg7iG3sm4nZwklaBrgEWC87C/BryjU7NzuIDYc7AD1WL9x3ZueoHg0cnh3CrHFvoI3iD/BOF/9+cweg5+rpfOcA22RnAe4GNo2Iq7KDmLVG0jqUjt3y2VmAX1GO93aB6DF3AHquXsAHAS1cyMsAn8gOYdaoj9FG8Q/gYBf//vMEYAxExJnAF7JzVHtK2is7hFlLJD0V2Cc7R/U/ETE7O4QNnx8BjAlJqwNXACtnZ6EcW7xpRNydHcQsm6SlgAuBjbKzALcCG0bE77OD2PC5AzAmIuIm2lkQuB7tbHJilu31tFH8AY5w8R8f7gCMEUlLUhb3bJ6dBbiT8orRddlBzLJIWguYQxuHd10CbOWV/+PDHYAxEhH3URYEtmA5yqIns3H2Edoo/lAW/rn4jxFPAMZMRPwc+FJ2jup5krxFsI0lSbsAL87OUX0lIk7NDmGj5UcAY6ixtuMcYPOIuDc7iNmo1F06fwVslp0F+BuwUUT8NjuIjZY7AGMoIm4E3pOdo9oQODQ7hNmIHUgbxR/gvS7+48kdgDHV2KtHt1O+gdyQHcRs2CStQel8tfBK7hWUDtw92UFs9NwBGFO15X5wdo5qBcpiKLNx8EHaKP4Ah7j4jy93AMacpK/Rzg5ku0XEadkhzIZF0hOBMwBlZwG+GRE+pnuMeQIw5ho7gORiYGu/imR9JGkJysFcW2dnoezDsUlEXJsdxPL4EcCYi4jrgQ9k56g2o519CswG7V9po/gDHOXib+4AGJKWoewC1sI55LcCG0TEH7KDmA2KpFUpC+5Wyc4CXE05i+Ou7CCWyx0Aox7K87rsHNVKwIeyQ5gN2Adoo/gDvN7F38AdAFuApO8Az8rOQTmPfOeI+EV2ELOZkrQ9cBZtfOH6fkTsmR3C2uAJgM0naV3Ko4Bls7MA5wPb1fMLzDpJkijF//HZWYC7gc0i4tfZQawNLcxIrRERcTXw4ewc1VaURVNmXfZK2ij+AB9x8bcFuQNg/0DScpTXAh+dnQW4mbIg8E/ZQcymStIqlIV/q2ZnAa6nHL99R3YQa4c7APYPIuJO2tmbfxXgyOwQZtP0Xtoo/gCHufjbA7kDYBOSdArQwlG9ATwhIs7ODmI2WZK2omz6s2R2FuDHEfHU7BDWHk8AbEKSNqQcFrR0dhbg/4Adwj+s1gF14d/pwE7ZWYB7gS0i4vLsINYePwKwCUXEHODo7BzV44FXZYcwm6SX0kbxB/i4i78tjDsAtlCSVgAuB9bOzgL8ibIg8ObsIGYLI2klylG/a2ZnAW4ENoyI27ODWJvcAbCFqjeON2TnqFalLKoya9kRtFH8Ad7o4m+L4g6ALZakU4Fds3MA91E2Bzo/O4jZA0nalLKB1azsLMDPI2KX7BDWNncAbDIOAlo4ondJ4FN1kZVZaz5FG8X/Pnyqpk2CJwC2WBFxCeXm1oKdgP2zQ5gtSNILaaNLBvDpiLgoO4S1z48AbFLq4qYrgDWyswC/pyxuujU7iFlji2VvoiyWvSU7iLXPHQCblFps35Sdo1qTstjKrAVvp43iD/BmF3+bLHcAbNLqs/czgCdmZ6GsSdiqPp4wS9HYhllnAjt5wyybLHcAbNLqjeVAyiKjbLNoZ12Cja9P0kbxnwcc5OJvU+EJgE1JfQXvP7NzVLvWxVdmIydpb9o4LwPgMxFxXnYI6xY/ArApa+yY0xsoCwL/lh3Exkdjx2b/mbLw7y/ZQaxb3AGwKavb8b41O0e1NvCO7BA2dt5KG8Uf4HAXf5sOdwBsWiQtAZwFbJ+dBbiHcuLZnOwg1n+S1gMuAZbJzgKcCzw+IuZlB7HucQfApqXecA4CWphBLk1ZjGU2Ch+njeIfwIEu/jZdngDYtEXE/wGfy85RPa0uyjIbGkl7Antl56g+HxG/zA5h3eVHADYjklalLAhcJTsLcB2wcUTcmR3E+kfSMpTW/3rZWYC/Uhb+/TE7iHWXOwA2IxHxJ9pZhPdo2lmcaP3zRtoo/gDvcPG3mXIHwGZM0pLAOcBW2VmAu4BNI+Lq7CDWH5IeTXntb7nsLJSdB7eJiBY25LIOcwfAZqzeiFo5fnRZ4BPZIax3PkYbxR/Kjn8u/jZjngDYQETEbOCE7BzVXnWxltmMSXoa8LzsHNX/RMTp2SGsH/wIwAZG0prAHGCl7CzAVZRHAXdnB7HukrQUcBGwYXYW4DbKrpe/yw5i/eAOgA1MRPyedo7pXY+yaMtsJg6ljeIP8G4XfxskdwBsoCTNAs4HNs3OAtxBeS3w+uwg1j2S1gYuB1bIzgJcSjn++t7sINYf7gDYQEXEXODg7BzV8pTFW2bT8RHaKP4AB7v426B5AmADFxGnAl/JzlHtI+mp2SGsWyTtCrwoO0f11Yj4aXYI6x8/ArChkPRISvv0IdlZKDm28Dcom4zGHmP9jfIY6zfZQax/3AGwoYiI3wLvy85RbQS8PjuEdcZBtFH8Ad7v4m/D4g6ADY2kpSmvUG2QnQW4nfIK1Y3ZQaxdktagnG3RwqusVwKbRcQ92UGsn9wBsKGpN65DsnNUK1AWdZktyodoo/gDHOLib8PkDoANnaRvAs/NzlHtGhE/yw5h7ZG0E3A6oOwswLcjopVrxnrKEwAbOkmPobzH3MJe6hcDW9fXFc2AJg+02iQirskOYv3mRwA2dBFxLXBUdo5qM+DA7BDWnH+ljeIPcJSLv42COwA2EpKWpXQBHpudBbiFsiDwD9lBLJ+kVSkL/1bJzgJcQ/n2f1d2EOs/dwBsJOoNrZVX8VYGPpgdwppxJG0Uf4BDXfxtVNwBsJGS9D3gmdk5gAB2johfZAexPJK2B35JGwv/To6IFq4NGxOeANhISVqfshBvmewswK+A7SJiXnYQGz1JohT/7bOzAPdQ3vm/MjuIjQ8/ArCRiohfAx/NzlFtTVn8ZePpVbRR/AE+6uJvo+YOgI2cpOUp+/M/KjsL8Bdgg4j4c3YQGx1Jq1AW/q2anQX4DWW//79lB7Hx4g6AjVxE3AEclp2jehhlEZiNl/fRRvEH+DcXf8vgDoClkfRjYPfsHMA84AkRcU52EBs+SVtTNv1p4QvQTyLin7JD2HjyBMDSSNoYuABYKjsL8H/ADuELotfqwr8zgCdmZwHuBbaMiMuyg9h4amEGbGOq3vg+kZ2jejzwyuwQNnT700bxB/iki79lcgfAUklaEZgDPCI7C/BHyoLAv2YHscGTtBJl4d8a2VmA31F2o7wtO4iNL3cALFW9Ab4xO0e1GmVxmPXTu2mj+AO80cXfsrkDYE2Q9DPgydk5gPuAbSPiguwgNjiSNqNs/DQrOwtwekS08LNuY84dAGvFwZTim21J4FPZIWzgjqGN4n8fcFB2CDPwBMAaEREXAsdm56h2lrR/dggbDEkvAnbNzlEdW3/WzdL5EYA1Q9JDKQsCV8/OAvyeskjr1uwgNn2SVqDsOrl2dha8yNQa4w6ANaPeGN+SnaNaE3hXdgibsXfQRvEHeLOLv7XEHQBrSt2o5RfADtlZgLmUjVouzQ5iUydpQ+Ai2tho6pfAjt5oylriDoA1pd4gD6Jsz5ttFl4Q2GXH0Ebxnwcc6OJvrfEEwJoTEecCn83OUe0mad/sEDY1kp4HPDU7R/XZ+jNt1hQ/ArAmSXo4Zde2h2VnAX4LbOQT27qhHjd9GbBOdhZ83LQ1zB0Aa1K9YR6enaN6JPD27BA2aW+ljeIP8DYXf2uVOwDWLElLAGcD22RnAe4BNo+IK7KD2MJJWg+4BFgmOwtwHrB9RLSwnsXsQdwBsGbVG+eBQAuz1KWBT2aHsMX6BG0U/6As/HPxt2Z5AmBNi4izgOOyc1R7SHpudgibmKS9gD2zc1RfqD+7Zs3yIwBrnqTVKQsCV87OAlwLbBIRd2YHsftJWpbS+l83OwtwC2Xh303ZQcwWxR0Aa169kb4zO0f1GNrZrdDu90baKP4A73Txty5wB8A6QdKSlONcN8/OAtwFbBoRV2cHMZD0aMprf8tlZ6HsPLh1RLRwsqXZIrkDYJ1Qb6itHKO6LPDx7BA239G0UfwBDnLxt67wBMA6IyJ+DnwxO0f1LEnPzA4x7iQ9Ddg7O0f1xfozatYJfgRgnSJpLcrxritmZwF+DWwWEXdnBxlHkpamtNw3yM4C3EbZLfLG7CBmk+UOgHVKvcG+JztHtT7whuwQY+xQ2ij+AO9x8beucQfAOkfSUsCFwEbZWYA7gI0j4vrsIONE0trAHOAh2VkoHaktIuLe7CBmU+EOgHVOvdEenJ2jWh74aHaIMfRR2ij+AAe7+FsXuQMwYJKOxO+Jj6OnRsSPs0OMA0m7AT/NzmEj9e6IOCI7RN94AjBA9Qjba4EVkqPY6LkNPAKSZgHnA5tmZ7GRugV4TET8NTtIn/gRwGD9Gy7+42oj4HXZIcbAwbj4j6OVKYs+bYDcARgQSQ+jfPtv4fU0y3E7sKFXgw+HpDUpC/9Wys5iKW6ldAFuzg7SF+4ADM5huPiPuxWAD2eH6LEP4eI/zlai3GdtQNwBGABJq1C+/fvmZAC7eEe4wZK0E3BGdg5LdxulC/CX7CB94A7AYByKi7/d71P18CIbgPp3+ensHNaEFSlrrWwAPAGYofrt34u/bEGbAwdmh+iRVwNbZoewZhxc37iyGfIEYOZej7/924O9R9Lq2SG6TtJqwHuzc1hT3AUYEE8AZkDSQ/G3f5vYysAHs0P0wJHAKtkhrDkHS1o1O0TXeQIwM6+j3OjNJvIySTtmh+gqSY8HXpmdw5q0Aj6Ia8b8FsA0SVqZsvL/oclRrG3nAdtHxLzsIF0iaQngl8B22VmsWX8DHhsRf8wO0lXuAEzf63Dxt8XbBviX7BAd9Cpc/G3RHoK7ADPiDsA0SFqJ8u3fzyZtMv4CbBARf84O0gV1V805gJ/x2uK4CzAD7gBMzyG4+NvkPQz4QHaIDnkfLv42OQ8B3pQdoqvcAZgiSSsC1+EJgE3NPODxEXFudpCWSdoaOAd/ObHJu4PSBbgpO0jX+CKbOn/7t+lYAvi0JGUHaVX9u/k0vi/Z1CwPvDk7RBe5AzAF9dv/tZSWrtl0vCoiPpcdokWSXgYcl53DOulOShfgD9lBusQz7ak5CBd/m5mj6gZStoD6Wq03TrLpWg53AabME4BJkrQC3n7SZs5b207s3cAa2SGs014tac3sEF3iCcDkHQT4AAobhNdI2iI7RCskbYYPT7KZWw54S3aILvEagEmQ9BDKs3+/mmSDcnpEPDk7RAsknQbskp3DeuEuYN2I+F12kC5wB2ByDsTF3wbrSZJemh0im6QX4+Jvg7Ms7gJMmjsAi1G//V9DeXZrNki/AzaMiNuyg2So62rmAGtlZ7FeuQtYLyJuzA7SOncAFu+1uPjbcDwCeFd2iETvxMXfBm9Z4K3ZIbrAHYBFkLQ85dv/6tlZrLfmAltGxKXZQUZJ0kbAhcBS2Vmsl+6mdAFuyA7SMncAFu01uPjbcM0CjskOkeAYXPxteJYBDs8O0Tp3ABZC0nKUb/9+N9lGYd+I+Gp2iFGQtA/wtewc1nv3ULoAv80O0ip3ABbu1bj42+h8rC447bX6WO1j2TlsLCyNuwCL5AnABOq3fx8xaaP0SOBt2SFG4HBgnewQNjZeJck/bwvhRwATkPR64OjkGN7QYgTqCXRnAY/PzkJpWW4WEVdmBxkGSesDF1Oez2b7P2CH8A1waOr5DtcC2Wdf/GdEvDo5Q5PcAXgAScvSxrf/z7j4D18tAAcB87KzUFqWn8wOMUSfoI3iPw84yMV/uCLiFvK/SAG8UtKjs0O0yBOAB/sXyvvZme7CJ6ONTEScDbRyRO/TJT0nO8SgSXoW8MzsHNXn6mduw/cJ4ObkDEvhtQAT8iOABdRv/1eRvznJMRFxSHKGsSJpVeAKYJXsLJS26cYRcVd2kEGo19UlwLrZWSjFaIOI+FN2kHEh6R3Ae5Jj3Ev53K9NztEUdwD+0f8jv/jfjb/9j1wtCG/PzlE9hn7tZ/4m2ij+AG938R+5VroA47DIdkrcAagkLUP59r92cpRPR8RByRnGkqQlgHOBrbKzUB4DbRIR12QHmQlJjwEupRzVmu18YNuIaGG9x1iR9Dbgfckx7qWcvdHpa2qQ3AG43z+TX/zvBo5KzjC2amE4EGhhVrws8PHsEANwNG0U/wAOdPFP80ngL8kZlqKdLl8TPAFg/rf/Flqun/OuVbki4hfACdk5qmdLekZ2iOmStAfw3Owc1Qn1s7UE9cTLj2TnAA6Q1MrjqHR+BABIei3w6eQY9wDrR8RvknOMPUlrUBYErpSdBbiSsjfAPdlBpkLS0sBFwAbZWYBbKQvA/pAdZJzV45+vBR6eHOXzEfHK5AxNGPsOQL1RtfLt38W/AbVQtHJM7+OAN2SHmIbDaKP4A7zLxT9fRNxOG12A/SWtlx2iBWPfAZD0auDfk2PcAzwuIq5PzmGVpFnAr4DNsrMAdwAbdWWCKOmRwOVAC2cbXAxsHRFzs4PY/C7ANcCqyVG+EBEvT86Qbqw7APXb/1uzcwDHufi3pRaMg7NzVMsDH80OMQUfpY3iD3Cwi387ahfgw9k5gJfWranH2lhPAIBXkH8wyb3AB5Iz2AQi4jTgy9k5qhdI2j07xOJIegqwb3aO6sv1M7S2fBr4Y3KGJYF3JGdIN7aPACQtRVlglb1H9Gcj4l+SM9hCSFqb0s5eITsLcBmwZUTcmx1kIvWxyQXAJtlZgNspj01uyA5iDybpjcCHkmPcR9lr44rkHGnGuQPwcvKLv7/9N64WkPdm56g2BlreIvoQ2ij+AO918W/ap4GbkjOMfRdgLDsA9dv/FZQtVzP9d0T8c3IGW4z683IRsGF2FuA2ym5mTZ0UKWlNyjW1YnYWYA6weaudEisk/Rv5bwXcB2waEXOSc6QY1w7AAeQX/7nA+5Mz2CTUQtLKN+8VaWMR1QN9mDaKP8AhLv6d8O9A9uuZSwLvTM6QZuwmAPU5ZQuHQpzgPam7IyJ+CHwjO0e1n6QnZYf4O0k7Ay/NzlF9o35W1riIuIM2Dj57kaSNskNkGLtHAJJeCfx3coy5lAVKVyXnsCmQ9GjKQrwW9ra/ENgmIu7LDCFpScoBSltm5qjupByjfF12EJscScsBVwNrJkf5UkS8JDnDyI1VB6Chb///4+LfPbWwHJmdo9oCeG12COA1tFH8AY508e+WiLiTNroAL5S0cXaIURurDoCklwOfT45xH+Xb/6+Tc9g01IOjLgFa2Er0r5QFgSmrqSWtRln499CM8R/gKspirruzg9jUSFqW0gV4RHKUr0TEi5IzjNTYdABqq7KFoyBPdPHvrlpgXp+do3ooucdHH0UbxR/g9S7+3RQRd9HGMegvkLRpdohRGpsOgKSXAcclx7iP8ozyyuQcNkOSvgvsmZ2Dcs79EyPirFEOKukJwJmARjnuQnw3Ip6VHcKmr3YBrgLWSo5yUkS8MDnDyIxFB6B++2/h2f8XXfx743VAC984BXxK0siu5TrWp2ij+LfUkbFpaqwL0MIBYCMxFhMA4CWUY1Uz3Qe8LzmDDUhdxNnK+/jbAv9vhOP9M7DdCMdblA97QW1vfAbI3r1RtHMU+ND1/hFA/fZ/Kflnk58YEa28K20DUF9huoz8LaUB/kxZEPjnYQ4i6WGUhX8PH+Y4k3Qd5ZHandlBbDAkHUjpLmUKypkbFyXnGLpx6AC8mPziP4929pO3AamF57DsHNXDGc3Oku+njeIPcJiLf+/8F/Db5AwCjkjOMBK97gDUZ5WXkr+H+1huMjEuJP0QeGp2DspE8/ERce4wfnNJ2wBn08YXhx9FxNOyQ9jgSXoNcGxyjAC2jogLknMMVd8nAC8BTkyOMQ/YLCIuS85hQyJpQ8phQUtlZwHOorwVMNALW5KA2cCOg/x9p+leymE/Y3mAS99JWhr4NfCo5CjfjIjnJWcYqhZm8kNRv/23cNTjSS7+/VYL0dHZOaodKEddD9rLaKP4Axzt4t9fEXEPbRyT/lxJW2WHGKbedgAkvRj4YnKMeZRvKpcm57Ahk7QCcDmwdnYWyjnrG0bEXwfxm0lambLwb/VB/H4zdANlJ83bs4PY8NQuwJXAOslRvh0Rz03OMDS97AA09O3/ay7+46EWpDdk56hWB94zwN/vPbRR/AHe4OLff7UL0MJx6c+RtHV2iGHpZQdA0guBLyfHCMq3/0uSc9gISToV2DU7B2XfiW0i4sKZ/CaSNgd+RTk3PdtpEbFbdggbDUlLUboA2a/ZficinpOcYSh61wGoi5Va+fbv4j9+DqYc95xtSQbzPvWnaKP4z6X83dqYiIh7aaML8GxJ22aHGIbeTQCAFwDZBzoEfu9/LEXExeRvZPJ3T5K033T/z/UtmicPMM9MfKr+3dp4OQ64NjkD9HRfgF49Aqjf/i8Esvdy/npEPD85gyWRtBJl0dwa2VmA31EWBN42lf+TpBUpixqzD2cB+AOwQUTcmh3ERk/SqygbBGXbPiLOyQ4xSH3rAOxDfvEPBrsAyzqmFqo3Z+eoHgG8cxr/v3fSRvEHeLOL/1j7AnB1dgjg3dkBBq03HYD67f8CYPPkKL3fPMIWr/48ngE8MTsLZeOcLSe7H4WkjSnXUgsbG/0C2HnQGxtZt0h6BfC57BzAEyLi/7JDDEqfOgB7k1/8gx7OEm3qasE6iLIXRLalgGOm8L//JG0U/3nAQS7+BpwAtHDq4xHZAQapFxOA+m1rOm3OQft23/eOtsmLiF8B/5Gdo9pd0mLXpdT/zT+NIM9k/Ef9O7QxFxFzaeM49WdIekJ2iEHpxSMASXsD38jOQXnv2jcsm0/SKpQFgatmZwF+Q9lF746J/ktJy1MW/mXvwQ7wJ8rCv5uzg1gb6tHulwPrJ0c5JSKenpxhIDrfAWjo2/93XPztgWoBOzw7R/Uo4G2L+O/fRhvFH+BwF39bUETcRxuvV+8hqZVzMWak8x0ASc8BvpWdA9g2Is7LDmHtqVtTnwVsn50FuIdyOuWVC/6HktYHLgaWSUn1j84GdoiIFtZPWENqF+Ay4HHJUX4YEXskZ5ixzncAgHdlBwD+18XfFqYWsoMoi0SzLQ18YoL//JO0UfyDsvDPxd8epKEuwNMktfCGz4x0egIg6dlACwc1+L1/W6T66lALrzFBWcj07L//m/qvn5GYZ0Gf69NrVjYUX6Ssq8nW+Te+Ov0IQNI5QPYezd+LiL2SM1gHSFoNmAOskp0FuAbYpP7rS4HHJmb5u5spuxb+MTuIta1ucf0/2TmAJ0XEGdkhpquzHQBJe5Ff/KEHs0AbjVrYWjioCkrBf3P91ULxB3iHi79N0pcobwRk6/T9v7MdAElnA9slxzg5Ip6ZnME6pC5iOgfYKjsLcGf953KpKYrzge3qM16zxZL0YsrjgGxPjojTs0NMRycnAJL2BL6bnYOyUvmX2SGsWyTtRNkm2O63c0TMzg5h3VHfrrkY2Dg5yqkR8ZTkDNPS1UcALaz8/4GLv01HLXQnZOdoyAku/jZV9U2RFhZg7yZpl+wQ09G5DoCkZwDfz84B7BgRZ2WHsG6StCZlQeBK2VmS3UpZ+Pf77CDWPbULcBH3L2jN8rOI2DU5w5R1sQPQwrf/H7r420zUgndEdo4GHOHib9NVuwAtLMTbRdJu2SGmqlMdAElPB07OzgHsFBG/yA5h3SZpFmXx26bZWZJcAmxVD3oxm5a6HfxF5F9HP4+ITj0K6FoHoIVv/z9y8bdBqIXv4OwciQ528beZqsdFt9AFeLKkTi0G7MwEQNLTgB2yc9DGD5r1REScCnwlO0eCr9Q/u9kgfI3SBcjWqfrQmUcAkmYD2Xsv/yQiWjkr3XpC0iMpm5o8JDvLiPyNcizxb7O4QnesAAAMAUlEQVSDWH9I2ocyEcj21Ij4cXaIyehEB0DSU8kv/tCx2Z11Qy2ELRxwMirvdfG3IfgGcGF2CDq0uLcTHQBJZwA7Jcfo7GYP1j5JS1NamBtkZxmyK4DNI+Ke7CDWP5L2pkwEsj0tIn6UHWJxmu8ASNqd/OIPHZrVWffUgnhIdo4ROMTF34boW5Q3a7J1olvc/ASANlb+nxYRP88OYf0WEacA38zOMUTfrH9Gs6Fo6I2AHSXtkR1icZp+BFA3Vvhpdg5gt4g4LTuE9Z+kRwOX0cYBPYN0J7BxRFyXHcT6T9J5wNbJMc6KiB2TMyxS6x2AI7IDUDZ3OC07hI2HWiCPys4xBEe5+NsIHZEdANihbl3frGY7AJJ2BVp4T3j3iGihC2FjQtKylF3y1s3OMiBXA5tGxF3ZQWx8SDoX2CY5xv9FxBOSMyxUyx2AFp79n+7ib6NWC+Xrs3MM0Otd/C3BEdkBgMdLemZ2iIVpsgMg6cnAz7JzAP8UET/JDmHjSdL3gGZvHpP0/YjYMzuEjSdJZwPbJcc4OyIen5xhQq1OAH4KZJ+sNDsidk7OYGNM0vrAxcAy2Vmm6W5gs4j4dXYQG0+S9gS+m50DeFZEtJDjHzT3CEDSk8gv/tDGqyQ2xmrh/Eh2jhn4iIu/ZYqI7wFnZ+egjccRD9JcB0DSj4Hdk2P8IiJa2HzIxpyk5SmvBa6TnWWKrqe89ndHdhAbb3Ul/vezcwDPjoj/zQ6xoKY6AJJ2Ir/4g7/9WyNqAT0sO8c0HObiby2IiJOBX2bnoMEuQFMTANpY+X9WRPwwO4TZ30XE14FOnC5W/bhmNmvFEdkBgG0kPSc7xIKaeQQg6YnA7OwcwDMi4gfZIcwWJGkjyklnS2VnWYx7gS0i4vLsIGYLknQmsENyjPOBbaKRwttSB6CFb/+/dPG3FtWC+vHsHJPwcRd/a1QLNWYroJkuQBMdAEk7AGdm5wD2jIgWFouYPYikFYA5wFrZWRbiRmDDiLg9O4jZRCTNBp6YHOMCYOsWugCtdABamJmd7eJvLauF9Q3ZORbhDS7+1rgjsgMAWwJ7Z4eABjoAkp4AnJUaotirvjNq1jRJpwG7ZOd4gJ9FxK7ZIcwWR9IZQPZr3hcCW2V3AVroALTw7f8cF3/rkIOBudkhFjCXksmsC1qoOVsA+2SHSJ0ASNoeaOG4xPdkBzCbrIi4CPh0do4FfLpmMmtePd/l9OwcwLskKTNA6iMASd8Fsg8KOS8itk3OYDYlklamLAhcIznKHygL/25JzmE2aZJ2A1o46XXfiPhq1uBpHQBJ25Ff/MG7/lkH1YL7luwcwFtc/K1rIuJU4OfZOShdgLw6nNUBkPS/wF4pg9/vVxGxTXIGs2mp7cPZwI5JEc4EdspeyGQ2HZJ2BU7NzgG8KCK+kjFwygRA0rbAOSMf+MH2johvZYcwmy5J21BOOxv1t4h5wPYRcd6IxzUbGEmnArsmx7gU2Dwi5o164KzWwzuTxl3QBcC3s0OYzUQtwJ9JGPozLv7WAy28EbAJsG/GwCPvAEjaGmjhxrFPRHwjO4TZTEl6GHAF8PARDflnYIOI+MuIxjMbGkk/AZ6SHONyYNNRdwEyOgAtzLguBL6ZHcJsEGohPnyEQx7u4m89ckR2AGAj4EWjHnSkHQBJW1G+/ae++wg838eVWp/UlcS/BLYb8lDnAE/IeF5pNiySfgzsnhxjDrDJKK+tUXcA3kl+8b8IcOvfeqXeNA4ChjmjD+AgF3/roRY60xsCLxnlgCObAEjaEnjuqMZbhPf6tSXro4j4JfD5IQ7x+TqGWa9ExGzgR9k5gHdIWnJUg43sEYCkrwPPG8lgC3cJ5XULTwCslyStRlkQ+NAB/9Z/pSz8++OAf1+zJkh6ImVfjWwHRMQJoxhoJB0ASZvTxvGH73Hxtz6rBfodQ/it3+Hib30WEb8AfpidgxF2AUbSAZD0VeD5Qx9o0dI2WzAbpXrzOJdy7vggXABsGxH3Dej3M2uSpB0oO1xme3lEfGHYgwx9AiBpM8prd9mL/14cEV9OzmBmZg2TdDLw9OQYVwEbRcRQj/0exSOAd5Bf/C8DTkrOYGZm7TsiOwCwHvDSYQ8y1A6ApE0pr91lTwD2i4gvJmcwM7MOkPQ94JnJMa6mHLU9tC7AsDsALXz7nwO49W9mZpN1xP9v7z565KiiMAy/R+Scc7CNiP+DHYI9CJGzQCDnhGTCkLeAyDkIEEn8DxBZJnhMTiJnEIdF28hGE7q6bs1td73Psqfq9rercz/11K0dADgOOKfLL+isAYiIU4A3qXfg0FZnZ+YTlTNIknYgEfEKcFrlGJsY/PttJy1Alw/naztefxgbcfcvSWpuQ+0AwBLgvK4W76QBiIiTGbx0p/YAsGAvVJAkTZaIeBk4vXKMaQYtwF+lF+7qAT0Ou//3AH/4J0ka1YbaAYDFdNQCFG8AIuIkBi/dqT0AnJuZj1bOIEnagUXES8AZlWNsBk4o3QJ08ZBe39G6TbwP+MM/SVJbG2oHABYBF5RetOiDOiJOBM4sueaIpnxtqSSprcx8FXixdg5gbUTsWnLB0jv19cCCHWU4iw+AxytnkCRNjuuA2gfJHUvhFqDYABARxwNnlVqvhZu6fn+yJKk/MvM14IXaOSjcApRsAMZh978J8Id/kqTSxqEFOAa4qNRiRQaAiFiQgwuGMOXuX5JUWma+DjxfOwewJiJ2K7FQqQZgHHb/07j7lyR1ZxxagKOBi0ss1HoAiIjjGI/d/01dvClJkiSAzHwDeK52DmB1iRagRAOwDti5wDptbAYerpxBkjT5xqEFOAq4pO0irQaAiFhCx8cVDsndvySpc5n5FvBs7RwMWoDd2yzQtgFYS/3d/0e4+5ckLZzrgH8qZzgSuLTNAiMPABGxGDi3zZcXcnNm/lk7hCSpHzLzbeCZ2jmAVRGxx6g3t2kA1gK7tLi/hI+BBytnkCT1z/XUbwGOoEULMNIAEBGL6Oh4woZucfcvSVpomfkO8HTtHLRoAUZtANZQf/f/CfBA5QySpP66gfotwOHA5aPc2HgAiIhjgfNH+bLCbsnMP2qHkCT1U2a+CzxVOwewMiL2bHrTKA3AGqDokYQj+BS4v3IGSZKuB2ofP38YcEXTmxoNABFxDIWPIxzRre7+JUm1ZeZG4MnaOYAVEbFXkxuaNgCrqb/7/wy4r3IGSZK2uoH6LcChNGwBhh4AIuJo4MKmiTpwa2b+XjuEJEkAmfke8ETtHDRsAZo0AKuBIkcQtvA5cG/lDJIk/d84tACHAFcOe/FQA0BEHAVcNGqigm5z9y9JGjeZ+T7wWO0cwPKI2HuYC4dtAFZRf/f/BXBP5QySJM3mRuDvyhkOZsgWYN4BICKOBC5um6iA2zPzt9ohJEmaSWZ+ADxaOweDFmCf+S4apgFYBbQ6crCAL4G7K2eQJGk+U9RvAQ4CrprvojkHgIg4ArikVKIW3P1LksZeZn4IPFI7B7BsvhZgvgZgJfV3/1/h7l+StOO4EfircoYDgavnumDWASAiDqfFMYMF3ZGZv9YOIUnSMDJzGni4cgyApRGx72x/nKsBWAmMdMRgQV8Dd1XOIElSU1PUbwEOYI4WYMYBICIOAy7rKlEDd2TmL7VDSJLURGZuBh6qnYNBC7DfTH+YrQFYQf3d/zfAnZUzSJI0qingz8oZ9geumekPkZnbfxBxKLAJaHy2sCRJGjvfA0sy8/ttP5ypAViOD39JkibFjC3Adg1ARBzCYPff6ExhSZI01n4AFm/bAvy/AViOD39JkibNfsDSbT/4rwGIiIOBaRwAJEmaRD8yaAG+g+0bgGX48JckaVLty+BZD2xpACLiIAa7/6HOEJYkSTuknxi0AN9ubQCW4cNfkqRJtw9bWoBgcGDA9JYPJUnSZPsJWLITsA44tXIYSZK0MHYD/gkGvwp09y9JUn/8HEDOe5kkSZoocx0HLEmSJpQDgCRJPeQAIElSDzkASJLUQw4AkiT1kAOAJEk95AAgSVIPOQBIktRDDgCSJPWQA4AkST3kACBJUg85AEiS1EMOAJIk9ZADgCRJPeQAIElSDzkASJLUQw4AkiT1kAOAJEk99C+mbgySTHLPeAAAAABJRU5ErkJggg==;rotation=0;" vertex="1" parent="250">
                    <mxGeometry x="324" y="11" width="28" height="28" as="geometry"/>
                </mxCell>
                <mxCell id="256" value="" style="shape=image;verticalLabelPosition=bottom;labelBackgroundColor=default;verticalAlign=top;aspect=fixed;imageAspect=0;image=data:image/png,iVBORw0KGgoAAAANSUhEUgAAAgAAAAIACAYAAAD0eNT6AAAABHNCSVQICAgIfAhkiAAAAAlwSFlzAAAOxAAADsQBlSsOGwAAABl0RVh0U29mdHdhcmUAd3d3Lmlua3NjYXBlLm9yZ5vuPBoAACAASURBVHic7d15tF1VneDx73sZXgwEQgYGmYIQBiGAggoSh1KkQAR1WWqt7kbLobCrFWfbWlVdirbaaDmhZa1iWWo7LLoLSkXUxhZKLYWAKCoEZBAJM0lIyEAgE3mv/9j3tc9H8t67955zfuec/f2s9VuJLs3eZ+8z/O4+++wNkiRJkiRJkiRJkiRJkiRJkiRJkiRJkiRJkiRJkiRJkiRJkiRJkiRJkiRJkiRJkiRpvIHoCihLM4AjgSOAwzt/HgbMAXYD9ur8CfAYsA7Y1Ik7gds7cQdwG7C9wrprcvZvu9m/LWECoCpMI90wTgFOBU4D9izo334cWAZcBVwD/BxvKFWzf9vN/pXUtaOBC4CVwEhFsRa4CFhawfHlzv5tN/tXUlfmAO8Gbqa6m8auYjnwLmD3Uo84L/Zvu9m/krq2B/B+UgYffeMYHxtIv2TmlXb07Wf/tpv9K6lrs4GPABuJv1FM5Uby4U6dNTX2b7vZv5J6chawgvgbQ7dxP/C6EtqjbezfdrN/JXXtQOC7xN8I+o3LO8eiP2b/tpv9K6knLwPWEH/xFxVrgDMLbaFms3/bzf6V1LXpwPnADuIv+qJjGLgQmFlUYzWQ/dtu9q+knswDrib+Qi87fkpaxSw39m+72b+SerIfcCPxF3dVcQt5vVe0f9vN/pXUkyOBe4i/qKuOB4AlBbRf3dm/7Wb/SurJUcDDxF/MUfEw6QbaVvav/dvmaHv/SqXZH7ib+Is4Ou4DDuqvKWvJ/rV/c4i29q9Umrnk9c5wsriFdi1Bav/avzlF2/pXKs0M8pgt3G38tNM2TWf/2r85Rlv6VyrVJ4m/WOsaH++jXevC/rV/c4029K9UmpeSFtSIvlDrGsPAy3tu3Xj2r/2bczS9f6XSHEi7lgctKx4GDuixjSPZv/av0dz+lUp1OfEXZ1Pish7bOJL9a/8aze1fqTSvIP6ibFqc1VNLx7B/7V+juf0rlWY2cBfxF2TT4h5gtx7au2r2r/1rNLd/SzctugIK9UHg7OhKNNCewBPAT4LrMRn7tzf2b7s1pX9LNxBdAYWZR1otbE5wPZpqI7AIWBdcj12xf/tj/7Zb3fu3EoPRFVCYt+PNox97AG+LrsQE7N/+2L/tVvf+rYQjAHnajfTrYUFwPZruEdKviEeD6zGe/VsM+7fd6tq/lXEEIE9vwZtHEeYBb46uxE7Yv8Wwf9utrv0rleom4mfitiVu7rLtq2D/2r9Gc/tXKs0JxF90bYvju+qBctm/9q/R3P6tlK8A8nNOdAV2YgfwM+C9wMnAPsDMTuzT+e/eR9rpbEdQHSfyuugKjGH/Fs/+nZj9KzXANGAV8Rn3aDxO2qVr7y6OYW/gE8DmGtR/NB6iHsm0/Wv/2r/N7V+pVCcSf7GNxqWkTUx6dRDwrRocx2g8o49jKYr9a//av83tX6lU7yf+QhsGzqeYT1AHOse0owbH9Z4Cjqdf9q/9a/82t3+lUl1B7EW2A/jzEo7rPxC/F/r3Sziubtm/9q/929z+lUozA9hE7EX2NyUe398FH9tGUhtHsX/tX/u3uf0rlWoJsRfYpZS78uQA8e8Ujy7x+CZj/9q/9m9z+1cq1Z8Rd2Ftpr8JQ1O1P2lmctRxvrL8Q9wl+9f+tX+b278h/PQhH0cEln0hcF8F5TwAfKGCcnYlso3t3/LZv+XKuX+lUn2VmKz6Cbr7Trhf+xA3q/grFRzfrti/9q/929z+DeEIQD6eFlTuMmB1heWtAq6tsLyxoto4smz7t91l278tZgKQj7lB5V4WUOZ3AsoE2DOoXLB/q2D/ViPH/g1hApCPOUHlLsukTIA9gsoF+7cK9m97y4TY/g1hApCP3YPK/X1AmXcGlAlxN2mwf6tg/1Yjx/4NUeZ3naqXraTduao2BGwLKHNLxWVCauNZAeWOlm3/lsv+ra7M3Po3hAlAPkaCyo06xzzeani81fB4q5HVM9FXAJIkZcgEQJKkDJkASJKUIRMASZIyZAIgSVKGTAAkScqQCYAkSRkyAZAkKUMmAJIkZcgEQJKkDJkASJKUIRMASZIyZAIgSVKGTAAkScpQVlsfjhO13aQkSeEcAZAkKUMmAJIkZcgEQJKkDJkASJKUIRMASZIyZAIgSVKGTAAkScqQCYAkSRkyAZAkKUMmAJIkZcgEQJKkDJkASJKUIRMASZIyZAIgSVKGTAAkScqQCYAkSRkyAZAkKUMmAJIkZcgEQJKkDJkASJKUIRMASZIyZAIgSVKGTAAkScqQCYAkSRkyAZAkKUMmAJIkZcgEQJKkDJkASJKUIRMASZIyND26AhkaCCp3JKjcqOPNjf3bbvZvu4X0ryMAkiRlyARAkqQMmQBIkpQhEwBJkjJkAiBJUoZMACRJypAJgCRJGTIBkCQpQyYAkiRlyARAkqQMmQBIkpQhEwBJkjJkAiBJUoZMACRJypAJgCRJGTIBkCQpQyYAkiRlyARAkqQMmQBIkpQhEwBJkjJkAiBJUoZMACRJypAJgCRJGTIBkCQpQyYAkiRlyARAkqQMmQBIkpQhEwBJkjJkAiBJUoYGoisQaCSo3JzbXJL0ZCHPI0cAJEnKkAmAJEkZMgGQJClDJgCSJGXIBECSpAyZAEiSlCETAEmSMmQCIElShkwAJEnKkAmAJEkZMgGQJClDJgCSJGXIBECSpAyZAEiSlCETAEmSMmQCIElShkwAJEnKkAmAJEkZMgGQJClDJgCSJGXIBECSpAyZAEiSlCETAEmSMmQCIElShkwAJEnKkAmAJEkZMgGQJClDJgCSJGXIBECSpAwNRFcg0Eh0BSRJiuIIgCRJGTIBkCQpQyYAkiRlyARAkqQMmQBIkpQhEwBJkjJkAiBJUoZMACRJypAJgCRJGTIBkCQpQyYAkiRlyARAkqQMmQBIkpQhEwBJkjJkAiBJUoZMACRJypAJgCRJGTIBkCQpQyYAkiRlyARAkqQMmQBIkpQhEwBJkjJkAiBJUoZMACRJypAJgCRJGTIBkCQpQyYAkiRlyARAkqQMmQBIkpSh6dEVyNBAdAUkSbUyElGoIwCSJGXIBECSpAyZAEiSlCETAEmSMmQCIElShkwAJEnKkAmAJEkZMgGQJClDJgCSJGXIBECSpAyZAEiSlCETAEmSMmQCIElShkwAJEnKkAmAJEkZMgGQJClDJgCSJGXIBECSpAyZAEiSlCETAEmSMmQCIElShkwAJEnKkAmAJEkZMgGQJClDJgCSJGXIBECSpAyZAEiSlCETAEmSMmQCIElShqZHV0ClmQbsA+wP7DfmzwXA3E7s2flzdufvo3YHZnT+/hiwrfP39cAIsL3z9zXA2jGxBngYeABYAawu5cikdB7mZCCoXNu5xbI62HGiTuyi2/xg4CjgMOBwYHEnDiY+wXuclAjc3flzBbC8EyvjqqUW8MFUDdu5GiHtbAJQvV7bfBpwDPBM4LgxsVdB9araauCmTiwHbgBuAYYjK6XG8MFUDdu5GiYAFat7ArA7cDxwCrC082dTH/ZTtQm4EbgauAb4KbAhtEaqKx9M1bCdq2ECULG6JQAzgJOAlwCnASeSfvXn7AngV8BVwBXAdZ3/TvLBVA3buRomABWrQwKwD/By4EzgT4A5ITVqjnXAlcAPOvFQbHUUyAdTNWznapgAVCzqxD4UeGUnTsZPMXs1AvwC+BfgUuC+2OqoYj6YqmE7V8MEoGK5ndht91vga8DXgQeD66Ly5Xb9ZvVgCpRVO5sAqG2GgZ8AXwK+BWwJrY3Kktv1m9WDKVBW7WwCoDZbD1wC/CPp6wK1R27Xb1YPpkBZtbMJgHJxDXARac7Atkn+t6q/3K7frB5MgbJqZxMA5WYV8E/A54BHguui3uV2/Wb1YAqUVTubAChXm4CLgU8BdwTXRd3L7frN6sEUKKt2NgFQ7naQ5gl8GLgtuC6autyu36weTIGyamcTACkZBr4J/DccEWiC3K7frB5MgbJqZxehkZJB4NWkDYm+RlqwSZJayxEAaee2kSYLfggnC9ZRbtdvVr9MA2XVziYA0sTWkZKAL+BGRHWS2/Wb1YMpUFbtbAIgTc3twLuB/xNdEQH5Xb9ZPZgCZdXOzgGQpuYI4PvAZcDBwXWRpL6ZAEjdeTlp46H3A9OC6yJJPcs1ATg+ugJqtNnABaTlhY8Jrosk9SS3BGAa6Zfbz6MrolZ4DvArUjIwFFwXSepKTpMAFwNfBU6Oroha6WbgPwI3RVckE05Oq4btXA0nAZZkADiX9EvNh7/KcgxwPWmEKYfrSlLDtX0EYF/gi8DLoiuirFwFvB54MLoiLeYv02rYztVwBKBgZ5KWdfXhr6qdCvwGOCu6IpK0K21MAAZIw7CXA/OC66J8LQS+A1wITA+uiyQ9SdteAexBmuj3iuiKSGP8O/BaYFV0RVrEoelq2M7VcCngPh0HfAt4WnRFpJ24H/gz/AS1KD6YqmE7V8MEoA/nABcBT4muSA2NkCajrejEfcAaYO24eAJY3/n/bAMe6/x9N2Bm5+9zScPZ88fFQuBAYBFwCPBU2nNuFWkL8Fbgy9EVkVQrJgA9GAQ+BbwzuiI18ATwO2A5cGPnz9uAe4GtFddliLRe/hHAsWNiMS6fC/BJ0jyV4eiKSKoFE4AuzQK+AbwquiJBVgLLgKuBa0mzzreE1mhys0jLMD8XWNr5c5/QGsX5V+B1wOboikgKl9urlr7MA35GarRcYh1wKfBG4LD+m7A2FgNvIj0Q1xPfzlXGMtLrE0l5i7oHNc7BpN3Yom/eVcRy4GPA88jjU7LpwPOB/0FaWje6/auIO0mvSiTlK+r+0yjHkya0Rd+0y4zfAucDTy+myRrtaOBDpLkM0f1SZqwBTiyozSQ1T9S9pzFOBTYSf7MuI1YBnyBNlNPOHUeaPLea+P4qI9aT5kVIyk/UfacRTiNNloq+SRcZO4ArSRPB/Hxx6mYCrya13TDx/VhkPEY61yXlJeqeU3un066H/0bgM7hgUREOBT4LPEp8vxYVW4Czi2wkSbUXdb+ptT+lPQ//+0nffs8ttIUEsBfw18ADxPdzEbGNNMohKQ8mAOO0Zdj/TuAv+MNqeirPTNJnkncR3+9FJAGOBEh5MAEY4yXA48TfhPuJe4F3kFbFU7VmkOZW/J7486Cf2AqcUXDbSKofE4COF9Psh/9K0nrv/uKPNwScR/rKIvq86DU24dcBUtuZAABLaO5qcNtIe7/vWXirqF+7kdZW2EL8edJLbACeVXSjSKqN7BOAg2nuIj+X0a7ledtqMXA58edLL7EGVwyU2irrBGAezVze9y78bruJzgDuJv786TbuxL0DpDbKNgGYRfM29tkBXATsXkJ7qBqzgQtI2yhHn0/dxPWduktqjywTgEHgEuJvqt3ETcCzy2gMhTiJtOlS9HnVTVxKunYktUOWCcBniDvwbmMHab1+Z/e3zxBpn4EmLS3896W0hKQI2SUAb5igUnWL+4AXldMMqpFTadZqgm8opxkkVSyrBOAZNOdb/0tJkxSVh/nAt4g/76YSm4ETymkGSRXKJgHYi2as0LadtHa/8nQuaW2H6PNwsrgHvwyQmi6LBGAQ+H5BFS8zVuOQv+B5wEPEn4+TxVXAtJLaQFL5skgAzi+o0mXGL4CDSjp+Nc/+wDLiz8vJ4mNlNYCk0rU+ATidNJM++kY5UXwdZ/nryYaAi4k/PyeKYeDMshpAUqlanQAcAKyt6IB6vXl+GBgoqwHUeAPAR4k/VyeKVcC+ZTWApNK0NgEYAK4IOripxHbgLaUdvdrmL6j35MAfYCIrNU1rE4C3BR7cZLEJeEl5h66WOh14jPjzd1fx9vIOXVIJWpkAHAo8GnhwE8V64JTyDl0tt5S0TW/0ebyz2AIcW96hSypY6xKA6cC1gQc2UawBTizv0JWJZ1HfuS03kSYvSqq/1iUAfxt4UBPFSmBJicddN607sWrmWNI5FX1e7yzOL++ww0W3bS7XU/Rx284lRlmThY4Hfk79PqlbT1rg59fRFalQ1Emd00S0JcCPScsI18k24JnALdEVKUHkzTpC1PVkO1cjpJ3L2FJ0OvBV6vfw30Ca8JfTw1/VWA6cAWyMrsg4M4Ev4tbBknaijBvDW6nfBKTHgbOBX0ZXRK31C1ISsCm6IuOcTLomJemPFD3csS9wG7Bnwf9uP7aTVki7MroiQXwFUK3TgcuBGdEVGeNR4Bjg3uiKFMih6WrYztVoxSuAj1Ovh/8IaVe3XB/+qt4PgL+KrsQ4c4DPRldCUnudQlpSN3oW59j4UKlH3Ay5zaatizouG3xaqUdcrei2zOV6ij5u27kBxzuNNLkuuvPGxv8i32HosRp9YjXYAPA14q+DsXELaZJuG0S3ZS7XU/Rx284NON7zAg9gZ3EN9fsKIUqjT6yGGwKuI/56GBv/udQjrk50O+ZyPUUft+1cYhTxC3k+cCcwt4B/qwgrgROAB6MrUhNRJ7WjL8kBwA3A3tEV6VgDLCatidFkkTfrCFlNTguUVTsXMQnwv1Kfh/924DX48Fd93A+8FngiuiIdC4APRFdCUvPtS712RXMXtCfLbSitrt5D/PUxGluBRaUebfmi2zCX6yn6uG3nGh/v5wMrPj4u7fdgWqqRJ1YLDQDfJv46GY2Lyj3c0kW3Xy7XU/Rx284lRj/vOw4C7qAeO449ABxH2plNfyzqpHYOwJPtBdwIHBhdEdLrsiOBu6Ir0qPIm3WErN5NB8qqnfuZA/BB6vHwHwZejw9/1d864E2kczbaDODvoishqXkWk35BRA/XjJBWH9Su5TaU1gSfIv66GSFNTDyy5GMtS3Tb5XI9RR+37VzD4704sMJj4yb83n8yjTqxMjFE2kEw+voZAb5R8rGWJbrdcrmeoo/bdi4xennfsYj03f+0Hv6/RRoGlgLXBtej7qJOaucATOzZwDLir6MdwOE0by5A5M06QlbvpgNl1c69zAF4J/E3LUibm/jwV1NdD3whuhKka/lt0ZWQVL1us505wH3E7/h3D2l707rtvV5HjgDU126kVwGHBNfjUdJXPU1aHdBfptWwnavRiBGANxP/8Ie0xa8PfzXdY9Tj1/cc4C3RlZBUrW6ynWmk7/6fVlJdpuoy4JXBdWgSRwDq73vAmcF1eJA0ErEtuB5T5S/TatjO1aj9CMAriH/4bwXeF1wHqWjvJv7B+1TSngWSMtFNAvDu0moxdZ8lfYEgtckdwD9EV4L0ak1SJqY63HEC8MsyKzIFq0ifK20MrkfT+AqgGeaSEoGFwfV4OnBrcB2mwqHpatjO1aj1K4A3lFqLqfkwPvzVXuuBj0ZXgjTRV1IGppLtzCRttrOg5LpM5F7Sr/+tgXVoKkcAmmMW8DvggMA6rAX2p/7Xmr9Mq2E7V6O2IwAvI/bhD/Dfqf8NSerXFuBjwXWYT5rwK6nlppIAnFN6LSb2e+CrwXWQqvIl4O7gOvxlcPmSKjBZArAAeGkVFZnAR0g7D0o52Eb8XIAXAvsF10FSsPOI3Znpftztr1+57arVBkOkhXkir73zSj9KSaNCrvPJRgBeV9TR9ehzxC+QIlVtK/HrArwmuHxJgQ4n9hfIRtK30eqPIwDNNI+0SU9U/+0g9msEKSe1GwF4eZFH14N/plm7k0lFegT4cmD5g8CrA8uXFOgnxP76iN53oC0cAWiuw4Bh4vrwuvIPURI1u0/vRZp5H1WpH3bZeNq1Wp1Y6tqPiOvDYfwaQKpCyDW+q1cApwPTCz7AbnwxsGypTiKvhQHgtMDyJZVoVwnAyyqtxR9bA1weWL5UJ98EHg4s//TAsiWVaGcJwDRiL/qv4LK/0qhtwDcCyz+NdE+Q1DI7SwBOIX2CFOXrgWVLdRSZAMwDnh1YvqSS7CwBOKPyWvzBrcDywPKlOvoVaZfAKJH3BEkl2VkC8PzKa/EHlwSWLdVZ5LXxksCyJVVkiLQladRnR08v/xCz42eA7bCEuL7cBswu/xClbNXiM8ATSUlAhJuB3waVLdXdcuC2oLJnAM8KKltSScYnAEtDapH46Z80se8Gln1KYNmSSjA+AYi8yK8ILFtqgshrxARAapmBcX9fBSwMqMeGTrnbA8puu6j38QOT/0/UpRmkRYH2DCh7PTCftDywpGKF3KfHjgAcTszDH+BKfPhLk9kO/Dio7Lk4SVdqlbEJgMP/Uv1FXisnBJYtqWBjE4BnhNUibT0saXL/Hlj2ksCyJRVsbAIQNby3CrgrqGypae4AVgeVbQIgtcjYBOCooDpcHVSu1EQjwLVBZR8bVK6kEowmAHOB/YLqcE1QuVJTRV0z+wJ7B5UtqWCjCUDk7N5lgWVLTRQ5auZrAKklRhOAqOH/J4Abg8qWmupGYEdQ2ccElSupYNEjAHeQNh+SNHWPA3cGlX1IULmSChadANwUVK7UdFHXjgmA1BKjCcARQeUvDypXarqoa8cEQGqJQdKa7U8NKt8RAKk3UQnAoqByJRVsEJgHDAWVf3tQuVLTRV07c0ibAklquOnEff8/DNwbVLbK5y6E5VpBauOI4z0EWBtQ7lhR51eUqPPadm6xQdLiHhEeBLYGlS013RZgZVDZBwaVK6lAg8S9/787qFypLe4OKndBULmSChQ5ArAiqFypLaKuIRMAqQUiE4D7gsqV2iJqDo2TAKUWiHwFsCaoXKktoibimQBILTD6GWCE6FnEUtNFJdG+ApBaYBB4SlDZjgBI/XEEQFLPBolbBMgRAKk/UUn0HkHlSirQIDArqOxHgsqV2iLqGor60SCpQJGvADYHlSu1RdQ1NDOoXEkFihwBcBVAqT9R15AjAFILRCYA24LKldoi6hpyBEBqARMAqbkcAZDUMxMAqblMACT1bJDMtj+UJEkpAfA9otRMUb/EHb2TWsAEQGquqARge1C5kgo0SNx7RBMAqT+OAEjqWeQIgBOJpP5EJdEmAFILRI4ARK1AKLVF1DXkKwCpBSJHAKK2IZbaIuoa2hRUrqQCDQIbg8p2T3GpPwuDynUjL6kFBonbltcEQOpP1DW0PqhcSQUaJG5P8flB5UptEXUNrQsqV1KBHAGQmisqAXAEQGqByBGAA4PKldoi6hpyBEBqgcgRgEVB5UptcUhQuQ8FlSupQJEjAFE3L6ktFgWVe39QuZIKNEjcxbwfrgYo9eopwL5BZZsASC0wHVgRVPYgcDBwR1D5uXC753ZaRFzfPhBU7lie19WwnVtsEFgNPBZU/pFB5UpNF3XtbCbutaGkAg12/rw7qPwlQeVKTRd17dwXVK6kgkUnAMcGlSs1XdS14ys7qSWiEwBHAKTemABI6stoAnBXUPmH47bAUrdmA08LKtsEQGqJ0QTg5qDypwHHBZUtNdXxpGsnggmA1BKjCcBNgXU4JbBsqYmWBpZ9W2DZkgo0mgCsJH0OGOG5QeVKTRV1zawj3SsktcDgmL9HjQJE/pqRmmaAuATgBmAkqGxJBatDArA3cFhQ2VLTHAksDCr7V0HlSipBHRIAgBcGli01yQsCy/51YNmSCjY2AYjM7k8PLFtqkshrxREAqUXGbvQwCKwF5gbUYwNpWHN7QNlSU8wkrcM/J6DsjcBewHBA2VLbhcytGTsCMAxcF1EJYE/gpKCypaZYSszDH+BafPhLrTI47j9fE1KL5IzAsqUmiLxGfhZYtqQS1CkBODuwbKkJzgos2wRAarnZwDbS+4iIOLr8Q5Qa6XjirsstwKzyD1HKVsi1PX4E4HHgNyUd4FS8JrBsqc5eHVj2L0hJgKQWGZ8AAPyw8lr8wWsDy5bqLPLa+HFg2ZIqtJS4ocYR3B1QGu9EYq/Jk8s/RClrtXgFAOlTwHUlHOBUnRNYtlRH/ymw7EeA6wPLl1SxS4j7tbEGGCr/EKVGGAIeJu56vLj8Q5SyV5sRAIArij66LswHXh5YvlQnrwIWBJYfeS+QFGA/0qpfUb86rir/EKVG+BFx1+EO0m6dksoVdY3v0s8DKzUMHNpF40lttJjYRPyn5R+iJIKu8V29AoA0DyDKAHBeYPlSHbydP96wq2qXBpYtKdCBxP762ESaDyDlaB7wKLGjcAeWfpSSoIYjAPeRdgCLshvwl4HlS5HeCuweWP4y0j1AUqbeTtwvkBFgJa5BrvwMAQ8Re+29s/SjlDQq5Dqf7P3iU0m/AiYaKSjbm4AvB5YvVe1c4KLoSkhqt6lMMPo34EVlV2QCK4AjgO2BdZCqMgTcDhwcXRFJ7TaVX/ZfKr0WEzsEeENwHaSqvBkf/pIqMJURgCHgfmJXI3sQOAzYHFgHqWyzgN8BB0RXRFL7TWUEYCvwjbIrMomnkn4ZSW32V/jwl1SRqS4yciTw2y7+92VYDRwObAisg1SWvYA7iB1pk5SRaVP8360BTiN2YZDdgOnAlYF1kMpyAbGTbSVlpptf9OcAXyurIlO0DTiG9J5UaosjgZuAGdEVkZSPbr7v/9+kyYCRZgKfCq6DVLRP48NfUsWm+goA0trgQ8CpJdVlqo4ArgfuDK6HVISzgA9EV0JSfrqd1DeXtDJg5BrlAPcCR5M2DJKaag5wC266IylANyMAAFuAfYCTSqhLN/YkTQr8QXA9pH58mvgRNUmZ6uWzvkWkSXjTi61K14aB55F2LZOa5jnANXSfhEtSIXrZ5Odu4F8LrkcvBkkbpgxFV0Tq0hBpgysf/pLC9HoDWk5atSxyl0CAvUnLp7o2gJrkk6TJf5IUptcEYC2wGDiuwLr06mT8KkDNcRrwD8SuqilJfd2EDgVupR7fLz9ISkbWRFdEmsAC0oI/+0VXRJL6eQe5DjgIeGZBdenHHNKIxCXRFZF2YYC0mNYJ0RWRJOh/EtKNwH8h/osAgKOAR4Froysi7cRfk64VSaqFfhOADcBC0idNdfAi4GekLxWkungx8BXiJ81K0v9XxESkum1jupo0zBq9b4EEaZW/G0iJsiTVRhG/SNYB5xfw7xRlDL7IwQAACAVJREFUb+BSXB9A8WYB38SHv6QaKmpI8p9IawPUxUmkrYv91EpRBoB/Bp4VXRFJ2pmiViIbAW4HXl/Qv1eEo0mTE38UXRFl6QLSYlmSVEtFLkW6AngGcGSB/2a/nk+aC/Dr6IooK+eSEgBJqq2ih8gPBm4mfrvgsbYDZ+POgarGmcBl1OPTWEnapaI3I9kAbAZOL/jf7cc04FXA1cA9wXVRu50CfIc0+U+Saq2MSXKDpG/xn1vCv92PjaS9138RXRG10rOBq0irUkpS7ZU1S/4Y0rfPM0v693u1nrRYkHMCVKQlwE+AecH1kKQpK2s/8tWkh/8LSvr3ezULeAXwQ2BVcF3UDseRtqOuy0JYkhRuiLQ2wEgNYy1+n63+PQd4hPjzeWfxa1wMS1Kgo4HHib8Z7iw2kV4HSL14PmnSa/R5vLPYTHotIUmh3kn8DXFX8Rj1+mJBzXAm9U1sR4C3lHfokjR1A8D3iL8p7iq244ptmro3AtuIP293Fd8u79AlqXt7AyuJvzlOFBfidq3atQHSplfR5+lE8QBORpRUQ2cBw8TfJCeKi3HilJ5sFvAvxJ+fE8UO4MVlNYAk9esC4m+Uk8V1wAFlNYAa50DgeuLPy8nCvQck1dogcAXxN8vJ4mHSqoHK2wuo/6urEdI6BO49IKn25gF3EX/TnCyeAN5Peaslqr4GgHdQ78l+o3EXvveX1CAnkr5Vjr55TiW+jTfYnCwELif+vJtKbCSttSFJjfJG4m+gU40H8JVADv4UeIj4820qMUxa1lqSGunvib+RdnPDvRC/EmijIdIkuh3En2dTjQ+U0hKSVJFB4FLib6bdxHLgpDIaQyGeC9xC/HnVTXwL56ZIaoFZwDXE31S7iWHgItz7vclmk371P0H8+dRN/BzYvYT2kKQQC4E7ib+5dht3Ay8tvjlUsrOAe4k/f7qNW0hf0UhSqxwBrCH+JttLfA84vPgmUcGOpBnrUOws7sEFqiS12PHUd3/1yWIb6bWAnwzWz1zScP9W4s+TXuJh4KjCW0WSamYpsIn4m26vsZq0iMysohtGXXsK8C7SAzT6vOg1HgWeVXTDSFJdnUpzFgraVdxH2mZ4ZsFto8nNBN5KWr8h+jzoJ7YCLym4bSSp9s6mGUuxThYrgDfj+gFVGALOJU3OjO73fmML8LJCW0eSGuTVtCMJGCGtMPc3OIu7DPOAv6UZG/dMJR4nrUooSVk7m/RrKPqmXFQ8CnwOOKzIRsrUYuDzNHvOyPjYBPxJkY0kSU32QtLGJ9E356Ljl6Qh69mFtVT7DZFGhq4kLcgU3Yc+/CWpZEuB9cTfpMuINcCngWcW1lrtcwLwWWAt8f1VRqwDnlNYa0lSy5xIcxcLmmrcAXwEOLagNmuy44CP0sxVIruJ1aQER5I0gSNo/wNhNG4FPk4aFp5RROPV3EzgRcAngNuIb/+q+vhpRTSeJOVgIbCM+Jt3lbGRtAvcuaQlbdtggHQsbwEuI02QjG7nKuNHwF59t6IkZeYpNG8r4SJjNemh+V7g5E571N1s0va77wO+Q7NX6Os3/icuEiUpUNP3FB8kDZG/N7oiNbAD+D1wI7C8E7eTFiLaUnFdZgGHkH7dL+nEscChwLSK61I3I8AHSfM8RoLrIiljTU8ARr0B+Edcf39XHiIlAiuA+0m/vNeOiTXAE6TXDDuA7aRP0iDtPT+D9ODeo/P3+eNiIXAgsIj04N+v/ENqpK3AG4GLoysiSW3yDOAu4od2DWNncQ9wEpKkUswHfkD8zd4wxsZ3cQloSSrdAPB+0lB29I3fyDu2A+eT5qpIkipyJrCK+IeAkWc8ADwPSVKIfYAriH8YGHnFVcDeSJJCDZAWz3mM+AeD0e54nPT6ySF/SaqRJcBNxD8kjHbGz3CLZ0mqrRmkX2hbiH9gGO2I0V/9uS9wJEmNsBj4MfEPD6PZcS3t2ZdBkrIxCJxHfhvQGP3HBuBd+KtfkhrtINIue9EPFaP+MQx8BdgXSVJrvBD4DfEPGaOecQNpJ0NJUgsNAq/DBYSMP8Ra4B043C9JWdgL+DR+LZBzbAY+BcxFkpSdA4ALMRHIKbYCFwH7I0nK3sGkh8J24h9QRjmxDfgacAiSJI1zBPANTATaFNtIyd1BSJI0iYOBzwAbiX+AGb3FBuCzwCIkSerSHNIM8XuJf6AZU4s7SUv3OrlPktS3mcA5pA1hoh9wxpNjGPi/wJm4U58kqSRHkT4hfJj4B1/usQb4fKdPJEmqxBDw58BVwBPEPwxzic3AJcDZpN0fJUkKM5+0wuCVwA7iH5Jtix3A1aT5GAum2CeSJFXqANJOcteR3k1HPzybGtuAfwPeg5/wSVLXBqIrkLmFpE2ITiUNWbvL3MTWAD8GvgdcDqyPrY4kNZcJQH1MA54NnEFKCE7Ed9hbSbvwXUV66N9AGjWRJPXJBKC+ZgDHAkuBU4AXkeYStNlK4JekB/3VwDWkSX2SpIKZADTHIPB04ATgGOA4YAnNfW3wAHAr8FvgemAZsCK0RpKUEROA5ltIGik4GjiUtLTtIZ0/54TVKtkC3E960N8K3AbcAtxOWopXkhTEBKDdFpCSgQNIrw8Wdv5c0PlzPilJmN353+9JGmmYAeze+e/Wdf5cT5p9v4H0Hn4jaVOk1cAq0i/61cCDnf/80Jj/ryRJkiRJkiRJkiRJkiRJkiRJkiRJkiRJkiRJkiRJkiRJkiRJkiRJkiRJkiRJkiRJkiTV3v8DWNrPap47augAAAAASUVORK5CYII=;rotation=0;" vertex="1" parent="250">
                    <mxGeometry x="9" y="11" width="28" height="28" as="geometry"/>
                </mxCell>
                <mxCell id="320" value="" style="group" vertex="1" connectable="0" parent="1">
                    <mxGeometry x="190" y="550" width="470" height="320" as="geometry"/>
                </mxCell>
                <mxCell id="321" value="" style="rounded=1;whiteSpace=wrap;html=1;fillColor=#f5f5f5;fontColor=#333333;strokeColor=#666666;" vertex="1" parent="320">
                    <mxGeometry width="460" height="280" as="geometry"/>
                </mxCell>
                <mxCell id="322" value="&lt;font color=&quot;#007fff&quot; style=&quot;font-size: 28px;&quot;&gt;&lt;b&gt;Medan Executive&lt;/b&gt;&lt;/font&gt;" style="text;align=left;html=1;verticalAlign=middle;whiteSpace=wrap;rounded=0;fillColor=none;gradientColor=none;fontColor=#000000;" vertex="1" parent="320">
                    <mxGeometry x="9" y="100" width="230" height="30" as="geometry"/>
                </mxCell>
                <mxCell id="323" value="&lt;font color=&quot;#666666&quot;&gt;&lt;span style=&quot;font-size: 20px;&quot;&gt;Excevutive (B)&lt;/span&gt;&lt;/font&gt;" style="text;align=center;html=1;verticalAlign=middle;whiteSpace=wrap;rounded=0;fillColor=none;gradientColor=none;fontColor=#000000;" vertex="1" parent="320">
                    <mxGeometry x="7" y="129" width="133" height="30" as="geometry"/>
                </mxCell>
                <mxCell id="324" value="&lt;span style=&quot;font-size: 16px;&quot;&gt;&lt;b&gt;&lt;font color=&quot;#666666&quot;&gt;MEDAN (MDN)&lt;/font&gt;&lt;/b&gt;&lt;/span&gt;" style="text;align=center;html=1;verticalAlign=middle;whiteSpace=wrap;rounded=0;fillColor=none;gradientColor=none;fontColor=#000000;" vertex="1" parent="320">
                    <mxGeometry x="6" y="175" width="121" height="30" as="geometry"/>
                </mxCell>
                <mxCell id="325" value="&lt;span style=&quot;font-size: 16px;&quot;&gt;&lt;font color=&quot;#666666&quot;&gt;&lt;b&gt;10 Mei 2023&lt;/b&gt;&lt;/font&gt;&lt;/span&gt;" style="text;align=center;html=1;verticalAlign=middle;whiteSpace=wrap;rounded=0;fillColor=none;gradientColor=none;fontColor=#000000;" vertex="1" parent="320">
                    <mxGeometry x="5" y="225" width="100" height="30" as="geometry"/>
                </mxCell>
                <mxCell id="326" value="&lt;font style=&quot;font-size: 22px;&quot; color=&quot;#007fff&quot;&gt;&lt;b style=&quot;&quot;&gt;&lt;font style=&quot;font-size: 22px;&quot;&gt;12:0&lt;/font&gt;&lt;span style=&quot;&quot;&gt;0 PM&lt;/span&gt;&lt;/b&gt;&lt;/font&gt;" style="text;align=center;html=1;verticalAlign=middle;whiteSpace=wrap;rounded=0;fillColor=none;gradientColor=none;fontColor=#000000;" vertex="1" parent="320">
                    <mxGeometry x="3" y="200" width="110" height="30" as="geometry"/>
                </mxCell>
                <mxCell id="327" value="&lt;font size=&quot;1&quot; color=&quot;#007fff&quot;&gt;&lt;b style=&quot;font-size: 20px;&quot;&gt;Rp 100,000,-&lt;/b&gt;&lt;/font&gt;" style="text;align=center;html=1;verticalAlign=middle;whiteSpace=wrap;rounded=0;fillColor=none;gradientColor=none;fontColor=#000000;" vertex="1" parent="320">
                    <mxGeometry x="330" y="100" width="140" height="30" as="geometry"/>
                </mxCell>
                <mxCell id="328" value="&lt;font color=&quot;#00cc00&quot; style=&quot;font-size: 20px;&quot;&gt;Tersedia&lt;/font&gt;" style="text;align=center;html=1;verticalAlign=middle;whiteSpace=wrap;rounded=0;fillColor=none;gradientColor=none;fontColor=#000000;" vertex="1" parent="320">
                    <mxGeometry x="353" y="125" width="100" height="30" as="geometry"/>
                </mxCell>
                <mxCell id="329" value="&lt;span style=&quot;font-size: 16px;&quot;&gt;&lt;b&gt;&lt;font color=&quot;#666666&quot;&gt;KISARAN (KSR)&lt;/font&gt;&lt;/b&gt;&lt;/span&gt;" style="text;align=center;html=1;verticalAlign=middle;whiteSpace=wrap;rounded=0;fillColor=none;gradientColor=none;fontColor=#000000;" vertex="1" parent="320">
                    <mxGeometry x="317" y="176" width="130" height="30" as="geometry"/>
                </mxCell>
                <mxCell id="330" value="&lt;font size=&quot;1&quot; style=&quot;&quot; color=&quot;#007fff&quot;&gt;&lt;b style=&quot;font-size: 22px;&quot;&gt;15:00 PM&lt;/b&gt;&lt;/font&gt;" style="text;align=center;html=1;verticalAlign=middle;whiteSpace=wrap;rounded=0;fillColor=none;gradientColor=none;fontColor=#000000;" vertex="1" parent="320">
                    <mxGeometry x="338" y="200" width="110" height="30" as="geometry"/>
                </mxCell>
                <mxCell id="331" value="&lt;span style=&quot;font-size: 16px;&quot;&gt;&lt;font color=&quot;#666666&quot;&gt;&lt;b&gt;10 Mei 2023&lt;/b&gt;&lt;/font&gt;&lt;/span&gt;" style="text;align=center;html=1;verticalAlign=middle;whiteSpace=wrap;rounded=0;fillColor=none;gradientColor=none;fontColor=#000000;" vertex="1" parent="320">
                    <mxGeometry x="346" y="225" width="100" height="30" as="geometry"/>
                </mxCell>
                <mxCell id="332" value="&lt;span style=&quot;font-size: 16px;&quot;&gt;&lt;font color=&quot;#666666&quot;&gt;Durasi 3 Jam&lt;/font&gt;&lt;/span&gt;" style="text;align=center;html=1;verticalAlign=middle;whiteSpace=wrap;rounded=0;fillColor=none;gradientColor=none;fontColor=#000000;" vertex="1" parent="320">
                    <mxGeometry x="172" y="225" width="100" height="30" as="geometry"/>
                </mxCell>
                <mxCell id="333" value="&lt;span style=&quot;font-size: 16px;&quot;&gt;&lt;font color=&quot;#666666&quot;&gt;&amp;gt;&lt;/font&gt;&lt;/span&gt;" style="text;align=center;html=1;verticalAlign=middle;whiteSpace=wrap;rounded=0;fillColor=none;gradientColor=none;fontColor=#000000;" vertex="1" parent="320">
                    <mxGeometry x="172" y="195" width="100" height="30" as="geometry"/>
                </mxCell>
                <mxCell id="334" value="" style="shape=image;verticalLabelPosition=bottom;labelBackgroundColor=default;verticalAlign=top;aspect=fixed;imageAspect=0;image=data:image/png,iVBORw0KGgoAAAANSUhEUgAAA+gAAAGRCAYAAAD2EZnEAAAACXBIWXMAAAsTAAALEwEAmpwYAAAgAElEQVR4nOzdCZzdVN3/8YP6uG+P+rjwPO6PjwqKS2kyrdXiCm6PiuIuiMiqLJ1kWpe/FtfHDQTBTtIWgSoiZZNFUVFkFQVUwJZJppRCoXRyZ7rvy0z+r5N7b5LbfWZu7jkn+bxfr/MSO8vNnJucm29y8jtCAAAAJZae0fWkoV7rgJpvvTfyrC/UPPuHNd++tOZbf6351pLIs9bWfDtuZ6v/TmtJzbNvT17Ls38Y+fZJtV77PXJb5DaxOwAAAAAASmtw7uT9B72u90eePaPm2fMi314Y+fZwuwN4W0K8bz8aefY1Nd/6XtRrHbl89sQD4/lHPFZ1HwIAAAAAMCqrZ0359+SuuG9/J/KsG2uevV516B538+z18m+JPOvb8m77qvNf90x2CwAAAACAVlb6E54R9VofiXzbr3n2gsizR5QH6uLvssu7//+q+XZv5NmHD51tPV31+wAAAAAAqKCBWQe/rObbp9Y86/rIs7eoDsyqW+RZ2yPPvivy7dMH59gT4ljsp/o9AgAAAACUkAyckT9pcuRZZ0W+9YjqQKx7izz74ci3fzzgTZxEWAcAAAAAjJsskCbvCtd8637VodfUFvn20si3zo58ewphHQAAAAAwqiJvg559XOMZa+UBt0wt8uxQVrJfPmvSc9klAQAAAAA7iWeKxwz4Xe+o+fZ8ninvSFDf0ljK7QiWcAMAAAAAyPXJn1bzrNNqnv2A6rvLFW6LZcG96NypT2WXBAAAAICKGZpt/VfNs78f+fZqDQIqrX5XfVXNt743OHfy/qr3DwAAAABAwZbPOvg1Nd/6eeTbWwnGel4YaDxicMFQr3UABwQAAAAAlMzgrINfGfn2LyPfHlYdQGn7GNR9ezjyrF/Ueu1XqN5/AAAAAADj9OjcSS+OfNuPfGsbwdjMiwONiyrzozld/80BAQAAAACGefS8Kf9R8+1eprKXbur7ucv8Cc9RvX8BAAAAAPYi9if8W1IRPCk4pj5U0goJ6qvkWur9Zx/2BA4IAAAAANBQso65Zy8gFFfjwkDk2aFcR131fgcAAAAAaFg+23ppzbN/pzow0hQFdd++VtYa4IAAAAAAAEXi+Uc8tubZ3TXf3kA4rvoFAmudfLQhnikewwEJAAAAAB004He9NvKtv6kPhjSd+iDyrX/U/K43cjACAAAAQAeKwEW+9S2qs6sPwzpXe498+/R45tTHcUACAAAAQGHPmlu3qQ6ANDP6IPLsO2q99is4GAEAAACgjWp+1+drnr1edeijmdYH1rrIs4/mYAQAAACAcXrknInPrnn2FeqDHs3wPrh09ZyuZ3FAAgAAAMAY1GZNekPNsx/QINzRStAHkW8vHertsjgYAQAAAGAUar3WMTXP2qQ61NHK1gfWxsifeBQHIwAAAADsRf/Zhz0h8q2z1Qc5Wpn7IPJtP55/wOM5IAEAAABgFwbnTt6ftc3Vh9cKtb9E5058PgcjAAAAAOQM+F2vlc8IaxDaaFXqA896cPnsiQdyMAIAAABAPZy/I/Lt1crDGq2SfRB51tqab7+bgxEAAABApdV863ORb29VHdJo1e6DyLe2DXgTT1B9PAAAAACAEpFvfVN1MKPRBy37gGfNZDgAAAAAUBlxLPaLPPtMwjHhWNN94Fy5j6o+TgAAAACgUDL41Dz7HA1CGI0+2MOUd9uPZ4rHMBwAAAAAKKV4/hGPrfn2BQRDLg6YsA9Evv3LeObUx6k+bgAAAACgrWTQqXnWZapDF40+GOU+cCkhHQAAAEBpyKnCkW9fRDgmHBu6D1wqZ3+oPo4AAAAAoB0F4TwNQhaNPhjHPmD9jMJxAAAAAIwW+dbZBEMuDpRhH5ArD6g+ngAAAABgTCLf/o7qUEWjD9oc0r/BcAAAAADAKLXZ9rGEY8JxGfeByLdPUn18AQAAAMA+qfn2uyPf2qY6SNHog0ICumdtH/S63s9wAAAAAEBrtVmT3lDzrXWEY8JxmfeByLPWRr3W61QfbwAAAACwS4NzJ+8f+fZS1eGJRh90KKQvW/HTg1/IcAAAAABAK0vP6HpSzbP/STgmHFdpH4h86+9y31d9/AEAAABAquZZ56sOSzT6QM0+YP2coQAAAACAFiLf+iLhmHBc5X1gwJt4gurjEAAAAEDFDXgTJ0WevUV1QKLRByr3gci3t0a+PUX18QgAAACgoqJzJz5fFsoiHBOO2Qdk0Tj74eWzJj1X9XEJAAAAoGLiWOwX+dZvCGaEc/aB3D7g2b+Tx4bq4xMAAABAhdQ86zSCGeGcfWBX092tL6o+PgEAAABUxPLZEw+s+dZGwhkBnX1gF/uAZ20amGMfpPo4BQAAAFBy/Wcf9oSaZ91DMCOcsw/sYR/w7AWsjw4AAACgUJFnnUUwI5yzD+xLZXfrDIYjAAAAAIWI/EmTI98eJpwR0NkH9mnpteGB2VYXwxEAAACAtornH/B4OW2XYEY4Zx8YzfroVp98LIThCAAAAEDbRL59OsGMcM4+MKZ94GsMRQAAAADaYtCf9Kqab20mnBHQ2QdGvw9Enr1lqNc6gOEIAAAAwLjEsdiv5tt/IZgRztkHxrMPWLfIY4nhCAAAAMCYRb3WkQQzwjn7wPj3gcHZXZ9iKAIAAAAwJtG5U58aedYywhkBnX1g/PtA5FuPLJ930FMYjgAAAACMWuRZ3yaYEc7ZB9q3D0Se/Q2GIgAAAACjsuKnB7+w5tsbCGcEdPaBdu4D1sZH5056McMRAAAAgH0WedYlBDPCOftA+/eByLd/yVAEAAAAYJ/U/K43Rp49QjjTM6APXfiueMsjd8TD66N43V/OSv993e1nJf+25eG/Jd+jejtpu53mPhLNnvh6hiMAAAAAexX59rWEK30DpgziqZHhePC8t8SD501N/rtJfo/q7aTtsQ9+zVAEAAAAYI8GvYkHc/dc73C59s/fyPL55rVxbc7kpMn/bpLfo3o7aXvug6HeLovhCAAAAMBu1XzrDwQrzcPlnMnx+r+eG28Kr41X/frz6b+vuurY5N/k12qzJ6nfTtoe+yDyrN8yFAEAAADYpZo38S2EKt2DZVc8dOGh8YpLPhqvvPyopK265sSkNf+//Jr8Hvm96reXtseQ7k+azHAEAAAAYCfcPdcnTA7OfXO86spj4rU3fjvecPe8ePOSm+Ltqx+K4+Ht8T4b3p78jPzZDf+cl/yuVVd+Lvndqv8+WjOgW79hKAIAAADQYvmsg1/Ds+cqA/mUeNU1X4g3/H1uvPXRf8Qj27dkz5lvWRdvXX5PvHHh5fG6W34Qr77OiVdeeXRyt3zN76fHI1vWJ98j/zu5i37l0cn3rLvl+8nPbF1+dzyyJXs+Xf5u+Rob7poTr7rmpLg2ZwqBWdH7Lo+55bMnHshwBAAAACBV8+0LuKvZ+YCWPDd+35W5Am8j8bYV98cbF1war/njV+MVF31gr79jy8N/Tdrevm/oog/Ea67/SrxxwfzkNZpV30c2r0m2QW4L+4CCkO7bcxmKAAAAACQG507eP/LsLYSzzoUyuU755iU3Nqaib4u3PHRrvOZPXx/T+uVbHr49aaP9ucEL3pm8pnxtuQ2SnA7PGuqdDunW5po/4QUMRwAAAABEzbO/SzjvXCCT65ZvGwzqgXjxn+KheYeN6/eNNaC3XDCYd1iyLZLcNrmN7BOd2yci3/4OQxEAAABQcUvP6HpS5FsrCWOdC2Pr7+hNnwUf/Nlbx/372hHQkwsHP3trPLJtc7JtchvZJzoY0D1rhTwWVY8HAAAAABSK/IlHEcQ627avWpKE4C0P3tKW39eugJ78rgdvTrZt+6oHCegd3i8GPPvTDIYAAABAhdV861YCeudC2NBF/5tWU5fLno36d8yeFK+c/4l49e/ceN1tZ8Qb7/1lPLxhMGnyv9fddma85vc98cpLPxnX5kwe9e9fe+O30u2TReXYNzq3b0S+fZPq8QAAAACAIoP+pFextFpn75Kuvek7jWLtw/HQhYfu9ftXXPzheO0NM+ON//pVstTayLZN+7wMuvzeZHm2f/0q+R3yd+31AsKFh6bV3eW2EtA7u38MzbFfzYAIAAAAVFDk2WcSwDobwDYv/mMSfuU65Lv6uizOtvraL8Yb/jkv3r7ygbjdtq9dliypJpdbGzz/bbvcBrlt0ub7ryegd3j/qHn2D1WPCwAAAAA6LJ5/wONrnlUjoHcwfM2eFA9vWp2E33V/+XH273OmJIF5y9K/JIXjOkW+1paHbkteW25Dc3vkNHlJbqvcZvaRjob0wf6zD3sCAyIAAABQIZFnH07w6uzd0ZVXHJ2G45WXHxUPzn1zvO4vZ8XDG1eOOWTLgnNyCrtssrDbWMltkNsit0luW7qdVxxNQO/wfjLo2/+renwAAAAA0EGRb/2KgK5mebXk7vXmNend9LEZidffObu1ENycyfGGu+aM43fW75rLbWtiubXOt8izfsFgCAAAAFTEMn/Ck2u+tY6A3tng1Xy2ux02Lrx8t6+zqe/XbXud3T0rTys0oK9lTXQAAACgImq+dQQBq7Mhc8XFh8fx8Lb2pObhbfHgBe/c7WsNXfiuOB7e3rbXktvO/tLpu+j24arHCQAAAAAdUPOsywhcnQtbKy/7TDy8PmpjJfZH9/qa8nvaZXjdQPI3sM90MKD71q8YDAEAAICSWz7voKfUfHsDYaszQWvV1SfEI1s3xu00snVDXJvzpt2/7pwp8ci2dr/mxnjVVccT0jsV0j17vXwURfV4AQAAAKBAskI04bwzIWvo5+9tKbjWTutu+cFuX3fdrT8q5DVlATn5N7H/dCik99rvYTAEAAAASqzmW7MIWJ0JWBsXzI+LMrJtc7z6uu6dXnP1dU6ha6lv/Nd8AnqnArpv/UT1eAEAAACgQDXPfoCA3pmANZ71zffVlgdvTu6Yy7blwVsKf73hDUME9E4FdM9axGAIAAAAlNSgP+lVhPPOhKvBC94Rl5X829iPOrMfRXO6/lv1uAEAAACgADXfmkaw6kywGvrF++Kykn8b+1GHArrXdTKDIQAAAFBCNd+6jmBFQCegGxTQffta1eMGAAAAgDaLZ4rHRL69WnXgqErjDrr696AMLfLsVfLYZUAEAAAASiTqtV6nOmxUqRHQ1b8HZWnLZx38GtXjBwAAAIA2inz7JNVBo0qNgK7+PShLG/St4xkMAQAAgBKJfPsi1UGjSo2Arv49KE3z7Hmqxw8AAAAAbVTzrAeVB40KNQK6+vegRG0xgyEAAABQEtG5E5+vQcioVNtlQB/eHg9vXBGbItnW4e07/TvLrHV+fxqYYz9P9TgCAAAAoA0ir+sw1YG16gF967I746EL35V8bdXVJ8QjWzfEuhrZsj7ZxuTvuPDQeOuyu1q+TkDv/P4U+da7GAwBAACAEog8q0d1YK16QF9x8eEtX9/w97mxrjbcNadlW+W25xHQO78/Dfq2o3ocAQAAANAGNd/6uerAWu2APhIPnndIy9fX3fL9WFdy21rC4XmHJH9DEwFdyT51AYMhAAAAUAI1z7pHdWCt+h309bm70oPnvz3eNtQf62rbUJhsY3N75R31PAJ65/enyLf+oXocAQAAADBOsT/h3yLP3qI6sFat7apInAy+m5f8OR7etCrW3fDGlcm27upCAgFdxT5lbY5nTn0cAyIAAABgsOWzJx6oOqxWsbHMmvr3oGxt0J/0KtXjCQAAAIBxGPS63q86WFSxEdDVvwela732exgMAQAAAIPVfPsU5cGigo2Arv49KFuLfPsk1eMJAAAAgHGIPPtM1cGiio2Arv49KGH7AYMhAAAAYLCaZ1+hQbCoXCOgq38PStguVT2eAAAAABgHuTyTBsGico2Arv49KFuLfPtOBkMAAADAYJFnrVAdLKrYCOjq34MStkHV4wkAAACA8a2BPqJBsKhcI6Crfw/K1uSxzFroAAAAgKGicyc+X3WoqGojoKt/D8rYHj1vyn+oHlcAAAAAjMHyWQe/RnWgqGojoKt/D8rYhubYr2YwBAAAAAxU87umqg4UVW0EdPXvQRlb5NtTVI8rAAAAAMYg8u0Pqw4UVW0EdPXvQRnbgG99kMEQAAAAMFBttn2s6kBR1UZAV/8elLL1WseoHlcAAAAAjEHNs05THigq2gjo6t+DkrZTGAwBAAAAA0WePUODQFHJRkBX/x6UsUW+5aoeVwAAAACMQc23v6Y6UFS1EdDVvwclbV9lMAQAAAAMFPnWtzQIFJVsBHT170EZW+TZ31A9rgAAAAAYg5pnf191oKhqI6Crfw/K2azvMRgCAAAABoo86yz1gaKajYCu/j0oY4s8+0zV4woAAACAMYh862zVgaKqjYCu/j0oY5PHNIMhAAAAYKCaZ/9QdaCoaiOgq38PStp+oHpcAQAAADAGkW9/R4NAUclGQFf/HpSxycKPDIYAAACAgWqeNVN1oKhqI6Crfw9K2r6melwBAAAAMAaRb31Zg0BRyUZAV/8elLFFvjWdwRAAAAAwUM2zu1UHiqo2Arr696CUzbNOUz2uAAAAABiDyLdPVB4oKtoI6OrfgzK2Qd86nsEQAAAAMFDNtz+uOlBUtRHQ1b8H5WzWEarHFQAAAABjMOB3vUN9oKhmI6Crfw/K2AZ9660MhgAAAICBarMmvUF1oKhqI6Crfw/K2Abm2AepHlcAAAAAjMGKnx78QtWBoqpt6MJD4xbD2+KRzWuNbHLb8+Tfprp/q9oG507en8EQAAAAMNAyf8KTVQeKyrbZk+KRbZvSULvlwZvVb9MY2+YlN6Z/x8i2jcnfpnqbqtqWnD/1iarHFQAAAABjVPPtDapDRVXb5iU3lS6gb17yZ+XbU91mrWMgBAAAAAwW+XagPlhUs6369eflPeck2G5f83C84Z/zWtqqKz/X8sz6jl9fd9sZ2dcvPHSnr8u2+ndu+j2rf+fs8nvSKemzJ8Ub/nH+zl//xfvS37HyyqN3+vr21Uub98/jVVceo7xfq9oi316oejwBAAAAMA41z/6d6mBR5bb+Ti/eHRnaB8+b2vjernhrtKD1G0aG46F5765/fc7keGTrxp1+x6a+q9LXkv+9o5Et65KflV9fddVxO31dvqZ8bfl1uS1ym3Zn/R29yvuzyi3y7WsZDAEAAACD1Xy7V3WwqHpb/7dzdxt6N9zzi/T7Vl11/E5fX3fbj9Kvb3nkjp2+vnnxH9Ovy//eUX5q/cZ/zd/p66uu+UL6dbktuw3nd81R3o80+1zV4wkAAACAcYg8ewbBRn24W3fLD9Lp7i1GhpOp8GkIf+i2li9vHbg3C/p3zt45gD98e/azD9++i4B/Zv3rsyfFw+trrT/70G3pz668/DNxPLx9F9F8JF73l7OU9x9NroFuOwyGAAAAgMFqs7s+SrjRI+Ctvem7SSDf0bYV98e1OVPqQfnST+70PSsu/nDytVXXnLjTz+YDvPzvHcnft8u78yPDSShPfnbO5HjbYLjrcJ67g09T2weRb39Y9XgCAAAAYByGerssgpU+4XLNn76+yzvV8u5483s29V+3y2e/B897SzyyfWvL17avfCD9OfnfecMbV6bPl+84vX1T/2/3eGdeBvi1N35LeX/R8n3Q9UYGQwAAAMBgg3MnPy3y7BGCjj5hb831X4nj4W2tgXh4a7xy/ieSr6/45Qdbgvj2VQ+mP7t1+T2tP7Y+Sr8m/ztv8/1/2PX09uGt8YqLD6+/1iUfjUe2b9k5nN9wuvJ+omV9EPn28PJ5Bz1F9XgCAAAAYJxqnv0AYUevwLf6uu6dgnFSUX32pOTrG//1q5avrbysPh19wz8vbM3SW9anv1P+d56cUr+r6e0b7704De47Bn4Z3tf8YYby/qG19kHk2SEDIQAAAFACNd/+NYFHv9C3+renxiPbNrfk43V/+XHyNbl2eT5wb7h7XiPYT2sN1PFIPdTPnrSLZ9cP32l6+8jWDfHQvMOSf5ev1fKbtm9tWVedplEfeNZlqscRAAAAAG0Q+dY3lQcM2i77YNXVJyShOQ3J2zalwXr9nX52Y3vdQBLCB89/205BXP5b8u/5G+Hrlu9yertcl13++4qLPtCyrvrIto3x6mu/yPuk6X4a+fbpDIYAAABACdR86wjVAYO2+z6Qy6yNbFmXhev1tXjbYN9ORd+2rViU/PuOz68n/75iUevd8C3rk+/d8d/l75T/ng/t8rXzS73R9OuDgdkTP6R6HAEAAADQBoOzDn6l6oBB23MfrL35/1qD9Npl8ebFfyykyd+dJ1+b90fzfbTXfgWDIQAAAFACcSz2izxrhfKQQdt9QL9hZkto3hRcXVh/yd/dEtBvmMl7o/e+OSSPYdXjCAAAAIA2iXzrNxoEDRoBnX1glMdB5FtXMxACAAAAJVLz7a8SkPUNh9xBV/8e6Noiz56hevwAAAAA0EaDvfYhqoMGjYDOPjCG42C29WYGQwAAAKBElp7R9aTIs7cQkHS6UNAVr7vl+/H6v50bb77/+tbK7LX7kn8vosnfnSdfW/673Ba5Ter7hZb1gbV5yflTn6h6/AAAAADQZpFv/Y3wo0/4W3frj2LdyG1S3S+0XB941m0MhAAAAEAJRb79HcKPHgFw5fxPxCPbNse6Gdm+NV552WeU9w+t3geRb5+uetwAAAAAUAD5LCvBR334G5z75njbikWxrravfCAePG+q8n6i2fHAbKuLwRAAAAAooXjm1MdFnr2K4KP47vlln0mfBx/etKoeilctKeyZ8701GcgluS3Nf1t5OXfRNThOhuL5RzxW9bgBAAAAoCA1375Ug+BB8+149XVOetd69XXTlPWJfO1sOxzeG032z8i3f8lACAAAAJRYrdc6RnXwoNlxbc6UePvqh5JQvHX5Pcr7ZOuyv9fv5K95JB6cO0X59tDsOOq1jlQ9XgAAAAAo0ODcyftHnj1CAFIbAtf/9dz0rvWqa05UHkhXXXVcuj1y21RvT9Vb5NvDA3Ps5zEYAgAAACVX861bVQeQKrehee+OR7asS8LwloduVb49zSa3RRrZuiEe+vl7lW9PlVvkW39WPU4AAAAA6ICab5+iOoBUuW0Kr23cqx7Rqhjbyks/Gccjw8mWyW1UvT1VbpFvn8hgCAAAAFRAdO7E50eetV11CKliW3n5UWkI3rzo98q3Z8cmt6l58UBOe1e9PVVs8thkejsAAABQIZFn3ag6iJS9rbjoA+kyamUwsnltvOLiw5X3a+mbZ12venwAAAAA0EGRb5+kPIiUuA3OfXO8bbAvLpttKxbFg+dNVd6/pW6z7WMZDAEAAIAKWT5r0nMjz96iPIyU/jnz8tm86HfK+7e8zdr8yDkTn616fAAAAADQYTXPukx9IClfW3fbmXHZrbvtDOX9XMYWedbFDIQAAABABUWzJx6qOpCUr3XFa34/PV5z/VfStv6O3jTYDm8YbPmazk1ua9P6O73Wr/9+evK3qu/vcrUBb+LbVY8LAAAAABSIZ4rH1HxriepQUva25aHb0qC79oaZyrdnX9vaG05Pt3vLw39Tvj2lb579gDwmGQwBAACAiqr59teUB5MSt9W/OTkNuVsH7jXsrnNXvHX53en2r75umgbbVN4W+daXVY8HAAAAABQa6u36z8i3tqkOJ6Vsc6bE21c9WE+3I8PxyiuPVr9No2wrLz8yXbd9+5qH48G5U5RvUxmbPAYH507en8EQAAAAqLjIsy5RHVDK2Nbf/pP07vOm4Brl2zPWJrc9fRb99p8o354ytsi3L1I9DgAAAADQwFBvl6U6oBjbZk+KBy94x05txcWHxyNb1tVvnm/bFK+45GO7/D4Tmtx2+Tckf8uW9cnftqvvk32h/P0wtA3OsSeoHgcAAAAAaCLy7JtVhxQTm6xujqzSu+r3w8QWefafVB//AAAAADQy0Gt9QHVQMa2tuur4OB7eTj5vGhmOV13zBeXvi3Gt136P6uMfAAAAgEbiWOwXedZ9ysOKIU1O6d6+bjnhfAfD66N46MJDlb8/prTIt/pYWg0AAADATmq91jGqA4sZrSvevOQmwvluyHXfzVpOTl2Leq0jGYoAAAAA7CSef8RjI88OVYcW3dvq65x422DfTi1dUq1h+6olu/w+k5v8m1r/xgd3+X2yj1S/T7q3yLf645lTH8dQBAAAAGCX5B091cHF1Lap76o0uG5bsSiuzXmT8m1qe5szOd42GGTLx/X9Wv02mdp6rU8wDAEAAADYy110nkUfU8G4eCQrlnblMeoDYEFt5RWfTf7Gxh9LYbix9KNnL+DZcwAAAAB7VfPsj6kOgUa1OVPi7SsfSO8qb7z3YvXbVHCTf2M6zX31Q/Hg3Dcr3yaTWuTbH2YoAgAAALBX8s5ezbfvVh1iTGmDF7wzXn3tF9M2eN4h5f+bzzuk9W++4J3Kt8mUFvnW3+WqCQxFAAAAAPbJoG+9VXWQodEH5dwHuqYyDAEAAAAYlZpnX6E+zNDog1LtA/MZhgAAAACM2sCsg19W86xNGoQaGn1g/j7gWZuW99ovYSgCAAAAMCY13/qe8mBDow9KsA9EvvUthiEAAAAAYzY4d/LTIt9+VHW4odEHJu8DkW89Ep079akMRQAAAADGpeZbR6gOODT6wOR9YGD2xA8xDAEAAABoi5pvX6k65NDoAyP3Ac+6jGEIAAAAQNvU/AkviDx7lfKwQ6MPDNoHIt9ePdTb9Z8MRQAAAADaasCbeILqwEOjD4zaB2bbxzIMAQAAAGi7eKZ4TOTbNykPPTT6wIB9IPLtG+JY7MdQBAAAAKAQK3568Asj31qpOvzQ6AOd9wH5OMijcye9mGEIAAAAQKEGPPvTqgMQjT7Qeh/otT7BMAQAAACgIyLfvkh5CKLRB3ruAxcwDAEAAADomJX+hGfUfGuJBmGIRh/osw949gNDZ1tPZygCAAAA0FGRb0+JfHur8lBEow802Aciz94yMNvqYhgCAAAAoETNs05THYxo9IEO+0Dk2+pRRK8AACAASURBVCcxDAEAAABQqubbF6oORzT6QGk496xfMAwBAAAAUG75vIOeUvOtewnJhORK7gOe/c9l/oQnqz4OAQAAACARzen6b7n2s/KwRKMPOnnn3LdWRv7klzMMAAAAANBK5HUdFvnWNkIyIbkK+4AskDjQa79T9XEHAAAAALtU67WOUR2caPRBJ/aBAW/iCQwDAAAAALRW863vEZIJyWXeByLP+rbq4wwAAAAA9iqOxX6yqrXqEEWjDwoJ5771K7mPMxQAAAAAMMKS86c+MfLsmwnJhOQy7QORb/25/+zDnqD6+AIAAACAURk623p65Nt3qg5VNPqgTeH8b4NzJz+NYQAAAACAkVad/7pnRr71D0IyIdnsfcC695FzJj5b9fEEAAAAAOOyfNak50a+1ac+ZNHogzHdOe+Pzp34fIYBAAAAAKWw4qcHv7DmW0sIiFwkMGsfsJbIfVf18QMAAAAAbbXSn/AieTdSfeii0Qf7cOfcs0O5zzIMAAAAACilgTn282qedQ8BkYsEOu8DkW8vHJw7eX/VxwsAAAAAFGr1rCn/XvOtv6oOYTT6YDd3zu9a5k94DsMAAAAAgEpY6U94Rs23biUkE5J12gci375JLg+o+vgAAAAAgI7qP/uwJ0SedbHqUEajD5J9wLMuW3pG15MYBgAAAABUUhyL/SLfPp2QTEhWe+fcOjueKR6j+ngAAAAAAOUiz/pC5FnbCeoE9Q4H820D3sQTVO//AAAAAKCV2uyJ74s8ay0hnZDekXAu97Ve+z2q93sAAAAA0FJt9sT/qXn2AkI6Ib3YcG6Hy2dPPFD1/g4AAAAAWpNVtGu+dTkhnZBe0D5w6eDcyU9TvZ8DAAAAgDHF42q+fap8RpigTlBv05T27ZFnz5D7lur9GwAAAACMM+BNfHvk248S0gnp4ywG98igb71V9f4MAAAAAEZb5k94Ts23rySkE9LHtg9Ylz9yzsRnq96PAQAAAKA0ol7ryJpvrSOoE9T3MZhvlI9JqN5vAQAAAKCUBmcd/MrIt+8kpBPS91Kl/Q65IoDq/RUAAAAASi2eOfVx8s5ozbPXE9QJ6jveNY98+/TYn/BvqvdTAAAAAKiMgVkHv6zmWdcT0gnp9UJw9k1yhoXq/RIAAAAAKrwcm/W5yLdWEtSrGdQjz1oRzbY/y/JpAAAAAKCB1XO6nhX51tlyrWvVgZHWoWDu28M1z563fNak56re/wAAAAAAO4h6rddFvn0DIbncFwoiz/7TgN/1Wg4AAAAAANBc5NmH13x7seogSWt3H1j3D/jWB1XvXwAAAACAUYjnH/D4yLdPjHzrEYKy2RcLIs9+eMCbeIJ8TzkIAAAAAMBQS86f+sRkWTbfXq46aNJGGcx9+9Gab5/Sf/ZhT1C9HwEAAAAA2mSZP+HJkWf1ENTNCOaDvu3I94wDAAAAAABKSt6NrS/NZi9UHURpO/SBZy+IPPto7pgDAAAAQNXWUO+13yMrghOUFd8xr78H72YtcwAAAACouIE59kE1zz4n8uxVhPWOhfJVss9l36t+/wEAAAAAek5/P6LmWddHnj1CWC8kmN816NnHLZ930FNUv98AAAAAAAMM+pNeFfnWNyPfDgjq4y76Fsi+HJx18CtVv68AAAAAAIMtnz3xwMi3T488OySs72Mw96wHI986O/LtKarfPwAAAABACdX8rjfWPPv/1TzrtsizthPYm1PXZV9YtyZ943e9UfX7BAAAAACokNVzup5V8+yP1Tzr/MizllUtrNf/ZutntdldH109a8q/q34/AAAAAABIDM6dvL8sMpdM7fbsuyLfHlYdotvcFtc8e15S5G32xAN52wEAAAAARlh1/uueOdBrvzPyLbfm2xdGvvWPmm9t1iBo76VZm+vbal8YeVZP5Fvvkn+L6v4EAAAAAKBt4plTHzfUax3QuNM+vebbvTXfuq5eLb6D4d2zNjVe8zq5DfVtsY6Q2ya3kbccAAAAAFBZcSz2k9PkB/yu1w722odEvv3hAW/iCTXf/mrk2WdGvu3Xm/Wrmm/Pr/n2r+Wa7Unz7Svlv8mvpd/n2WfKn5W/Q/4u+TuXzzr4NTV/wgvka6n+ewEAAAAAAAAAAAAAAAAAAAAAAAAAAAAAAAAAAAAAAAAAAAAAAAAAAAAAAAAAAAAAAAAAAAAAAAAAAAAAAAAAAAAAAAAAAAAAAAAAAAAAAAAAAAAAAAAAAAAAAAAAAAAAAAAAAAAAAAAAAAAAAAAAAAAAAAAAAAAAAAAAAAAAAAAAAAAAAAAAAAAAAAAAAAAAAAAAAAAAAAAAAAAAAAAAAAAAAAAAAAAAAAAAAAAAAAAAAAAAAAAAAAAAAAAAAAAAAAAAAAAAAAAAAAAAAAAAAAAAAAAAAAAAAAAAAAAAAAAAAAAAAAAAAAAAAAAAAAAAAAAAAAAAAAAAAAAAAAAAAAAAAAAAAAAAAAAAAAAAAAAAAAAAAAAAAAAAAAAAAAAAAAAAAAAAAIDSifcTbnC56q0ASkseXzPjx6jeDAAwGmMpAKASuvsOFW4YC6dvgupNAUrHCe3k+HLDd6jeFAAwlhNMTMbS7v53qt4UAACK5YaX1gN64NHVQNuPrzmNgH5J5ft25p8fV/k+ADDGsTTw6+cq4Xy6EABQXqcsfp5ww62NALFO9PQ9TfUmAaVx0oKnCidc2zip3CKc+58rqswJzxMzFj9D9WYAMHAsdYM1jKXQh9N/tHDD77W9dYdfEU54iugOPyF6+t4qeha+onRXt2XYKKLvdGxfuvffO96/7qJJ2f7U/4aOvz7Gzw2mN8J5vXUHnzeyW7vv+x/hhMclze1/l9CdE74l3V4Vx65JevrfZ2xfueHxLceXG7qiypzgL8INr+J5/FHoDt6efs6euuSZxb05JeMG3237eZYTfFu4wWnC7f9wcs5TtnNmnbnhsS1jqRP2iCqr90d9vzzurn9TvTnCCb7e2J4KfcY5wW92+IAvrskr/G7YJ5zgIuEEJ4lpfa9NCkiZyl3w/I71neo2o+8lne/f4AvZNgSf7vjrY5zi/YQT9reOAcHfjOxWZ+GLhRMMN/6OQS0+sPakJ/hYdlGk71TVm6Otk/ufLpxgQ2OMWSqOiB8rTOKGd+0wVodGf6a2J6DL9/K7qjfFGG4wM/ucX/wi1ZtjDDfYXvw5sxybgpuEE35fdAcfFF+679mq/+zScsM7dsgr/dUeS8Mb0r6YtvRJqjdHOOFQ9r5URScD+q4HoIeEG54lpvV3CdMQ0AvuXwK60ZzgbbljfV022IevEyZywz/mLhh9QOhs5pInCidc2djWf6jeHG0lMyLSE7JvCpP0LHrjLo8vp+8QUVVZQB8Rbv8nVW+OEQjo+gb0nc6Xw23CCX4vnOAY4dz9lDbvCdXlhq/f5VgqZ/9WFQFds4DuBC9NpviNp8ln4E4LX5ZMCXWDNyVX/eRUdzf8aXKC6wSr9zAA3SWc4DPG3MVoCejBtePuO52biiV8COhmc4OLG+PKcMsdXSc8V5hIzuLIxsorhO6ccJbxF0WK5gZ/TfdRFbOExsMNenOh/CP1UJr8LRcJUfWAnnwmb0yqMmPPCOjjC+hO8Pe2nGN1B89Jzp2nh69OVmSQj4O5wQ+EE9zYEhqzz9GVwg1+JHr69mcXH6d6Ptl5LHWDX1a2bwnomgX0Tjx/J4OeGxwk3KBbOMHNuWmj+bvqC0RP+B5hUkA34YTdNAR0c8mTDTfY3DiRuC75Nze8t/Ght0rMXPZkYRq5zfkiMvJv1Nn00MqNq2eq3hztTF90YC7M/UGYRN49a+6LbnB7/d+CmxufRZsqOxW2JaAnffMIAWYvCOjjDejFP7Yln0VPagUE5wg3iHY4X94gnPD/qB8w1r5d9uTsxmHw1+Tf5GMF9f+/ubpjKVPcqxfQdySv/rnhN4QbPrqLK4Q/17oiKwG94P5lirux5AW47Fj+UPJv9Zk0zWP7KGH2klbyb/ii0J0bLGycaETaPzffaU54RjaVMfiYMElP3+ey/bD/6OTf5OyzLJieJqpop4DeCFDykQ/sGgFd/4Ced3L/E5LHN3auP/GocMLDO7otZeCGn81Naf/cLmbLTRNVREDXgOqA3iQ/QJO76o1CAFl7QHQHrxI6IqAX3L8EdGM5wX2NELs8DYbTFjwrubtX//dbhYnkYztZQL9T6E5WojXluflOmrng8cIJao33cSg56TWJvGtef0/XpM+iykI+cnZK/d8XiioH9Pr030W584hfqN40bRHQzQroLUVY+z6yUyFWOS1bLhmGfeOGt+1yLG3WcJHnMlVEQNeALgG9SZ7Eyw/T1jvpQ8IJbaEbAnrB/UtAN1JP+ObcyUJrNeX8sS2nGBsn3i+plJ3dvTxA6Oy0+16QFBaqb++VqjdHG/JOU/YZc5YwiVz9JPtsnNXytWQKbHrsvUlUt0jcI8mzvPmaN04wQ/XmaYmAbmhAb6hfmPtBS9E6+ZiorAOF0Tzm1NvyNSf4Sfq17mBK5bqSgK4B3QJ6k1w/vXm3rd4GkwIaOiGgF9y/BHQjueG8XCXll7d8TVaYzsLFj4WJusOv5Mal7wndyQKWzefmv9z/H6o3R6s+kS1Z7tMgLSeO/W9o+ZosBpidcF4gqhzQJVnLJgtSw8Lpf7/qTdQOAd3sgN4kK47L8+T8ObOs94Tdkxdn0+nti97Y+jVZKyu94HFh5bqRgK4BXQO65C6atMMV8AVarMfXREAvuH8J6MaRY4isnlw/Xq/fyx3oFUY+Gzq9/7+yuxXBI9qvOpFUpW0GOtZEF9PC/9Tu5HpftUy93M0jFs31fGXxqFOXPFNUc4r7svTf3NDNXbRYY+bMnQIR0Mfab/qNIXIlJjfsI6Tv62O14YpGX921m/78W2Pc2KhdPioaAV0DOgd0qad/aloNuj4YflvogoBecP8S0I3TUggu+OiuvyeYkZ1AGLpWsVyLNvsb3iV0f946vbPCmug7zIA4VpjEDY/MzUA5bq9ru8sxtOoBfefijkuYSZLvm2Bm2jczFr+o02+ZsXQM6NIpi5+XFQdNxoClyfLHaJUvBOeGx++ye+Tng0lFYduJgK4B3QO6JA+M7CDZok3ROAJ6wf1LQDdOcyk1WYBLBsPdnkCEWxvfd6MwkRN+PHchQv91p/PPJld6TXQ5gyMtHrZenNz/dGESN7ylse3rRE/f03b5PfLf03WTg7tFlewuoMsigPkK7/Lkk1UN6gjo5Qro6Syh3MpI8nNWLtWGTLqUWrhut58DstieE65tjBn3VKr7COgaMCGg19dObx5M8qTjZ0IHBPSC+5eAbhT5SEp2jP5gz98bXJ4ViwtfLUxTX3WiWTF7o/ZTiXv6Ds7dLajumujJjCzNPkf2lbwwndR1SE64Z+/xe91wbu74skTVA3p2Z3Fp7jj4qZJt1A0BvXwBXZrW39Uy+9QNvqR6k7TR0/fKdCyVs2v2pHX2jX7FqotCQNeACQFdkgUc8nfR5frpqhHQC+5fArpRZOBpFoeTH4B7/t7Dclf3fyhMJKu+Zn/DMcKU2Q1VXhNdFvsxtcq5vLCyr6FbnkhmQXSuqIrsLvmjuz2PkM/mZ/vAiaLqCOjlDOg7PU4WbBQ9C1+hepO04AY/2ufQLcfa7HvPE1VBQNeAKQFdcsLrcoNNt+rNIaAX3b8EdGPMWPyMZMrwvk5bT2bFhA/udTq8zvIhyAluFrqTY2aV10SX0xizcNYnTJJM0Q6HRjVtPb0gs4cpnFUL6FJPcETu7tnWpPp1lRHQyxvQ5bR2WQAtG/evFlVXf9ylNqpp6/L7TH0saqwI6BowKaD39L8vdyXrVtWbQ0Avun8J6MaQd6Kax2Z336f26Wec4Ot7LSinOye4L501oNsykHt69r+Ka6K3FE8LXWESuezoaAu/ueHJey2CVMWALrnhN7RewrWTCOjlDeiSXMM7GztGhHPfa0SV9QQfG3Xht5Y6WH0niCogoGvApIAur3w1n/uUa5p+6b5nK90eprgX3L8EdGPI6uCjXTqte9ELcyc5u1iSzQBuMD33YX+60J0bXpXeOazamuhu8Nf0bzetqnHzZGk0S6fJz3Mn2LTHZYTK+wz68j1/Y7yfcILLciH9X7stuld2BPRyB/SdZ59eIKrMDf846toxrcvH/l1UAQFdAyYFdMkNLs7ddXu32m1Z8PzctlyhdFvKiIBuhtYCZGeN6mfd4Nr0yr7b/3JhGlkLI1sTfXFy4q8zN/xQbqbDqaIq5NrX2Qnq5cIk8rnRdEr2KE+unfDn6d8tn78uu30O6PJ7736KcIJ/5sauq5JHb6qGgF7+gC4f48j28/X7fBG9bOQ5RlZo88LR/Ww4L3cXfYIoOwK6BowL6Llpe3KKrNJtIaAX27/cQTeCrCidFq9adOCofrY7+GAuOH1XmMgNf5uFoPDNQmfyWf/m83dVWhPdCc/Q5sLuaMkVEbKLKpPHUbW+V5TdaAK6JNf9doMB48eg8SCglz+gJzNGwn5jx8B2ccPvjblIqBO+Jdd/nig7AroGTAvoTjAxN6V0vtJtIaAX3L8EdO3l1wl1w9vGWMTm0fSk2sTq4knRKYMqZstZDtn2vl6UnbwoISvX10/Klooj4scKE7fdCRaMbd33MGz87WuSu8aVeAY9GNjnn5En6ulyVMlMnk+KKiGgVyCg7/A+V3GJQXluIc8x6sf5wjFe5AjSsVSe+5QZAV0DpgV0+ZxYdgXsr0q3hYBecP8S0LXnhsfmLpgdNbbfEXw3d+LwIWGaJESFg+kH98xlTxY66+5/Q6XWRHf7P5z7e78hTL34M9ZHEvJ1Enr6PifKbCwBPfm58Kjc3bFNlVrvmIBekYC+aJI2587KPweC08b0O5ywx6ilVceDgK4B0wK6JAtR7Uul1sK3gynuxfYvAV178uSk/oG3aszBtOW5sPA6YSInPDf78DfgDlzz2Vs53d3EWQtjqXMgC4s6wUuFSdzgD2lonLbgWWP6HbIgnhNuaRynt4syG2tA33GdeSdcltSXqAICejUCupytls52C9ZoXy+l3dzwd+lYOtYC061jabkvchDQNWBkQA/ubnyIblO7HQT0YvuXgK61aeHrcie057alsmoSoha+WJhcKM8Jfi90J+/GVmFN9Gnhfxq7UoC8mCCPh/q2XzSu3+WGl+be74NE+QN6NOqflY8+5Ktdy+A1bemTRNkR0KsR0FtXsoiTVVSqYkbfS9Kx1A1+Oa7fJR+tbfahPAcqKwK6BkwM6HIN9OY2y6uCqhDQC+5fArrW5HNs6Yd9/xvG9buc8OPGTkNucsJ70osM0/v/S+hM3kFo3gko8woU3eFXsundwceESZzgO9m2908d1+/q7js0Fzx/IspqPHfQpZP7n548699S56bkdxoJ6FUK6Bek+/b00BJV4Qbfyo7pvkPG97v635W72HmOKCsCugZMDOjNaX+yyQ9UZdvBHfRi+5eAri15Z8kJV7btBCVfXdwJHjaqkFeTG7q5D+7pQndueGW510TPVS52wiGjlhaqT0dd1nh/wnGHRLl8mBs+OO7HUcp8B73ptPBlWU2JZDyaIcqMgF6dgJ6/6NcdvF1UQVKINnik8V7dP/4LbvJzJbi/8ftWl3csDW/IZgpoMJPICYcan+X9ojJMDOhOcE22zWN8lqQdCOgF9y8BXVtu+NncB/3n2/Q7c8+A9r9fmOaUxc9LHrsZc5XYDuvu+99xF83RWX5ZHFm53iQtyw+Gblt+pxt8Lfc7jxRl1I6ALnX3vzM9lpPHbgwcj/YVAb1KAX2G0QVZx/s5J4u8tYMT/r9xF8fVHQFdA6bfQVd5ZYeAXnD/EtC1JZdUq384rW3bciNO/wG5wHi1MJHc7uzO20ShM1kcrrkGtCwaVzb56ZzT+l4rTPxclo8htGt2g3zsohkq3PAWUep10IPa+H9XeEruJHytmL7oQFFGBPTqBHQ3PNmoYqbtvKEnx1JZ5K3ttU3CW0UZEdA1YGRAD29pnMRvV/p8GAG94P4loGtJnqhmQdovpr5EsF3757h3xQkPN+r5NCc8o5RrostHn9xwvXEn0NKMxS/KBelLCpt9Nj18tSibdgZ0yQ3n5I7nxUpn7BWFgF6lgJ49hiU/q8ouf1EyqSdR0Fgqby6UDQFdAyYGdCcMxlUIpl0I6AX3LwFdS3K6cFq8qu/gwqbOyym5Jq+Jnjz3vODxQmfyzrKp08D3xA2PzZ2IHidM4oSn596Td7T1d8uK/dnvPlOUTbsDer02xs25femG0i1LSECvUEAPZmaPpvUdKsrOCb6e/b397yxw6vyPRdkQ0DVgYkBv3hlRvaYrAb3g/iWga0cW2nLDFY0PpXva/vvlIyuyiFX9+F5qZrG44GyjnvNzgr8bc0Fh9MsJrVdaSHQsxdyc4KHGtj+Q/P+iis+ZVjhPRUBPVzxoFIWqt5+KMiGgVyegO4GXXVxf9EZRZi2FMRlLR42ArgHTAvpp970g94zn+NaGHS8CesH9S0DXTnffp3J3uE8s5DWccFbuNQ4TppFLzmVX1n8tdOeEX8wV/PugKNMjGE5wvjCJE743t+98ufhKzuEnRCmLxIWDbf29cu14N1xX+NinAgG9OgHdDa7NjfXPEWXmBO/OjXNfKeg1vl3aZ/oJ6BowLaDnDzondJRuCwG94P4loGvHCW5M70zOWPyMQl5DXtnPApaZa3S7wd3GLGEm7xC6wWZjLiiM6rn64E3CJG54VbrfyIvRRUiWEQtG0inbZVJUQJfkxStZ0b35/vT0vVWUAQG9QgE9fCAtelh2zWVE5WoMRY6l2ZjwZ1EmBHQNmBbQ8x8mqk++COgF9y8BXSs9fa9MT+zd4GeFvpYb3pWeCMvjzDRy2bLsQuIpQndueGna3+2qdKuuMn3U+Fv6hEl6+vbPLe1V7IUpN/xj4zgeET0LXyFKN8U9HCrk97vhV3PH9VBygm46Ano1Aro8v08vzAU3izKTgTxd8jS8stDXcoLr07G0+77/EWVBQNeAaQG9WeXZCTYof36OgF5w/xLQteIGP8ouji2aVOhrOX0nFD7Vt0jyrnlycSEZq/4uTJpabfKa6C1V9Nu0fnintKytG7y70NfqCT6We79/IMqi6IAuV41xg4tz79MC0dP3NGEyAno1AnpP+J7cZ+oZoszklPb0WfvwPYW+lhN8NDce/FCUBQFdAyYFdHnSm95h0GAqJgG94P4loGujXs241hgr7u3wMln3K11OcbxT7JK/4b7XCJ3J4mFu+GgjsN0tTJU9Y2nWTICkOFy4pLHtD7a9ONyOTu5/QrragJxxUJbigIUH9GYhy3SGj+y/qwt/v4pEQK9GQJerNpSp1sgei8MFixvvzUOFF5rNnxvJ/y3NWBrekO4vcsxTzQmHGmN7v6gMkwK6E0zLTnj7j1a9OQT0ovuXgK6N/B23Tk3ZltPoi1puqhPyS1qZcGVd3kk1eU30/BRxN7hcmEQueZTtK1/v+LP6PcERogw6EdDT9ZWbF7SS1/s/YSoCelUCetgYGzcbP+tjT+RyatnFs5kdn10o76iXAQFdA6YE9PryM/elBS6KKlA1GtxBL7h/CejayJ5Z3dixcaK7b3IuMF4izH4e+lHtl4xz+g8wek10+ShEp6Y1tpsTXNY4vrYn4a8Tpoevzp3I/kGUq0jciuJfK7SFE2xKnz81tYozAb38Ad0JJubG9t+JMnPC+elY2r3ohR15ze7gVbmAfr0oAwK6BkwJ6E7fR3InE2cLHRDQC+5fAroW3P6XZ8XhwnkdfW35jGf9otwW7auh721aYdHPFbeDPNk0cqpevF8y9a2+7Q9rfzEk75TFz8vVK7hGUU2X4VIUPOtkQJfc4NO543tTEoRMQ0CvQEDPLV3qhB8XZSUfa5LnCvWccG1HX9sNb0kv1pViLGWKu3omBPT6Mx7Nu+dbksCgAwJ6wf1LQNeCnL6Z3Zl8s7Jq6KYV/crWT25eWLxY6E6u72zic4pO+JbcCeg3hUmcYEbW533/29nXDo/KBczvCNN1OqAnrxl+P7fvLUsetTAJAb3cAT25ABhsTC+8yvoTZeWEPbnP2w909LXd8Mjca39XmI6ArgETArobfEnL6pME9IL7l4CuxTRtJ1zeOP76Ol6sTa7R3ZxG6oSBkcXiZBX35uMBOjyasyfyMyDrb/WFOPeVG1yQ3gl2gpcKYyRVwRc19o9HkmJ9nTRz2ZOFE6xOH8Po9OsX9wz6yg4/fndN7kLH37QoqrSvCOjlDuj5WVxu8DVRWnIsbTxnLy+UqRhL3WBV4/WXJ+dOJiOga0D3gN7d/4akqEVzp9fpBJeAXnD/EtD1WrYq6FayDW7wy+wOfv9UYRo3PDk3C+BYofsUweZ0a1MqobdW/Dfr+T8neFvu+PqWkm1ww58aOWtCl4De3Aebj+PU2y+MuZhIQC9vQJczuNKVj4JaqYvDOX2H5C6SfVvNNoTn5saADwmTEdA1oHNA7w6ek3uucFi7Ss4E9IL7l4CunBNel1Z+lcejCj19b2098TVMMgug8VycfOZXZ7JCf9bXZqyJLi96mPp8ZXNNbfn5NqPvJeougqcntr8RJlMV0CX56F1zKaD6sfMlYQICejkDejL7rVFTpL4/nijKzAkuUj6WytVPss/P3wqTEdA1oGtAl3fK06mhHVx6ZjQI6AX3LwFdKfkhV78wpvj56dw0YDn9etqCZwnTZFW6R8S0Rf8tdOWGd+wQ0PVfE90Nbm+EsiGjnq+UF7yy2WHXKd2WdF3vYLuYsfhFwlQqA3p2MbFZ8G9YOP3vF7ojoJczoLcUKA1vMGZGx3gfhVNdpd4J78yO/4UvFqYioGtAx4Defd//tE4XC3wtBxcCesH9S0BXSk65zS6QvU2bOhQm3NXdUU//+7QvYtbT98rc+31/Nu25/w3CiKXhNFndY185oZPbJw5Xui1ueHzuwsw3hPFF4oJVWhRalEvCTl90oNAZAb18Ah46KwAAIABJREFUAb2n73O5lVdWmFWXYwycYFo2fvV/WO22hMdp/1m/LwjoGtApoCfFVvpOyBWtkYPf+cm/64iAXnD/EtCVkQVWZNGq+snuIuUXyOrHWvPO1AJhYn82i+054RLl/bkr8rm9ZjG76aFlxJrobvCjdDun9b1WmFXQqE+bgkKtz/GbtUydbgF9x2Wt3GBxcodPVwT0cgV0J/hMOvNNPn/e3f9OUXZusLBxrA0oH0vlc/5uuM78sZRl1tTTIaDLHThZ5zz4R+6kcGv9TpmGJ7JNBPSC+5eAroxc7im7SDZD6MAJrsid9L5JmMYJfpj1ad8hQr91xJc0tu+S1unCmq6JLk/E3CDS8iR5dMvC/Z/QgROelyvG+D5hIl0Cen31ixtaphirDg67Q0AvSUCXY3jw9dxjaSPJDa+y6w6m5HLD94QO3HBuduwb8JjLrhDQKxzQ5R0leWDJk1YneKj1ucfwLuGEttAdAb3g/iWgK5MtG7Q1WUdVB07w7lxAv0CYRk51zbb/Z0Incn37LEy8d6epejpWpJXblG3zccIkTvhz7WoSuIsm5d7vq4SJsotKqzV5LjZ7VETeVdcRAd38gN7Tt/8OS/0Na79iSLs4wYXajaXT+rtyn/VXCxMR0DUL6LLAidM3oa2tfnXrHcLt/6Rwg+mNJV1uS6ZRtoZyuSMvrFfh1fiu+W4Durz7FPjGNyf8otAFAV2N6f3/lTv5uEzoIplp07iY5wQbxKlLnilM0yzCJp9Nde5+itBFcvwnY3CUrh8rC3U2x2kd10TPTkjXJ1O0TSGLHGaff38UOnHDf6VTY6eF/ylMo1NATy/KBWu0rqRNQDc3oNdnEZ3Wso/Jz5ae4AhRBfIcIBtL/yR04ob3mj2WMsVdr4CupMnnXINzkmceTZMP6KVpwbVCFwR0NeQ0ueb+0N13qNCJE56e21e/IEzjBCfl7nJ8RuhAVj6XVa939bx5c+ka3dZET+4Ypev7ni9Mkl/Krif4mNBJd9+puRP9/ydMo1tAl+TjAum043BrciNEJwR08wL6tKVPSm6muOGDO5zD3ZsU+6yKeh/oucRmy5KlwdeEaQjoGlAd0OX6wHJHkBVtZfV2kxDQC+5fprirvUsdLtGuQKNcAqp5YmTCEmA7ko8RNZeDcYLrhQ5k1dt0PO6b0PI1WWAou6AwTegiX9VfztIySXqXOqhptyxcfrkiHY//fX8GfY3QSX32YPOcZ0icFr5M6IKAbkZAl5/NyWzUcE5Smb31XHpdUitGx1ohRXLCexp//6B2Y6mcKZUt/fageWMpd9D1Cujy7pQ8yNvbvpOsxyjvcjjBjVll6N02Of3909odbHsN6MG1ycm36e2kBU8VuiCgq33OW9c7aG7423QbjZx5E17SOLEbFt2LXqh6c5Lp6/UxbOFOX5MnFW6wVK8LIklBu/7GPtAnTNLynHfwI6GjbNaEfjNoTA3okhvOy13sWpBUe9YBAV2/gC73Dfl4hCzWKpfqcoLfJ4UPd57xuDGpbWDiFOrxknWqsnOVM4SO3PAXuffqMGESAnpFi8TJECjXVU6m0gZ/SO6i7zzwDCQBTdfKpxJF4gruX+6gK6uULqcPy2nEOsoXB5N3E8y+CPJl9XdMm+Nv8KU9L7+myZro+QrobugKk8jigPW+HhHdwauEjuQU7CxI6lODwvSAPnPJE4Ub3J47x7lai7tqBPSx9ltzJteaZDbU+Jrcb+8SbhjuOojv1B5Ibqh9uf8/RFXlK6XrOpbK1Vqy4/1yYRICugZ0WGYtKfQQHpl8YDWfK8x26kXaLlNAQC+4fwnoHXXafS/InuvVsChY6xJGy9OpfbrciRrVVMV0JpHaO8CyaNXe7ub3LHxFEijr4/HZQjVZwV+3FQb2hSy6J4sb1vvxJqGtlhkKW5PPOVPoHNDTMTZ4WKsl9gjo4wzonWjB5mzsSGa2TBZVJouCyuKg9c+um4W2TB5LmeKung4BvWV7Fr64PiU+XNsyQMkp8vIERycE9IL7l4DeUd3hV3ZaaktXcr3TbHw4XphGnphnfa1uScnkkaJ9qIDrhrc0vm9Q6XOO+RMz4+5I5AoEyse4dCYfT8u2ddczK7QuEheuFbqSdR7SytNyJkXfp5RuDwF9nFPcw21Jkc3xNDdY3Ahy8i76n5Olw+TU9u7g88nngxxz3fCzuWPyH8mF3qqS67vrVmx13+pPqJ0xNxoEdA3oFtBb76qftcNVygeFGxwkdEFAL7h/CegdU3/WeHHjw3+p9h/+cr3T9K5ueJcwjZySp3p95NY+/Owev9cJjtFiTXS5tm9zO3rC9wiTOME/G9u+IpnurLP6Z9vWdBabKUufmhDQJVm9v3nsyUJSTjBR2bYQ0A2p4p7cjb3V6FVM2sUJ/t44zlcmFe11Jmd5NcdSJ7jfnLGUO+jq6RrQm3oWvVE44Z25k9m12hRbIKAX3L8E9I5pqdYdni5M+wCR44Rp0um44QolRTGbJ+Zy6uTeHhOQX0/vXIdXCVWaz/DKacK6X0TKkwEsO7FW/5jAvpAzFLJnPN8uTGBKQJfc4Fu5MXeZspofBHRzlllzw9fn7tyv1Grpy47OQEnvnv9EmEDW8sgucL9DmICArgHdA7qUTO8J/NyH2TbRExyherMI6EX3LwG9Y5xwfiM8bE+WMjNBd/iJXOjpFaZxwuOyMa3vI5198Xi/5M5o/STnolFWoVazJrrTf0Du/f6WMIkTzM7e6/teI8wrZvgrYdZFr3XChFlLzaKc9XaHkruBBHSz1kF3g3Ny4+DPRNU4gZf+/dP6XitMIG8qZsf5JcIEBHQNmBDQ88/wZUWstiR3/VTiDnrB/UtA7wgZtpqVvOV4YAo5TViuKVw/UVkjnLufIkwia2pkz6JerXC5r32bkSRX3lC5Jrpclqz+2sPCCV4qTCFnHzRrqsgAaQo5Q8EJHkqLVHUHzxG6MymgpyvapGs5Ny6WdXgKLAHdrICePP4ZRLkaBtUpGCePF/lZX//bbxdGPUIoH9FtZBcTqu8T0DVgUkCXZHEdeYLW/BBW+Uw6Ab3g/iWgd4QT9uTulB2VjAOmtPydyZ6+zwnTZGtOd/autBv+tPG6j+7zVPHkjl+4pLGf3CM6Xbm/eVIqlyUySf65eSc8xbDj64e5bXeE7kwL6NKMvpcIJ6gpK8pHQDcroEvyc7qKBePytVC6+05VPj6OprnBD4xaHpSArgHTAvqO1XBl5UtVyywR0AvuXwJ6Z6Y6y7VXO7VcTJHNoCvqTW7/u3Lbf1rnwm442HjNH43qZ93wG0rWRHfCw3Nj/seFSfI1VExuThhoX+DIxIAuucGbklkK9cA3LLr7/rfjtShkM+XxpqoH9PojSjdVrmCc7GvV42B7Wqj/WEqROPVMDOg7L1N0npJtIKAX3L8E9MI5fYdo8GHVvmbKM2mt1fOXNk70/tmR13SDD+T67PWj+tnTwpcpWRPdCa5pjPVDSgrqjauokwbHRbuaE75FmBHQ1wuT7w7KRyKmLzqwI69LQDcwoFewYJycLat6/Gtn6+mfKnRGQNeAqQF95p8fJ9zgr+m2dwdTOr4NBPSC+5eA3rEp1sljI8HXkvWPTWuyUI5pVV3znODb2Qd3Bx7ZccNLG69375h+3glu7Oia6LK6dbP2iCkV0Hd+lEDum99WfqyMqYWzcsHx50JnJgd0KVlaNh0LFosv3ffs4l+TO+hGBvSqFYzL/61O8B0zz1Vynwdu+AuhMwK6BkwN6JKcYpmtk35b54urJGvFNgeMKzr62lVAQC+WPPmTa/DWP9z/IEwli8M1C8eYsC7qjnoWviJbEzk8o/ACQ833XNYeGAu5Znon10SXz+R28gJGu8xc9mThBKsb236HMJV8JMIJlzc+5zaJaQueJXRlekCXNx6c4Pe5CyI3JP1fJAK6uQG9KgXj5Ge6G6xqHBN3ClMlNxbDR80YS5nirp7JAV2SV/TTD7P+93f0tQnoBfcvd9AL7t/TsulWGixb2K6lV9zwSGEaN7ylcfKxPPkQL7xgWbB9zOsuJ5V0ZYHOTqyJnquRoPJEePwXMo4VJmt9pOwUof066MEGYaqkoFSuLoicwVAkArq5Ab0qBePkZ3p2PBwnTOYG381m/vadKnRFQNeA6QFdPnOaHbi/7uhrE9AL7l8CesH9u7DxoR51ZKpykZy+CbkwdIsw+/nT9xb2OmlhoXHOmHCC8ztSfb4nfLOxJ2b5gmWqCpm2y7RF/53VHgj/JXRVhoAu9fS9Mr1jWD9eTyzstQjoZgd0eRHTCW8tdcG47O8zfyx1+1+ezZgLFghdEdA1YHpAl+T0webJYifXaiWgF9y/BPTCyJoNWfD5vigDefcgm01zgDDJyf1PT0JFffsvKeQ1nIUvzhV4+/S4fpcscNOJNdHd4IJ0yrLsI1NMD1+d65/ZogzyJ2zuoklCR2UJ6FJ3/zuz2gvyQljwtkJeh4BueEBv3KjK6nSsEafd9wJRFt3Bq3IXB+eIMnDDP+Xuouv5WAIBXQNlCOhO+P9yJ0PHdOx1CegF9y8BvTBOcGH63Jp8BroM5F2m7C76mcI0bjgvfTatiLHYDb+a3oWQz+2P+65NcH+ha6LLOyUymNf75HxhElnMLvtMmijKoDv8RO5vOl/vWQvBRlEG8uJXdiF1KFlFod0I6OYH9DIXjHPCH6d/1/TQEmUglwrN3qsLhI4I6BooQ0DvDt6u5G4FAb3g/iWgF2LG4mekd2vlIFzOv2tIzFzyRGHqOOaGx7f997thX2OMvLAtv88Jvl7omujp8/LJScybhCnkfueGKwq9eKGCXN5OVu5vBmBZoEo3ZQvokjynyc5v7kvGuXYioJcjoMsZRs0CZPLCu+5LIo52zCnTWCofKXSCWjpW6Zi9COgaKENAl3eDsuk9/+jY6xLQC+5fAnox/RqenAWr8BOiTLIp0Qb+bbIgWrC4cdL3l7b+ankXNwv/72jP71z44vryfMnvPEu0mxvc3jgxCzq+Qsd4OMFncoHqJFEm+WXAdPzbyhjQkyr66dKG8ni4rq2FwAjo5QjoOxemvLfQgqOd0N33qdI+W5+fGaDj30ZA10AZArokiy00n9Xq1KBEQC+4fwnohZBXok29y7w38k5rdiJr3uwAN/xGdoHhvv9p/5Tr4JH2ntynz9K1d010WUMgex/HthycKs1CfHI2R7vvdqo2fdGBuYD+T6HvM+ibRJnIQoxu+GDumPi/tv1uAnp5AnrZCsa54Z/TsVTHGTvt+oxzg7uFbgjoGihLQG8putChQnEE9IL7l4DedtP6u4x+Tnt01elH2hpyO8EJXpqr8Prt9q29GgwUUhAwf7e4nWuiu8GPGtu7LRlnzaq+PVK650B3XZ1ev+fry3gHvWla+Lq0JkO9uNSn2vJ7CeglCuglKhgnP7uzz0I9a16Mlxvepu3z9QR0DZQnoF+a/h1ySZiOvOaC5+dOVK7oyGtWCQG9/ZzwvOwDYdGBoozcoNvoCvXZHdiHxMz4MeP+fXLZtnRs7HutaKdpS58knGB1W9dElxcU5Hrw9RPMy4VJnPAM7Sudj1dP3+eU1Hyp8h30JnkRrPlYifwbndAe/+8MZqbv54zFL2rLdlaBrgG9LAXjnOCH2lc6Hy+n/+jcBW69KtQT0DVQloCeL6TS03dwR16TgF5w/3IHvYAiMuuNXSt8X8kZNG6w2dg13vPPEbZjaSU3uLjQ+hxuODd9vOiUxc9rw+/7UDaWh+8RRhY00nh923bUfJF35nRcl7jsAX3H4oxOuEz09O0/rt9HQC9fQJfTwZuzppKZZIYFXPmZLT+7yz6Wzlz25NwFbs3G0tyymvJCvGpOONQY8/pFZZQnoP+k0IrCu0JAL7h/Cejt7c/w+NzV2iNFmTnhr7KT2L6PCJOctOCpyYd1OyquJxdlgo2FrlfeHUzJ3a3pHvfvc4JrGtv7cFufly9aT/Cx3B2fU0WZuUFvbiw5Vug3xX2zKK3kOeP5uf6/Y1wn0AT08gV0yQmPyo3L/zBsLD0it+2niTJzwlm5C27HCV0Q0DVQmoAe/jw7oPtf3pHXJKAX3L8E9LZygr83TihWJ1duy0xWKs/uQv9emEY+c1ff/vVJYB/vFLqin+WWldbr2/uvcf0euY3N5yed8JvCxDoo8u7ttAXPEmXm9E1oCYi6qERAbzxaIvs9O7GfP+aVDgjo5Qzo9VVBbjKyYJwTXJ8ex52qKaW2tkTzOL5T6IKAroHSBPTGXRfZvtz/Hx15TQJ6wf1LQC/mhDo4R5SevMsU3N84gRpOiq+ZpKd/au5D+6g2FM/8bVu3b+fX+Wo2LX3RG8f+e4IvGfmeybonaXG48BeiCuRduU7PWtubqgR0qXvRC7NaDcnf/KUx/R4CekkDejIuvz7bznBlshqA7k4LX5ars3CRqNLNk/F+frYTAV0D5Qnozcqy6zq2Zi4BveD+JaC3jRN4uRO5g0QVOOGXc3fRvyNMXRNdhuyxmN7/X+mJTtFrwidhIT2p+snY/+YwbPzNfxQmccPvZSdY/VNFFbjBibmLSLOEVs+gh1tEFchChM16G8lFrf73j/53UCSutAF9x8c/TSgY5wbfzT2edoioAqfvhNx71Ct0QEDXQBkCuqx0nBVa6Nx0OwJ6wf1LQG9/UafgdlEV9eNza+OEfbk47q5/EyZJT5yDkTHdTXaCGY2fX9ORRxrc4A+Nvh5KCqaNVk/45lzg+7gwRbKMXfhoY7uDjl0gVk2u8S7XJ24+NiPHGdWqFtB3Xupw3ahXaiCglzug14vDPpp9loRvEbqqr+CxrLEvh5UaS5sFfJ1w7bgea2sXAroGyhDQ5XJRKq4QEtAL7l8Cels4wTG5O8nHiCpxwl9n03CDDwqTzOh7SXpXWk4hHy35PHgnx0S3/5O5gH34OJ67XyFmLnmiMIXb/+Hc3+2IKsneszipd6BaFQP6jktSyZk3X7rv2fv8swT0cgd0kwrG5VfwcENXVIn8nE5nYfV9TvXmENB1UIaAng8gRU/lzCOgF9y/BPS2kCcQzSuzOi3j0Qk9/e/LXZz4jTBNWnhMLi0yirsJ8pngTk8TlKHaDVaNaU30fOV6NzxLmEQWIWyGQhOe8WwnN3hT7vj6i+rNqWxAr88izOrwOMHN+7y8JAG9/AHdlIJxTnhdZcdSuRRe9v6on+nIHXQNlCGgu8HVjZ16+6iuHLdnCm3zA/GKjr1uVRDQ29GHB2n3bFMnyTsFTvBQ9ozmwhcLk8jl8NL3b9Gkff45Jzyj8Tc/lJy8d4ob+GOqGi+X6mr+nbKqrSlmLH5RrgjTr0QVucFCbd67qgZ0SV58TWfNJH1w3j79HAG9AgFdFrLse226QoZ87Om0+14gdCLrmDT71A0vEVUk13zPZhC8Xu22sA66eqYHdFkIKTtBuq6jr01AL7h/uYPehj48J3cndYKoIjf8Ru6k9XRhEvnseLN+gCz0t68XJbJnDr8rOmlaf9eY1kTPinzqs2TXvnCDb+UeoXi7qCInmJZ7z89WvC3N/WirqKJkNYFwRe79OHGvP0NAr0ZA37FgnHw8RdfPablMahXJNd+z92eMxVbbhICuAdMDujzhTg/q/nd19LUJ6AX3LwF9/GvlNqYcy2U8qkreNU+f5Q6Wavv83e644dzGxYWV+/RsthwHm2Pi9PDVHdnGltcP+xqvf+8+fb/cxuzE7HhhinxBI7mkX1UKGu1IrlOcVhIPVybjjipVD+iSvFCU3ikNt4qevrfu8fsJ6NUJ6KcueaZwg4G0YJycVq3PTLeH0xoKnZz1pRM5A1ibsZQ76OqZHNDlFJ30mcfg7o6fIBHQC+5fAvr/b+9cQ60qwjA8/Qqi/lQWFHSTJKJAii6CURmB2t0su9+hkAzda7Z2ArtbFoXlj6iICjOtLKwIregKQVR017Nn9kmL8pKFmiV6NPPEN2uvNbPOdZ999prLWu8D688+4vr2zNqz5p355v1Y29KjAxI+eZ5ti19857GQqIjxxqr65UP++0i+1PieX1mJb0D3+CZrumqDq+3KcTgUKrULR1yDuihwsdRoi2s8SHH/l5UZ891JVRV4ffTQ1SJkjzqyAYor0H01jMt4xcgOVma4WGK87691FgcEugeELNDpnIp+kCfYvz/OoOfbvhDoIyKSnwUpfPIgqk01JgBvstCg8l3xhOqdoUvqpWZrM5gLqrXD9FnCIVKe413ojV6mXA4F9UUiBn07z+li11ZP+j91FgcEuoY8R/T8qFOVcuoPCPRyCXQfDeMSHykaS+n9UWZIy5hmj87iwA66e0IV6NlyDIvdxACBnm/7QqC3TFQ/3vh9PMfKDtVAT1L7QpwEUJm1ZszXaPcySW3tqI+yGmMmDrmiEcefg7pJU+k7fYZ7PAuFjKGReMN1OO7p2Uel+aeps+I4J2FAoPca8+THhhB7u9/UYQj0kgl0NT6PNcavrU4d02fJw9MjGTBbThZQupweUyMg0D0gRIFOZlfpLpH4VZ2BcwEEes7tC4HeMpFcYOwYn9bObgkWLh41Fi2GX1fcFzPMwczXkpJfNBl3SVVMa6omui4NJYM6w22KGi4mug7HCyryLqNNHnMSAwR6llmrDsxM9iP5cJ82g0Avn0DvbSBLNbjdxTHX2DGe5CwOn6A0f/2bfdxRDB+lMbg8C5+gjuokJWfLQmgCfaY8xtgJ26Vcg10BgZ5z+0KgtwQZienB7Pt2d0uwVDrHqN29uF1+Ds6Ihov3B+3T2JNjT9Nn1fN/BrcMulhA8aY7J7LKQizdx+UvwT1HeWH2J2VOzKjv684kTuyxfm9fiTpPYJH82zAGuzrzdwj0cgp0HwzjaOykMdRFSVCfibXFbrdjKQS6e0IS6FTTWTs97mVR/Ua38SDFPd/2hUBvrd3qVxmrr7e3u1uCJhKfOKv60M5+7a9GaiSjxkTnL09WvJ8aNC2fjNWaSdv3jaqcbOw8zXUdjleQv0NqECim2b8/BPoA7TLJEJQ7M1lVEOjlFOgElzcY75QflCeI1fuLicbu+d1W7+07XC435nFXWL8/BLoHhCLQY8fc7Vqc125zHRIEet7tC4HeWrsl5w7FDrVKDjS0e6QnBK8H1TQkukl8xy/sBX3+HolvG9/rWeYDkTjFELKVvufspAzy3GEycaKFBTo/CTRUIUFP+D+03jQQ6AOTLIjFz+761IcDAr28Al15R6RmsvYN48i/I8l4oWNcoP+FYBLLtoFA9wDfBTo5j5ITsK5j3O20jIsJdtBzbl8I9OG3WX10msbNxYt5dEvQUOo1l5uDdd/m4plG325SJlD9mQJW5RnMF2hXJo7rx8znFKOOdzILM/XwLdfheAelqKbp/2Ivq64+1ur9IdAHQS2KLTYWKL9m96zfDwK9zAKdFn5rJ+qjKWKbtXfiHWsO1WOpY88UH3E+liLF3T2+CnQ651eRV6qVXnPV1yenXwj0nNsXAn1ERmg+/VZ8ghb89CR1DgsJ3jVOx16/QH8u5zc+X+uV2RqXXMdbO1l/Lp5vtP9vXtThbcUIzWx/oOHyPmMXfb4bkzjxH7pkwCycL4zx72UI9JILdCISC41n4gXrGR2UIQv66Rd5r6F/HrHaRBDoHuCbQKeSPNXaTcqpT7/k6eF8RTmS+gQEes7tC4E+7N8O7azGK66r8+qW4KEdA53S1+WVoG0GLmuZFP14pT325ojk/cy3MVKX0FmoPqvWDjCOKz3AQiE2NFob5MKCTaLVRxoZb79nMj1yvzcE+pBQajsX6wxBlhge9rA5a46w0U2FoEgC3bphXKYs4zrrZ99DgX6PeizdNGjJ0nYDge4BPgh0NcGsncUi8XTqPq2FuWDV+vnMRyDQc25fCPRhURWXGZOuWXl1SyHg4nOjrSawkEh3HkS3WrSk+NOdiM4xzDeSUmo0ttMEoyJuSXc5qSpHKFTq5xrvJb8WQnwjkisNM8ZLHZjE7bV2zxBR/hBiR2auBYFeXoFORPJ6Y+H6m1wXICviHONe4SzSuoDLFUYW2lRr94VAL6lAn75qfzZbnsq4mKkMgiLxR58XBe2gkxGczdX34QKBnnP7QqC3VoZL7GR3dh6UV7cUgkjcnMnOCQkyJtOTw+lpujgtOvgICTRTrKUiSn7AQoLLZenCAu0Sgyb7XL5rrakg0JuHjhCmfiUQ6KzsAr23YVyeFWC4fDUdS+fUjsrtPkUgklOMzYT3LN4XddC9EuhcPtE4y9i+S5XaURPIZfHLM0nB7e8S3XGZFnFREPUQTYFOaTqRfK3wFy2uuBDo9BJ0/d3zvEZqAEI7kToVaknb+qCo0HOsawN3s4o4mIW4Q6mc28W2VKz7CO2a68yoxDSuRwmEUIh+OoRFcldj4rrSdTjeQwvrScqszUk4BPpw22seBHqLFE6gK+E8Nv1eXGxV41676aiPSsdSm4t3RRlLI3F0qQU6l/84n6/ne3UMJNAdXOos1CLG5XXBlYTKCPSSXDZ9ADI76AW/ZtVPH2FbPZT+X9Xa2W3rgyKTOqIr0RWxkKAa0+bzQxMen7MmTBOi+NqsHPVDgYvZRuyXuA4nCMjUKH0+xYN27plmZ/RYuV/oqOOFRu16nEEvt0C3YRiXMQ6VU9r+/xcRbQJLfTKv5AK9p9AXaXIrAp3MgSK5hXG5QRkbxR2+SLmGVsTFwae2QKDn3L4Q6E1BBivxbyw+GhKa6ZkXdbplLah2I3Ebj61J/MuZz1S7Tsq+H8STLKzUz9i0NJIbvT525RPkh5CkUFMFFhtGUBDowyc2bYwzWyDQm6eoAj1Xwzg1lgqMpcOEMiz1cZQNdsZSCHTmXKADAAAID3V8KKCdCC6+M15EY12HAwBoQJsldPwQAh0AAAAAAIAWUUabjXTxGfV9vW9HqiwQx/ul61AAAL2o1s9UWYEAAAAAAACAFqHUVNpJDwEyHOJyN+PyVtehAAAAAAAAAAAA7SWSVca7xgXTrFz5UD4mAAAAEUlEQVQsDc4MFAAAAACA2eF/vbnER11C4ScAAAAASUVORK5CYII=;" vertex="1" parent="320">
                    <mxGeometry x="145" y="10" width="174.57" height="70" as="geometry"/>
                </mxCell>
                <mxCell id="337" value="" style="group" vertex="1" connectable="0" parent="320">
                    <mxGeometry x="377" y="232" width="70" height="70" as="geometry"/>
                </mxCell>
                <mxCell id="335" value="" style="ellipse;whiteSpace=wrap;html=1;aspect=fixed;fontSize=20;fillColor=#1BA1E2;" vertex="1" parent="337">
                    <mxGeometry x="-1" width="70" height="70" as="geometry"/>
                </mxCell>
                <mxCell id="336" value="" style="shape=image;verticalLabelPosition=bottom;labelBackgroundColor=default;verticalAlign=top;aspect=fixed;imageAspect=0;image=data:image/png,iVBORw0KGgoAAAANSUhEUgAAACAAAAAgCAYAAABzenr0AAAABHNCSVQICAgIfAhkiAAAAAlwSFlzAAAOxAAADsQBlSsOGwAAABl0RVh0U29mdHdhcmUAd3d3Lmlua3NjYXBlLm9yZ5vuPBoAAAOTSURBVFiFrZZLaFVXFIb/naBR46Px3VscdGCjmVSJ2PiipdB0UHRUxLbEiSUZtR2kipNOBAVFKIH6Al8jLThqKa3QB6UQrRbqq4IIQU2aqlFaa40mJuZzsNfB7e09Z59zdU/uPXv96//XOXvttZZTxgKmS3pH0mpJTZLmSqqXdENSn6QfJX3lnDubxVN4AdOArcAgT6+7wF/Ao7L9n4HXnpd4i4kA3AP2AK3A5ABTCzQCnwLnDTsG7ABqn0X8XeCBER4EXszhUwO0AbfM7xugrhrxFhN/CHRU4f8y8EcSfFHnacFnrygOTABWAGuAl1Iwc4Fe49lQJIBt5nQoxb4U6AmSbsSS1FXALrEkvR7mTZb4dMv2e5XOHHgB+NOEvwa6gvP+MIXzsNk35gmgzcB7UuwfmP1AsPeq7Z1K8Vlo9t/yBHDMwG+n2JuBdqAx2HP2xW5m8F7CX81SLIALFkD8vJ74rDOf4xmYA4Z5M0b2N/BvAfH3gGFLxGUZuC0WwDZgXBbhMNCfU7zdMnwEWB/Bbg5uzXWgk0oFCriJL0D/u1IVsN8Z4fs5sF2GPQ2M2v8zYS5JUo2ky5ImSHolRhqs33NgFthvh3wn/UHSIkm/AE1hpNstuo9ijMBkoIFIwwGmAEPAQILF94zPTesKMDUBN9vm2dgxAPX4wlQTwbUb58GyfQd8aba9oeGkbbZFiI8bbkEGZhLQb8m6qIK9AbhtyT8veZP99vtGVgCSeiSdkzSUgdklqSTpSKVJyTn3j6TdksZLakui2mdvti4SQOYCPjOeq8DsDFxSyn9KNq7aJ5tpzzOA+QWE64FDRvpfpU9fhnck9Qc/WgH04avXr3ZvHwH7I+c9BeiwMwe4FhMPfPuBYQd8LKmrzN4raZKkmfZ8QdJJSf2SRiXNkb/nr0uqkzQm6YikTufcQM4A7kgaE36GGwS+BT5J3hg/JW0CLpK+BvBNZ3Ee0UC8ZP5nBCwnMkSaw2qeFK1TwGKqnICBDcbzRVHHcfjGMgoUKd0hRy1wzgJYWQ1Bpzl/T6QipvivNf/uwuJGUIfvauBre7SLlvm3mG/qMJOHpBHfxsHX9oYIvtbevAUYjx+C7gMTnyWIJnxXA1/bt+ArnAswJUu45Mwx8bv2v7XqAExgKrAXX9WSNYQf4+/w9OrGN7P7wd7OQueXEcg8+cbylvxgM0vSoKQrkk5IOuqc6zbsREmrJLVKKj0GPQ75fDSwkusAAAAASUVORK5CYII=;" vertex="1" parent="337">
                    <mxGeometry x="12" y="12" width="46" height="46" as="geometry"/>
                </mxCell>
            </root>
        </mxGraphModel>
    </diagram>
</mxfile>